<?xml version="1.0" standalone="no"?>
<!DOCTYPE svg PUBLIC "-//W3C//DTD SVG 1.1//EN" "http://www.w3.org/Graphics/SVG/1.1/DTD/svg11.dtd" >
<svg xmlns="http://www.w3.org/2000/svg">
<metadata></metadata>
<defs>
<font id="louregular" horiz-adv-x="819" >
<font-face units-per-em="2048" ascent="1638" descent="-410" />
<missing-glyph horiz-adv-x="716" />
<glyph horiz-adv-x="0" />
<glyph horiz-adv-x="682" />
<glyph unicode=" "  horiz-adv-x="716" />
<glyph unicode="&#x09;" horiz-adv-x="716" />
<glyph unicode="&#xa0;" horiz-adv-x="716" />
<glyph unicode="!" horiz-adv-x="348" d="M27 145q-9 -72 24 -137q9 -29 37 -35q11 0 35 -8q29 -14 49 15q12 16 27 28q16 16 10 35q0 53 -2 76q-1 9 -3.5 29t-4.5 32t-6.5 28t-10.5 28q-36 0 -76 -17.5t-65 -44.5q-10 -7 -14 -29zM51 471q0 -12 2 -22q9 -24 39.5 -46t57.5 -22q14 0 18 2q16 10 59 43 q16 16 26 37.5t13.5 38.5t8 45t8.5 43q0 1 2 22.5t4 32.5q0 17 4 53q11 134 12 142q13 178 12 231q0 18 -3 50.5t-3 37.5h2q-4 58 -4 88q-8 85 -30 129q-7 14 -7 29q-3 20 -15 32.5t-30 12.5q-10 0 -28.5 -3.5t-28.5 -4.5q-16 -5 -16 -23q2 -63 -17 -164q-17 -67 -20 -112 q-3 -25 -6.5 -78t-6.5 -78q-26 -199 -26 -278q0 -2 -2 -5.5t-2 -5.5q-1 -12 -23 -227z" />
<glyph unicode="&#x22;" horiz-adv-x="512" d="M35 1104q-2 -20 6 -70q4 -22 35 -45q14 -9 24 -2q54 32 64 45q56 73 45 152v45q-10 72 -12 73.5t-4 -8.5q-1 -9 -8 8q-4 9 -15 43q-24 73 -35 91q-4 -2 -15.5 4t-15.5 -4l-2 -2q-8 9 -30 39q-10 -15 -17 -29q-12 -72 -12 -78q-3 -27 -8 -262zM299 1104q-2 -20 6 -70 q4 -22 35 -45q14 -9 25 -2q52 31 63 45q56 73 45 152v45q-10 72 -12 73.5t-4 -8.5q-1 -9 -8 8q-4 9 -15 43q-24 73 -35 91q-4 -2 -15 4t-15 -4l-2 -2q-18 21 -31 39q-10 -15 -17 -29q-12 -72 -12 -78q-3 -27 -8 -262z" />
<glyph unicode="#" horiz-adv-x="1536" d="M4 317q28 -7 58.5 -7t66.5 3.5t55 3.5q26 -1 56 1t68.5 5.5t60.5 4.5q4 -72 9 -114t25 -100t56 -100q72 48 65 156q-1 18 -4 55t-4 56q0 13 1 38t1 37l375 66q4 -21 10 -65.5t10 -67.5l43 -230q6 -29 27.5 -47.5t42.5 -13.5q13 2 20.5 -1.5t12 -9.5t6.5 -7l74 47 q0 21 4 67q4 101 35 160q15 26 18 57q6 65 6 129q0 42 41 54q61 17 88 28q28 10 100.5 37t125 45t102.5 33q121 39 162 63q-4 4 -18 19.5t-20 20.5t-19 10t-27 4l6 45q-71 -4 -107 -8l-376 -56q-13 -1 -35.5 0.5t-30.5 1.5q-6 71 -14 193q100 22 123 31q10 3 40 13 t44.5 14.5t37.5 13.5t42 17.5t36 18.5q9 5 101 47q20 8 54.5 24t47.5 21l-31 56q-8 1 -28.5 2t-30.5 2l41 27q-1 2 -2 6t-2 6q-11 0 -32 0.5t-38 0.5t-33 -1q-61 -4 -179 -13.5t-175 -13.5q-6 -1 -18.5 -1t-18.5 -1q-40 -6 -49 35q-17 69 -60 124.5t-114 115.5 q-36 -65 -41 -78q-14 -31 -20.5 -69.5t-7.5 -64t-1 -73.5q0 -50 -9.5 -61.5t-57.5 -22.5q-98 -22 -181 -45q-7 -2 -55 -17t-76 -22q-1 8 -3.5 20t-4 20.5t-2.5 16.5q-8 73 -20 209q-3 34 -35.5 78.5t-67.5 63.5q-33 -56 -30 -123l12 -295q3 -42 -3.5 -54.5t-41.5 -25.5 q-27 -11 -56 -28.5t-47 -31t-50.5 -38.5l-45.5 -35q-39 -25 -26 -64q232 57 239 58q27 6 36 -1t11 -34q4 -31 4 -92l6 -109q-17 -6 -60 -19t-63.5 -20t-56.5 -21.5t-57 -29.5t-46.5 -36.5t-43.5 -50t-31 -63.5zM492 809q0 15 22 33q8 6 29 10q265 31 311 35q3 0 18 -6 q9 -69 5 -203q-55 -17 -117 -30.5t-138 -27t-118 -22.5q-20 81 -12 211z" />
<glyph unicode="$" horiz-adv-x="962" d="M12 340q8 93 23 129t43 61q43 33 72 39q15 3 30.5 9t34 15t29.5 13q34 6 35 6q-6 -15 -15 -46t-15.5 -49t-20 -41.5t-31.5 -41.5q-27 -28 -29 -82t23 -106.5t69 -73.5q10 -3 29.5 -6t25.5 -4q68 -15 134 -19v66q0 207 -3 422v37q-15 8 -83 43.5t-96 51.5t-68.5 46.5 t-61.5 58.5q-79 112 -82 240q-3 118 78 252q6 9 13.5 17.5t17.5 16.5t16.5 13t20 12.5t19 10.5t21 11.5t19.5 10.5q13 5 44.5 18.5t49.5 20.5q53 14 105 8l4 55q1 17 16 136q10 -4 27 -9t24 -8q8 -6 14 -13.5t9.5 -19.5t5 -18.5t3.5 -24t3 -22.5q3 -16 6.5 -47t6.5 -47 l2 -15q1 -1 3 -1.5t3 -1t2 -1.5q6 -3 16.5 -10t16 -10.5t17.5 -5.5t21 6q11 0 15 -8q3 -4 35.5 -48.5t50.5 -62.5q104 -104 82 -258q-1 -6 -3.5 -23t-4 -23.5t-5 -21t-7.5 -22.5t-11 -19t-16 -20l-9 22q-2 -11 -8 -24.5t-6 -15.5q-3 0 -8 -5q-20 38 -37 74q-6 11 -13 32 t-15.5 38t-24.5 30q-6 3 -9.5 10.5t-5 13.5t-3.5 18.5t-3 15.5q-8 33 -49 65q-4 -5 -5 -15t0 -31t1 -25q2 -36 5 -108t5 -107v-11q-9 -18 -4.5 -66t0.5 -67l-2 -10q7 -5 20.5 -14.5t20.5 -14.5q13 -9 24.5 -20t27 -29.5t20.5 -23.5l4 -4l4 -4l3.5 -3.5t4 -3t4 -3t4 -2.5 t5 -1.5t5.5 -1t6 -0.5t7 0q11 0 26 -11.5t19 -23.5q43 -71 80 -159q67 -156 -15 -299q-85 -164 -299 -209q-6 -49 -40 -250q-4 -38 -11 -42q-6 -3 -16 3q-2 0 -6 -7.5t-4 -11.5q-12 -47 -49 -55v352q-34 0 -64 9q-56 14 -96.5 28.5t-85.5 38.5t-78.5 59.5t-56.5 82.5 q-58 118 -37 206q-4 -2 -11 -2v-49h-6q-4 25 -2 35zM377 940q8 -29 22 -37l39 -26q0 17 -1 49t-1 49q0 42 10 237q-13 -11 -30 -36q-76 -130 -39 -236zM578 264q0 -8 3 -22t3 -19v-47q12 7 28 23q42 40 39 112q0 5 6 146q0 29 -10 39q-15 19 -53 61l-2 -22q-4 -40 -4 -70 q-8 -139 -10 -201z" />
<glyph unicode="%" d="M-100 1149q-6 -19 2 -45q19 -42 45 -86q23 -38 73 -29q20 8 52 12q42 6 55 54q7 55 29 90q4 9 12 43q-1 4 -5 18.5t-8 25t-10 17.5q-50 53 -110 64q-42 13 -58 -10q-60 -86 -77 -154zM82 70q-4 -23 0.5 -33t23.5 -21q36 -23 93 -16q107 18 143 90q7 17 39 70 q45 58 76 149q8 23 21.5 73.5t21.5 74.5q34 118 69 207q29 75 131 331l12 27t12 28t10 29t4.5 30t-3.5 32q0 2 2 7.5t2 8.5q35 131 37 141q1 6 8 25t7 25t-5 26q-9 25 -2 62q4 21 11 37l-41 -9q-9 27 -27 23q-76 -28 -103 -48q-25 -19 -40 -46q-7 -12 -74 -138 q-23 -46 -68.5 -140t-68.5 -140q-51 -105 -127 -313q-45 -110 -62 -177q-28 -99 -63 -247q-5 -25 -19 -81.5t-20 -86.5zM682 276q0 -17 10 -34q6 -12 20.5 -34.5t20.5 -35.5q13 -23 26 -29t40 2q1 0 16.5 3.5t22.5 3.5q41 0 43 28q1 3 5 24t4.5 24t2.5 25t-2 26q-9 41 -6 83 q7 41 -25 78q-47 50 -112 56q-22 0 -26 -3.5t-9 -23.5q0 -13 -4 -29q-7 -15 -11.5 -30.5t-7 -35.5t-3.5 -30t-3 -36.5t-2 -31.5z" />
<glyph unicode="&#x26;" horiz-adv-x="1024" d="M10 385q4 -113 33 -162q18 -34 12 -73q-7 -60 47 -144q3 -5 14 -15.5t17 -17.5q3 24 -11.5 65.5t-8.5 67.5q110 -140 272 -120q0 -6 1 -13t1 -10h10q1 0 3 1t3 1q50 50 99 41q16 0 33 10q25 18 71 58q33 25 101 82q8 -10 24.5 -28.5t24.5 -29.5q35 -46 112 -98 q59 -27 111 -16q5 1 22 4t24.5 5.5t20 7.5t20.5 14t13 22q4 7 25 18q20 13 12 37q-8 31 -45 51q-57 -13 -74 -14q-47 -4 -69 21q-45 48 -86 104q-15 20 -14 29t18 28q103 103 135 138q14 14 49 59q-17 29 -17 38.5t15 35.5q2 5 3.5 12.5t2.5 9.5q-22 30 -24 35 q-15 28 -45 10q-6 -3 -27.5 -13t-30 -14t-26 -13.5t-27.5 -17t-23.5 -19t-23.5 -23.5q-4 -6 -14 -18t-15 -19l-53 -53q-41 48 -109.5 132t-85.5 105q37 53 48 64q45 39 102 127q23 36 35.5 58t25 57.5t13.5 68.5q0 10 3 39t2.5 38t-3.5 36q-23 95 -90 157q-146 127 -322 99 q-74 -12 -129 -70q-3 -3 -17 -20t-22 -25q-102 -122 -74 -291q22 -106 88 -219l16 -24t19 -29q-77 -64 -94 -82q-126 -133 -121 -295zM354 328q-9 94 35 186q3 6 12.5 17.5t14.5 19.5q30 -39 83 -118t83 -118q-60 -49 -142 -75q-24 -7 -40.5 -1.5t-26.5 27.5q-19 34 -19 62z M389 999q1 13 23 107q1 5 6 12.5t6 9.5q3 6 9.5 17.5t10.5 21t5 17.5q3 25 16 38t37 21q39 -28 39 -100q0 -37 -13 -70q-20 -42 -65 -127q-4 -5 -11.5 -17.5t-11.5 -17.5q-5 -7 -14.5 -19.5t-13.5 -17.5q-31 51 -23 125z" />
<glyph unicode="'" horiz-adv-x="245" d="M35 1104q-2 -20 6 -70q4 -22 35 -45q14 -9 24 -2q54 32 64 45q56 73 45 152v45q-10 72 -12 73.5t-4 -8.5q-1 -9 -8 8q-4 9 -15 43q-24 73 -35 91q-4 -2 -15.5 4t-15.5 -4l-2 -2q-8 9 -30 39q-10 -15 -17 -29q-12 -72 -12 -78q-3 -27 -8 -262z" />
<glyph unicode="(" horiz-adv-x="655" d="M20 506q0 -39 3 -80q10 -121 14 -145q15 -100 53 -183q49 -104 72 -141q30 -52 78 -121q18 -26 51 -59q25 -25 104 -74q11 -8 32 -20.5t38 -24t31 -25.5q1 0 3 -1t3 -1q5 -2 26 -6.5t31 -9.5q33 -10 57 -10q14 0 17 20q0 6 4 10q12 15 20 21q6 6 6 14t-6 13q-12 4 -16 4 q-11 2 -28 15t-23 15q-4 3 -11.5 11t-14 13t-13.5 7q-11 11 -12 14q-13 23 -35 23q0 21 -17 14q-1 0 -7.5 -1.5t-8.5 -0.5q-2 2 -6 19q-2 2 -2 4q-5 4 -27 26q-2 2 -7 8.5t-9.5 10t-9.5 4.5q-2 2 -6 13t-5 14l-14 28q-3 -2 -6 -3t-6.5 -1.5t-5.5 -1.5q3 35 -17 49q-1 1 -2 6 t-2 7q0 16 -14 16h-15v4q0 2 2 6q6 10 5.5 14.5t-7.5 16.5q-5 3 -14 22q-16 35 -31 39q-1 0 -4 6q15 12 0 31q-3 0 -9.5 -1t-10.5 -1q6 13 -6 29q-5 15 -9 43q-2 5 -5.5 30t-10.5 37q-8 16 -2 33q7 10 -2 27q-7 11 -2 24q5 8 0 19q-11 23 6 35q-2 3 -4.5 8t-3.5 6 q7 18 12 25q-2 2 -7 6t-7 8t0 10q0 2 2 12t3 13.5t4 10t8 10t12 5.5q0 2 2 4q-1 2 -15 23q1 2 4 5t4 5l7 14q1 3 2 11t2 12q0 2 1 6.5t1.5 6.5t1.5 6.5t1 6.5v6t-0.5 6.5t-1.5 5.5t-3 5.5t-4 5.5q16 31 12 49q0 9 2 11q5 7 8 15.5t5 22t3 17.5l6 33q14 58 23 73q1 1 1 5t1 6 l18 69q1 6 9 29.5t10 38.5q2 14 6.5 30t8.5 25.5t11.5 27t10.5 25.5q8 26 33 68q4 6 11.5 19t12 21t12.5 17t17 15q9 14 10 16q7 17 29 35q18 10 32 39q11 11 13 12q14 12 16 20.5t-2 28.5q-9 28 2 41q-17 24 -31 31q-31 6 -61 23h-12q-26 -13 -47 -31q-4 -4 -28.5 -26 t-35.5 -36q-1 -1 -14 -15.5t-15 -17t-13 -15.5t-14.5 -18t-12.5 -16.5t-13.5 -18.5t-11 -18t-11.5 -21t-10 -21q-9 -21 -28.5 -62t-28.5 -61q-24 -56 -27 -66q-8 -25 -28 -65q-6 -12 -6 -13q3 -15 -13 -39q-1 -1 -3 -7t-3 -7q-6 -39 -14 -65q-23 -82 -31 -154 q-1 -6 -8 -45.5t-6 -61.5q0 -2 -4 -18q0 -3 -1 -8t-1 -8l-4 -58q0 -3 -1.5 -9.5t-1.5 -8.5z" />
<glyph unicode=")" horiz-adv-x="655" d="M14 -446q3 -41 23 -50q12 8 8 19q-2 14 6 22q5 2 8 9q-6 14 -6 20t6 18q1 1 2.5 2t2.5 2t2 3q9 6 6 20q-3 24 16 35q1 1 7 5t9 5q-6 15 -12 21q7 15 26.5 31t22.5 20q4 -15 -4 -31q-16 -27 -20 -47q-10 -21 -15 -23q-4 -3 -5.5 -8t1.5 -6q3 -3 8.5 -3.5t6.5 1.5l12 27 q3 7 7 11.5t10.5 8.5t9.5 6q13 7 16 -8q4 -2 6 -2q9 0 12.5 5.5t3.5 23.5q3 1 9.5 5t9.5 5q10 5 6 16q-2 5 -12 0q-9 -9 -15 -18q-12 -20 -38 -12q2 7 4.5 11.5t6 8t7.5 2.5q18 0 29 23q4 4 12 8q6 4 19 12t22 14.5t16 14.5q11 14 31 14q10 0 18 12q2 3 13 15.5t16 18 t15.5 12.5t19.5 10q1 1 4.5 3.5t5.5 4.5l-12 10q16 16 14 29q0 6 8 10q15 13 23 43q13 26 18 31q15 20 21 26q18 15 10 41q13 9 25 25q-5 12 4 35q2 3 9 19.5t13 21.5q4 4 4 10q0 17 17 27q12 6 16 10l-6 27q4 5 12.5 15t12.5 15l-3 8q3 11 12 37.5t13 42.5q-6 25 6 35 q14 12 8 31q-4 16 -2 20q7 15 12.5 45t8.5 39q15 50 12 111q0 4 -1 11.5t-1 10.5q3 86 -4 142q-1 8 -1 24.5t-1 22.5l-12 82q-8 69 -17 96l-16 51q-19 44 -57 125q-12 24 -52 98q-9 14 -31.5 43.5t-33.5 47.5q-51 69 -123 110q-25 13 -78 17q-14 0 -16 -17q-1 -4 8 -18 q5 -3 14 -27q13 -38 31 -72q8 -12 45 -65t55 -82q61 -99 90 -188q14 -37 15 -46q14 -96 14 -129q8 -169 -10 -262q-2 -15 -8.5 -42t-8.5 -40q-6 -57 -24 -98l-6 -18q-8 -19 -20.5 -60.5t-20.5 -60.5q-62 -158 -148 -281q-12 -15 -39 -49.5t-41 -52.5q-54 -77 -79 -125 q-26 -54 -37 -88q-7 -23 -15 -60q-7 -49 -2 -81zM311 -172q2 2 4 2l2 -2l-4 -2z" />
<glyph unicode="*" horiz-adv-x="450" d="M10.5 1237q0.5 -5 5.5 -8q15 -4 19 -10q21 -21 67 -17q19 0 23 -2q-9 -11 -25.5 -30t-30 -35.5t-24.5 -32.5q36 -18 64 10q15 18 36 39q10 10 17 6v-18q0 -37 6 -74q2 -6 5 -18.5t5 -18.5t8.5 -9.5t10.5 -0.5q18 7 20 24l6 58q1 5 3 16t4 19.5t6 15.5q29 -29 36 -35 q31 -39 66 -55q12 -6 20 -2l-12 16l4 2l19 -10q1 3 2 8t2 8q-2 4 -43 62q-7 9 -24.5 27.5t-24.5 27.5v4h47q24 -2 84 15q10 3 20 20q2 2 6 33l-22 2q-20 -1 -59 -4t-58 -4q-2 0 -6 1t-6 1q5 8 6 8q10 7 28.5 21.5t28.5 21.5q7 4 10 12l13 47q0 13 -6 13q-5 -1 -6.5 5t-2.5 7 q-16 -2 -22 -10q-10 -10 -12 -11q-6 -6 -19.5 -17t-19.5 -17q-3 -2 -13.5 -12t-19.5 -13l-6 23q0 47 -31 69l-2 2q-1 1 -3 5t-3.5 6t-4 3.5t-5.5 0.5q-5 -2 -7.5 -5.5t-4.5 -9.5t-3 -8l-12 -90q-2 -8 -2 -25q-11 9 -47 44.5t-60 50.5q-9 -6 -4 -27q15 -38 45 -80q4 -4 9 -14 q-8 0 -19 -1t-14 -1q-35 3 -62 -21q-6 -3 -5.5 -8z" />
<glyph unicode="+" horiz-adv-x="696" d="M-14 569q-4 -9 2 -20q17 -31 47 -37q17 -5 54 -17.5t66.5 -20t57.5 -9.5q3 0 33 -10v-31q6 -55 22 -176q4 -30 21 -37q2 2 43 31q8 6 20 18q28 32 39 98q12 80 12 82q210 20 256 25q10 8 33 31q-5 5 -2 12q7 27 -22 41q-33 22 -37 26q-44 34 -113 27h-106q-9 88 -9 105 q0 14 -8.5 28.5t-19.5 20.5q-20 12 -45 45l-4 8q-11 -2 -15.5 2t-5.5 14.5t-2 12.5q0 1 -0.5 2t-2 4.5t-3.5 7.5q-3 -6 -6 -13l-4.5 -10.5t-3.5 -5.5q0 -2 -4 -2q-5 20 -5 25q-22 0 -22 -23q-4 -20 -7.5 -56t-4.5 -40l-7 -115q-7 0 -17 -1t-13 -1q-59 0 -86 -2 q-41 -3 -72 -14q-28 -16 -43 -16q-12 0 -16 -9z" />
<glyph unicode="," horiz-adv-x="245" d="M25 156q-12 -58 28 -101q35 -35 68 -35q6 -33 -0.5 -46.5t-34.5 -28.5q-9 -6 -20 -17q20 -26 47 -26q28 0 58 20.5t36 46.5l12 60q3 44 -16 71q-2 2 -12.5 18t-16.5 23q-16 21 -24.5 30.5t-26.5 18t-39 3.5h-14q-22 0 -32 -8t-13 -29z" />
<glyph unicode="-" horiz-adv-x="532" d="M11.5 477q0.5 -11 17.5 -26q6 -2 18 -11q32 -14 72 -14q102 -12 145 -16q43 -2 133 -2q21 -2 62 2q21 0 33 20l20 37q8 17 -4 35q-17 26 -51 26q-94 4 -142 4q-13 2 -79 7q-14 0 -41 1t-41 1q-44 0 -64 -2q-45 -4 -65 -33q-14 -18 -13.5 -29z" />
<glyph unicode="." horiz-adv-x="204" d="M14 116q-3 -33 35 -73q22 -26 51 -23q39 -3 68 35q6 11 16 25q36 58 -22 100q-3 2 -13.5 8t-13.5 9q-18 18 -45 8q-25 -15 -29 -19q-44 -37 -47 -70z" />
<glyph unicode="/" d="M-12 -25q8 -1 21 -2.5t22 -3t16 -4.5q59 -25 107 27q32 35 51 63q43 64 51 80q8 14 31.5 63t40.5 74q61 96 131 250q28 58 83.5 162t73.5 139q68 133 82 162q46 90 66 135q8 18 43 105l37 73q-24 28 -33 37q-2 14 -4 39.5t-4 38.5q-1 7 -2.5 11t-6 8.5t-10.5 3.5 q-17 0 -28 -11q-28 -28 -68 -75q-44 -54 -70 -95q-128 -188 -153 -231q-25 -40 -66 -115.5t-53 -97.5q-74 -137 -166 -295q-5 -11 -17 -38.5t-22.5 -46.5t-23.5 -36q-11 -16 -43 -86q-19 -55 -23 -71q-2 -9 -4 -29t-4 -29q-2 -10 -10 -45t-10 -55q-5 -36 -25 -74 q-2 -4 -3.5 -8.5t-3.5 -11.5t-3 -11z" />
<glyph unicode="0" horiz-adv-x="860" d="M-4 568q-1 -51 3.5 -112.5t16.5 -111.5q12 -48 20.5 -76.5t27.5 -68.5t45 -68q80 -102 206 -162q123 -55 236 4q12 5 35.5 18.5t34.5 18.5q93 57 137 133q35 45 49 74q6 6 6 21q-12 57 35 77q0 2 -2.5 13t-2 12t2.5 8q12 8 10 37t0 35v41q5 99 4 119q-4 86 -16 254 q-14 182 -23 231q-23 122 -59 186q-30 62 -62 84q-5 3 -9 7.5t-10.5 12.5t-8.5 11q-46 84 -133 109q-11 3 -34.5 10t-33 9t-33 5.5t-35.5 -0.5q-100 -10 -143 -76l-20 -39q-9 -17 -38.5 -68.5t-47.5 -87.5t-31 -73q-6 -22 -22.5 -71.5t-22.5 -75.5q-10 -41 -33 -122 t-33 -122q-1 -6 -6 -25t-7.5 -32.5t-2.5 -26.5q1 -61 0 -112zM340 543q-1 28 8 133q0 22 10 49q5 12 42 92t53 125q7 18 21 53.5t22.5 57t15.5 52.5t8 58q1 16 11 44.5t12 39.5q8 0 14 2q1 -4 10 -30.5t13 -40.5q11 -39 28.5 -110.5t20.5 -84.5q16 -17 20.5 -42t3 -47 t2.5 -48q13 -78 7 -152q-1 -22 -3.5 -86.5t-7 -108.5t-14.5 -85q-1 -3 -5 -18t-5 -19.5t-4.5 -18t-5.5 -19t-6 -18t-7 -19t-7.5 -17t-9 -17.5t-9.5 -16t-11 -16q-2 -3 -7.5 -9t-8.5 -10l-47 47l-17 -24q-65 54 -94 137q-10 33 -24 53q-25 38 -29 113z" />
<glyph unicode="1" horiz-adv-x="614" d="M22.5 1136q-0.5 -9 2.5 -12q4 -6 12.5 -9t11.5 -1q7 5 16 7.5t14 3t17.5 0t14.5 -0.5q23 0 57 17q57 22 121 55q0 -1 -19 -111q-4 -26 -28 -129t-27 -161q-1 -40 -4.5 -83.5t-9.5 -102t-8 -85.5q-18 -228 -35 -385q-3 -50 6 -84t43 -59q69 -60 166 -57q-3 33 18 43 q12 8 12 14q0 25 19 31q10 5 14 22q13 77 15 111q3 34 6 104t6 105q7 71 20 131l37 139q9 38 20 131t25 141q3 13 6 38t4 32q6 50 7 100t-5.5 115t-10 93.5t-15.5 109.5q-5 40 -45 80q-18 17 -54.5 24.5t-54.5 -0.5q-29 -11 -41.5 -17t-31 -21t-27.5 -35q-1 -2 -14 -15 q-55 -44 -60 -49q-44 -47 -196 -217q-4 -4 -4.5 -13z" />
<glyph unicode="2" horiz-adv-x="1024" d="M-2 102q-4 -28 10 -45q67 -91 158 -102q162 -22 352 10q151 25 334 25q10 0 28 -1t32.5 -1t27.5 2q8 0 35 16q4 4 4 29q2 0 17 2t24 4q-2 6 -7 18t-7 17.5t-3.5 17.5t3.5 19q-116 33 -263 26q-235 -7 -376 -43q-13 -5 -38.5 -6t-33.5 -2q3 50 33 80q11 11 41 61 q12 21 47.5 75.5t52.5 86.5q91 154 127 236q13 27 46.5 86.5t49.5 95.5q5 12 18 38.5t19.5 42.5t13 40t7.5 45q6 92 -15 178q-41 169 -196 266q-88 52 -191 37q-40 -7 -58 -11.5t-47.5 -20t-47.5 -40.5q-2 -4 -11 -9.5t-12 -8.5q-77 -62 -98 -121q-39 -97 20 -229 q12 -25 36 -38.5t50 -10.5q17 1 35 24.5t21 48.5q11 59 -25 111q-44 62 12 115q21 21 50.5 32t50 13.5t57.5 3.5q18 0 27 -12q2 -4 11 -19t13.5 -26.5t5.5 -22.5q0 -86 -12 -127q-19 -68 -68 -164q-21 -48 -104 -225q-12 -24 -24.5 -51t-26 -59.5t-21.5 -49.5 q-9 -17 -27.5 -46t-31.5 -53.5t-19 -49.5q-7 -34 -24 -60q-67 -88 -82 -248z" />
<glyph unicode="3" horiz-adv-x="921" d="M14 422q-25 -181 47 -291q146 -204 400 -180q63 7 112 20q14 5 32.5 3.5t27.5 -17.5q16 6 24 8q64 12 99 64q3 8 12 16.5t18 9.5q22 5 49 26t31 23q17 52 31 93q28 79 12 153q-1 4 -4.5 25t-7.5 33q-19 80 -57 141q-10 13 -34 47t-38 51q-12 15 -27 27q-10 8 -30 22 t-31 23q4 5 10 14t11.5 15t11.5 10q44 35 71 88q1 4 3.5 8t6.5 8t5 6q24 32 32 50q42 114 11 243q-25 114 -107 199q-78 81 -188 115q-103 36 -236 -31q-3 -2 -14.5 -8t-16.5 -9t-13.5 -9t-14 -12t-10.5 -13q-30 -37 -45 -60q-37 -42 -37 -106q-3 -74 43 -115q18 -20 43 -12 q27 9 24 39q0 28 -8 49q-5 30 9.5 56t43.5 36q114 42 213 18q59 -17 80 -61q33 -68 30 -125t-48 -111q-16 -18 -49 -53t-49 -53q-22 -19 -46 -31q-59 -25 -141 -53q-30 -9 -39.5 -32.5t4.5 -51.5q13 -23 31 -35q6 -4 78 -47q1 -1 10 -6.5t10 -11.5q17 -38 64 -31 q43 0 57 -37q10 -19 27 -33q43 -42 52 -110.5t-24 -118.5q-59 -90 -120 -123q-4 -3 -13 -8.5t-14 -8.5t-13.5 -7t-15 -5.5t-15.5 -1.5t-17 2q-6 3 -22.5 9.5t-28.5 12t-21 11.5q-14 9 -24 20.5t-17.5 29.5t-10.5 26.5t-10 32.5q-2 6 -8.5 31t-10 36.5t-11.5 29.5t-17 32 q-9 18 -36 63q-6 9 -15 15q-7 8 -25 21.5t-24 19.5q-39 0 -53 -46q-13 -38 -19 -67z" />
<glyph unicode="4" d="M0 971q0 -142 100 -203q145 -90 275 -90q23 -1 48.5 -1t59 0.5t52.5 0.5q1 -6 2 -19t2 -18q8 -186 14 -272q1 -17 6 -52t6 -53q2 -61 2 -184q-3 -58 54 -82q23 -14 69 -21q16 -4 60 -8q2 16 6 31q0 73 4 225q0 41 4 119q8 139 14 219q1 18 1 67t4 83.5t14 66.5 q25 75 2 207q-9 44 -13 154q-1 13 2 35t3 32q0 73 -7 176q0 19 -14 33q-29 26 -63 31q-35 4 -91 -10q-6 -12 -6 -15q-3 -15 -13.5 -64.5t-14.5 -72.5t-9 -62t-6 -71q0 -39 -1 -117.5t-1 -117.5q0 -14 -4 -54q-97 -4 -141 -2q-46 0 -92 12q-22 6 -28.5 16t-4.5 34 q8 80 10 125q2 30 -2 84q-1 27 -5 81.5t-5 81.5q-1 12 -2 36t-2 36q-1 7 -5.5 26.5t-4.5 30.5q-1 24 -14.5 47t-22.5 32.5t-35 33.5q-28 22 -66 25q-49 5 -106 -35q-24 -18 -19 -51q18 -104 4 -205q-20 -143 -20 -301z" />
<glyph unicode="5" horiz-adv-x="1024" d="M20 100q10 -50 9 -61q-6 -56 43 -74l10 -51l20 12q11 -11 37 -13.5t35 -8.5q29 -16 76 -13q27 3 57 3q88 9 125 14q51 7 121 29q6 2 25 7.5t27.5 9t22.5 10.5t22.5 17t15.5 23q2 5 20 14l47 19q2 7 5 21.5t5 21.5h37q1 4 6 22t7 29q21 7 24 6q35 -9 53 33q33 61 60 94 q60 67 45 135q-1 3 6 29q19 97 -4 182q-32 116 -152 221q-27 24 -55 35q-158 74 -305 58q-30 -4 -84 -11v50q11 119 0 190q-3 18 -2.5 40t10.5 38q275 20 629 155q-9 12 -37 20t-37 26q74 24 86 28q-4 3 -18 17l12 18q-43 24 -100 14q-27 -6 -77 -17t-69 -15q-35 -9 -47 -7 q-135 19 -307 5q-73 -5 -86 -5q-7 -1 -24.5 0.5t-22.5 -0.5q-7 -1 -45 -22v-59q11 -91 0 -146q-6 -30 -15 -121q-16 -163 -22 -239q-4 -34 -2 -52q0 -23 14 -34q20 -12 33 -39q23 -46 47 -53t70 16q33 14 45 12q102 -22 139 -39q93 -47 88 -139q-4 -71 -13.5 -121t-35.5 -96 q-36 -61 -51 -76q-19 -19 -43.5 -40t-41.5 -33.5t-48.5 -35.5t-44.5 -32q-51 -38 -76 20q-3 9 -17 37q-4 9 -16 34t-19.5 44t-11.5 37q-10 43 -28 61q-21 4 -44 -0.5t-36 -10.5t-38 -20t-34 -18q-8 -3 -12 -20q-36 -87 -13 -185z" />
<glyph unicode="6" horiz-adv-x="942" d="M8 627q-25 -208 10 -346q48 -198 246 -295q55 -25 125 -35q111 -7 186 39q130 76 211 194q6 8 16.5 24.5t16.5 24.5q3 6 13.5 22.5t13.5 25.5l43 110q9 36 10 43l12 211q0 29 -34 39q-22 9 -66 25.5t-66 25.5q-108 47 -170 45q-21 0 -47 13q-79 43 -157 -25l-95 -74 q17 98 43 146q3 7 23.5 40t26.5 52q68 176 114 250q32 62 70 92q43 34 43 80q0 15 -2.5 30t-8.5 32.5t-10 28t-14.5 32.5t-13.5 30q-120 -94 -201 -196q-23 -27 -70 -101t-81 -108q-2 -2 -5 -8q-92 -178 -104 -205q-71 -149 -78 -262zM301 272q-3 39 18 86q59 149 189 238 q2 2 20 14q43 23 74 4.5t31 -77.5q-5 -32 -15 -62q-4 -15 -9.5 -44.5t-9 -47.5t-12 -42.5t-20.5 -43.5q-53 -93 -178 -127q-43 -7 -57 27q-4 8 -12.5 23.5t-13 27.5t-5.5 24z" />
<glyph unicode="7" d="M8 752q12 -28 25 -50q1 -1 4 -5.5t5 -6.5t4.5 -5t4.5 -4.5t4 -0.5q8 2 22.5 -9.5t28.5 -4.5q9 2 30.5 -2.5t23.5 -4.5t5.5 1.5t4.5 1.5q6 18 12 30q20 -12 24 -24t-5 -35q-4 -10 -33 -90t-41 -121q-32 -109 -66 -260q-4 -16 -4 -51q0 -54 37.5 -94t85.5 -62q11 -3 25 3.5 t20 16.5q14 27 21 31q6 3 10.5 2.5t14 -2.5t14.5 -2q5 13 -0.5 32.5t-5.5 36.5t16 31l8 -12q13 39 16 51q-19 0 -8 21q20 63 41 108q35 76 82 166q50 105 84 170q2 4 7 11.5t7 11.5q10 25 17 29t33 2q10 0 29 -1.5t28 -1.5q13 0 25 3q12 4 36 8q6 1 13.5 1t17 -0.5 t14.5 -0.5l13 53q7 0 24 -1t25 -1q13 20 13.5 29.5t-11.5 13.5l-143 39q-5 2 -16 4t-17 4q26 72 63 184q52 163 49 287q-1 24 -16 115q-1 3 -6 8.5t-6 7.5q-67 55 -154 55q-5 0 -18.5 1t-23 0.5t-17.5 -3.5q-63 -18 -148 -18q-31 1 -91 1t-91 1q-14 1 -42.5 -1t-51 -0.5 t-41.5 9.5q-4 2 -9 2t-11.5 -1t-8.5 -1q-4 -8 -2 -10q3 -10 10 -36.5t12 -40.5t18.5 -32t33.5 -28q4 -1 9.5 -6.5t8.5 -6.5q12 -8 17 -8q17 0 49 1t49 1q78 -2 238 -2q-13 -36 -17 -45q-12 -26 -69 -164l-109 -280q-7 -26 -29 -23q-78 4 -110 4h-23l-55 -12q-30 -4 -33 -18z " />
<glyph unicode="8" d="M16 455q0 -31 13 -107q21 -95 100 -198q92 -119 195 -166q73 -34 135 -21q59 11 129 37q5 2 19.5 8t21.5 9.5t17 11t16 16.5q8 16 29 45t28 39q39 60 37 98q0 16 6 25q8 25 13 52t10 62.5t8 53.5q0 14 -2 18q-13 53 -21 172q-3 110 -102 162q-3 1 -14.5 8.5t-20.5 12.5 q21 35 33 49q5 7 15 19t11 13l37 74q25 38 25 113q-1 6 -2 18t-2 19q-4 31 -1 56t2 57t-12 55v4q5 41 -39 67q-4 2 -12 8t-14 9q-27 12 -17 32q15 49 -41 80q-43 21 -75.5 32t-74.5 11.5t-81 -16.5q-6 -6 -20 -6q-56 -14 -103 -68q-9 -10 -31 -29.5t-34.5 -37t-14.5 -41.5 q-12 -12 -21.5 -29.5t-14 -30.5t-11 -36.5t-10.5 -34.5q-36 -132 43 -256q19 -28 18.5 -48t-20.5 -49q-4 -2 -10 -8q-53 -68 -93 -155q-5 -14 -16.5 -37.5t-11.5 -24.5q-4 -8 -4 -16q-1 -6 -2 -18.5t-2 -18.5q-1 -11 -4.5 -30.5t-5.5 -34.5t-1 -29zM401 510q21 82 52 133 q23 44 71 66q23 9 37 -11q36 -36 39 -118q-3 -25 -6.5 -75.5t-8 -91t-10.5 -77.5q-4 -20 -12.5 -43t-21.5 -51.5t-19 -44.5q-1 -4 -10 -17q-36 -48 -61 0q-104 175 -50 330zM412 991q10 131 82 217q13 16 28.5 31t43 38.5t34.5 29.5q19 -2 23 -37q4 -102 -15 -150 q-6 -13 -20 -51.5t-27 -58.5q-21 -29 -30.5 -42.5t-30 -34.5t-41.5 -34q-52 37 -47 92z" />
<glyph unicode="9" d="M8 1040q-5 -45 6 -112q28 -145 97 -230q5 -6 16.5 -19t19 -21t18.5 -18.5t21 -18.5q99 -70 195 -78q103 -14 166 16q1 1 28 4q-6 -121 -14 -362q-2 -41 -2 -117q0 -51 6 -76q8 -70 43 -88q9 -6 22 -9.5t21.5 -5t25.5 -3t23 -2.5q3 0 17 14q4 -2 61 -25q0 11 -1 24t-1 17 q0 11 -1.5 34t-1 40t4.5 33q4 27 4 78v198v340q-2 46 -9 138.5t-9 138.5q-2 4 -1.5 10.5t3.5 7.5q4 5 5.5 11t1 10t-2.5 11t-2 9q-2 12 -2 37q-2 30 -7 90.5t-7 91.5q-2 10 -9 23q-5 12 -21.5 43.5t-23.5 48.5q-16 22 -16 45q2 27 -25 41q-37 29 -61 35q-76 17 -166 33 q-56 14 -111 -27q-68 -44 -137 -72q-23 -9 -26 -14q-7 -9 -28.5 -33.5t-35.5 -42t-26 -35.5q-9 -15 -17 -33.5t-12.5 -32.5t-9.5 -37.5t-7 -34.5t-6.5 -38.5t-5.5 -36.5zM315 961q5 72 74 137q16 19 35.5 39.5t43.5 44.5t36 37q18 12 26 20q3 -12 11 -32.5t8 -30.5 q0 -4 -6 -97q-2 -25 -25 -69q-20 -27 -20 -54q-5 -63 -62 -131q-28 -33 -54.5 -26.5t-37.5 45.5l-9 27t-10 31t-6.5 27.5t-3.5 31.5z" />
<glyph unicode=":" horiz-adv-x="409" d="M39 174q1 -2 7.5 -26.5t12.5 -36.5q20 -38 88 -86q25 -15 43 -9q30 7 84 29q37 15 37 49q0 3 5 11t6 10q33 65 -13 114q-17 17 -26 35q-27 42 -66 45q-11 3 -22 15q-1 0 -9.5 7t-13.5 9q-14 3 -60.5 -20t-50.5 -35q-2 -10 -22 -111zM102 868q12 -44 66 -88q68 -65 147 -8 q8 4 21 15.5t18 15.5q30 15 27 43q-5 91 -80 153q-27 24 -66 26t-69 -7q-16 -3 -25.5 -13t-19 -30t-12.5 -25q-21 -31 -7 -82z" />
<glyph unicode=";" horiz-adv-x="389" d="M22.5 937q-0.5 -13 2 -26t5 -23t8.5 -23.5t10 -21.5l11.5 -23l10.5 -21q29 -57 100 -66q52 -1 88.5 17t75.5 53q15 13 22.5 42.5t16.5 39.5q-3 5 -15 23t-18 28l-14 25q-23 59 -101 79q-9 2 -32 5t-39 8.5t-29 17.5q-3 4 -16.5 2.5t-18.5 -6.5q-21 -22 -29.5 -32 t-20 -30.5t-15.5 -41.5q-2 -13 -2.5 -26zM39 227q-26 -81 16 -137q16 -19 47.5 -50.5t38.5 -39.5q-1 -14 -9.5 -29t-14 -21t-21.5 -22q-17 -20 -17 -27.5t15 -33.5q8 0 21.5 2t22 2t12.5 -4q25 -20 51 2q61 44 90.5 91.5t19.5 113.5q-4 26 -2 39q5 43 -35 86q-4 4 -21 14 t-20 18q-6 15 -15 23.5t-23 11.5t-21 3.5t-27 0.5q-12 0 -35 -3t-28 -3q-36 -3 -45 -37z" />
<glyph unicode="&#x3c;" d="M84 506q60 -68 74 -98q47 -91 161 -187q22 -20 67.5 -56.5t66.5 -55.5q45 -36 86 -46q25 -7 39 5q-2 11 1 16t15 6q3 0 11.5 9.5t17.5 9.5l32 6q-3 5 -8.5 13t-9 14.5t-4.5 11.5q-1 6 -2.5 10.5t-4 9t-4.5 7.5t-6.5 7t-6.5 5.5l-8 6t-7 5.5q-106 74 -141 102 q-37 27 -105 81.5t-84 66.5q-7 5 -47 30q126 86 145 99q111 71 170 135q13 16 29 29q24 25 69.5 69.5t55.5 54.5q7 7 10 17.5t4 24t2 18.5q0 8 -6 16.5t-18 7.5q-2 5 -2 7q-5 21 -27 12q-9 -4 -34 -16t-37 -18t-30 -17t-32 -23q-21 -18 -63 -53.5t-75.5 -64.5t-62.5 -56 q-69 -64 -153 -158q-12 -14 -17 -19t-16.5 -11.5t-24.5 -6.5q-23 -3 -20 -26z" />
<glyph unicode="=" horiz-adv-x="1228" d="M103.5 256q0.5 -15 19.5 -29q56 -39 98 -30q63 13 174 2q22 -4 39 2q133 27 209 49q30 8 326 98q17 5 49.5 17.5t48.5 17.5q-8 16 -29 12q-26 -8 -82 -16q0 1 -1 3.5t-1 4.5q2 1 9 4t12 4q91 26 104 29q41 12 41 51q-9 3 -29 11t-34.5 11t-30.5 1t-48 -3t-48 -3 q-50 -6 -266 -35q-212 -27 -412 -105q-27 -9 -129 -69q-20 -12 -19.5 -27zM123 635q19 -14 24 -21q45 -48 111 -51q89 -8 270 21q44 8 124 27t114 26q9 3 30 8t31 8q6 2 21.5 13.5t23.5 11.5q22 1 55 19t38 20l-29 47q6 3 19.5 8.5t20.5 9t13.5 15t5.5 28.5q-12 -2 -37 -6.5 t-38 -5.5l-471 -53q-33 -3 -72 -12q-19 -3 -111 -23q-31 -6 -90 -25q-24 -8 -53 -26q-27 -18 0 -39z" />
<glyph unicode="&#x3e;" d="M98 975q2 -4 7 -19.5t10 -23.5q13 -18 52.5 -78t63.5 -90q26 -30 59.5 -63t57.5 -54.5t67.5 -58.5t61.5 -53q35 -30 43 -39l-26 -27q-17 -14 -76 -60t-90 -73q-118 -104 -207 -283q-9 -17 6 -26q51 -22 92 22q4 4 28 32l30 35t27.5 31t31 33.5t29 30t33 32.5t31.5 27.5 t36 28.5q62 45 164 135q22 17 26 23q22 36 56 26q2 2 0 2q-7 59 -17 97q-5 3 -25 12.5t-30 17.5l-135 117q-15 13 -42 38t-42 38q-24 20 -78 64t-82 67q-50 34 -78 45q-33 15 -84 -6z" />
<glyph unicode="?" horiz-adv-x="614" d="M8 1241q-2 -21 6 -61q3 -20 23 -17q19 0 22 21v18q-6 76 68 127q9 6 20 6q15 0 42 -2t40 -2q20 0 31 -20q45 -79 19 -174q-8 -34 -33 -76q-16 -27 -47 -74.5t-43 -66.5q-7 -12 -15.5 -37t-9.5 -27q-3 -7 -10.5 -25.5t-11.5 -27.5q-1 -3 -4 -8t-3 -7q-2 -16 -7.5 -45.5 t-8.5 -54t-2 -47.5q9 -98 57 -172q16 -26 37 -41q54 -41 111 -49q8 -1 32.5 -5t32.5 -4.5t33 1.5q78 11 84 12q33 11 39 16q10 8 29 27t26 25q35 38 35 94q1 12 -1.5 24.5t-7.5 28.5t-7 25l-17 6q-30 9 -48 -3t-19 -42q0 -4 0.5 -11.5t0.5 -13.5t-1 -10q-3 -29 -13 -64 q-3 -14 -16 -18q-45 -12 -70 -4q-49 15 -75 59t-17 94q19 87 43 129q45 78 62 103q38 57 43 82q1 5 6 12.5t6 9.5q4 10 14 28.5t16 33t9 28.5q12 52 12 134q3 64 -31 106q-13 14 -34.5 43.5t-34.5 44.5q-77 89 -203 76q-67 -6 -132 -67t-77 -138zM266 72q25 -100 109 -105h6 q21 -9 43 13q12 16 20 18q23 8 30 18t3 31q-18 100 -78 148q-50 39 -73 55q-7 -7 -23 -19q-61 -70 -37 -159z" />
<glyph unicode="@" horiz-adv-x="1228" d="M-61 479q0 -2 4 -22.5t5 -24.5t5 -22t6.5 -25t7 -22t9 -24.5t11 -21.5t13.5 -22q72 -111 152 -168q98 -66 233 -111q199 -69 375 -6q7 3 24.5 8.5t26.5 9t21.5 11t21.5 16.5q8 -1 14.5 0t12 7t7.5 8.5t8 13.5l5 10q4 6 5 14t1.5 18.5t1.5 14.5q25 14 41 25q3 1 7 6.5 t4 7.5q-4 18 -3.5 24.5t7 22t8.5 23.5q-21 -6 -82.5 -24.5t-93.5 -28.5q-213 -75 -414 36q-119 65 -193 207q-60 110 -53 189l8 76q4 52 37 59q2 8 4 25t4 24q8 37 21 82q18 56 41 106l8 16t10.5 16t10.5 14t12.5 14.5t12 12.5t14.5 13.5t13 11.5t15 13t14 12q91 87 173 121 q128 44 139 47q84 28 145 31q77 5 136.5 -32t88.5 -107q0 -2 13 -27q17 -40 18 -43q2 -7 10 -43t13 -53q43 -167 10 -293q-10 -39 -32 -125t-34 -131q0 -2 -2.5 -5.5t-3.5 -4.5l-14 8q-81 59 -88 170q-11 191 31 303q2 5 5 15.5t5 15.5q11 49 -19 94q-43 66 -104 68 q-16 0 -31 6q-55 20 -129 -31q-109 -74 -127 -84q-120 -59 -192 -154q-80 -101 -82 -192q-3 -84 14 -160q24 -94 105 -131q12 -7 43 -29q37 -34 86 -43.5t96 1.5t94 38q40 24 98 101q96 -67 111 -78q102 -74 186 -39q9 4 28 14.5t28 14.5q61 26 71 106q3 26 13.5 75.5 t13.5 69.5l14 52q15 104 17 123q3 22 0 43q-3 26 -10.5 77t-10.5 76q-2 19 -6.5 39t-11.5 42t-12 36.5t-15 40.5t-14 37q-5 16 -13.5 32t-19.5 35t-16 29q-7 7 -13 10q-58 40 -86 66q-9 10 -21 14.5t-27.5 7.5t-24.5 6q-118 59 -250 62q-138 0 -191 -10q-105 -23 -153 -54 q-110 -72 -150 -109q-18 -17 -33 -34q-2 -2 -9.5 -11t-11 -13.5t-10 -9t-12.5 -5.5q-12 -2 -27 -18t-28 -17q-5 0 -10 -18q-1 -2 -3.5 -8t-4.5 -9.5t-6 -5.5q-27 -22 -37 -65q0 -2 -2.5 -7.5t-3.5 -7.5q-5 -10 -20 -35.5t-22.5 -46t-7.5 -42.5q0 -7 -8 -19q-9 -25 -33 -88 q-6 -18 -12 -20q-7 -2 -11 -4.5t-5.5 -7.5t-2 -8t0 -11t0.5 -10q0 -7 1 -29t0.5 -37t-5.5 -29q-20 -73 -2 -178zM608 659q5 11 10.5 34.5t10.5 33.5q14 21 53 76q6 8 19.5 22t17.5 19q4 7 10 13.5t11 11.5t14 11l13.5 9t15.5 9.5t14 8.5q-6 -115 -15 -221q-3 -26 -14 -45 q-24 -46 -57 -88q-16 -21 -49 -43q-12 -8 -25 -4.5t-19 16.5q-37 83 -10 137z" />
<glyph unicode="A" horiz-adv-x="921" d="M4 -25q-2 -11 -2 -20q0 -23 14 -37q27 -31 73 -31q13 0 27 2q66 11 91 60q70 144 98 225q17 38 33 82.5t36 102.5t29 83q3 8 10 15.5t13 7.5h248q24 -110 33 -174q17 -82 34 -205q4 -35 35 -65t66 -35q2 7 2 22.5t2 18.5q13 6 18 15q5 8 5 15q-1 5 -5 21q-4 14 -4 18 q-2 23 -6.5 48t-10.5 54t-9 44q-17 126 -46 351.5t-40 305.5q-27 215 -43 379q-10 39 -10 61q0 8 1 13q1 9 1 18q1 62 -39 98q-33 30 -79 31q-16 0 -32 -4q-8 -4 -21 -4q-5 1 -10 1q-53 0 -74 -58q-71 -165 -94 -244q-23 -64 -58 -181t-48 -157q-80 -265 -86 -287 q-16 -61 -48.5 -184.5t-57.5 -220t-46 -185.5zM465 596q73 235 139 434q1 -14 4.5 -38.5t3.5 -37.5q3 -20 20.5 -139.5t26.5 -181.5q0 -22 -7 -29.5t-27 -7.5h-160z" />
<glyph unicode="B" horiz-adv-x="1228" d="M31 68q0 -16 8.5 -35.5t21.5 -28.5q124 -73 214 -73q8 0 16 1q87 8 332 52q103 21 295 79q18 5 69 34t86 30q9 1 19 10.5t22 25.5t19 23q88 115 88 207q-5 139 -91 307q-15 27 -77 70q-16 8 -51.5 21.5t-51.5 21.5q-7 3 -24.5 14t-26.5 13q-22 5 -27 13t2 30q5 14 16 43 t16.5 46t11 42t5 49t-7.5 49q-19 104 -84 172q-85 76 -176 121q-86 39 -175 49q-63 7 -142 7q-33 0 -70 -1q-5 0 -10.5 -3.5t-7.5 -4.5q-41 -18 -109 -41q-2 2 -2 6q-31 0 -43 -4q-6 -1 -10 -8t-4 -12q-1 -17 0 -48.5t0 -46.5q-15 -287 -19 -344q-2 -23 -10 -88.5 t-11.5 -110t-4.5 -87.5q-6 -199 -6 -600zM254 1247q-2 11 -2 20q0 27 14 39q10 10 29 10q13 0 31 -5q133 -34 184 -144q8 -21 23 -56t20 -48q9 -20 9 -43q0 -14 -3 -28q-9 -38 -39 -58q-37 -25 -55.5 -36t-51 -21.5t-59.5 -6.5h-37q-19 -3 -24.5 4t-7.5 25q-3 52 -23 289 q-1 10 -4 29.5t-4 29.5zM268 266q18 74 22 172q1 40 2 77q0 53 -3 99q-1 20 -1 43t0.5 51t0.5 42q30 -2 92 -4t106.5 -5.5t85.5 -9.5q125 -22 211 -149q23 -32 34 -72q10 -40 12 -70q1 -18 1 -43v-35q-2 -43 -44.5 -87t-94.5 -56q-31 -6 -92.5 -14.5t-91.5 -14.5 q-46 -5 -102 -18q-14 -3 -29 -3q-23 -1 -46 7q-38 12 -55 43q-10 15 -10 32q0 7 2 15z" />
<glyph unicode="C" horiz-adv-x="1024" d="M25 729q-1 -20 -1 -39q0 -159 52 -272q13 -29 46.5 -90.5t47.5 -94.5q32 -72 84 -116q124 -111 229 -125q12 -1 61.5 -7.5t71.5 -6.5q1 0 2 -1q22 0 56 8q36 8 65 29q35 2 66.5 18t67.5 44t55 39q70 40 73 123v5q0 6 -1 12q-2 9 -6 19.5t-5 16.5q-7 -3 -24.5 -10 t-26.5 -11q-3 -1 -7.5 -7t-6.5 -7q-1 -1 -80 -86q-47 -50 -116 -54q-5 0 -10 -1q-63 0 -116 41q-61 54 -88 84q-137 137 -145 301q-3 119 -3 239t3 240q3 171 92 278q27 31 39 39q35 19 72 19q62 0 126 -56q66 -49 84 -57q29 -14 52 -14q21 0 38 12q-4 10 -9.5 28.5t-11 31 t-13.5 22.5q-84 99 -201 137q-40 12 -89 12q-28 0 -59 -4q-145 -16 -213 -43q-141 -51 -176 -174q-4 -17 -28.5 -96t-30.5 -123q-12 -100 -16 -303z" />
<glyph unicode="D" horiz-adv-x="1105" d="M12 668v-29q0 -240 60 -649q2 -21 13 -43t24 -25q14 -4 31 -6q18 -2 28 -2h13h19h29q6 2 17 17t14 18q14 18 25 20q101 23 135 27q200 24 242 33q148 26 245 137q3 5 27 14q22 17 24 19q53 83 70 123q63 120 63 292q0 17 -1 35q-2 20 -6 62t-8.5 73.5t-10.5 59.5 q-30 183 -121 305q-20 26 -45.5 53t-42.5 44.5t-53.5 47t-47.5 38t-57 43t-51 38.5q-14 9 -37 17q-80 28 -176 34q-46 3 -86 3q-43 1 -80 -3q-70 -6 -176 -24q-48 -8 -60 -21.5t-12 -62.5q-2 -114 -4 -344t-4 -344zM258 1358q3 1 10.5 3t15 3.5t13.5 1.5q113 0 170 -2 q62 0 98 -45q109 -105 158 -162q106 -118 106 -289q1 -21 4 -91t3 -103q0 -6 1 -12q-1 -31 -3 -76q-2 -55 -9 -101q-36 -205 -151 -305q-62 -50 -144 -69q-49 -16 -144.5 -36.5t-117.5 -25.5v129q2 45 8.5 132.5t8.5 129.5q8 122 10 181q1 29 1 67q0 76 -3 189q0 145 -8 260 q-2 40 -13 116t-14 105z" />
<glyph unicode="E" horiz-adv-x="942" d="M23 305q2 -86 10 -264q4 -60 51 -70q12 -5 26 -7t36 -4t30 -3q2 0 10 8q3 1 9.5 4.5t12 5.5t9.5 2q9 0 32 0.5t59 -0.5h28q50 0 65 3q67 8 461 59q17 2 47.5 19t32.5 18q0 4 -4 12q-31 0 -49 2q2 1 24 14l-32 7q51 31 53 32q-53 9 -129 9q-9 0 -57 -4q-39 -3 -63 -3h-11 q-25 1 -104.5 8t-123.5 7q-34 0 -204 -15q-1 14 -2.5 36t-2.5 41t-1 36q8 97 32 283l6 75q1 13 7 18t20 7q169 10 201 14q14 2 30.5 6.5t27 8.5t30 11.5t26.5 10.5q6 4 15 18.5t14 16.5q18 6 115 31q1 41 -10.5 52t-51.5 11h-32q-75 10 -133 10q-52 0 -89 -8 q-65 -11 -151 -20q8 90 8 127q-2 82 -10 227q0 14 -4.5 38t-5.5 30q0 11 4.5 24.5t11.5 14.5q91 29 156 36q174 15 346 21q12 0 16 2q49 42 92 70q-2 0 -7.5 2.5t-12.5 3.5q5 2 47 16q-7 4 -16.5 7t-16 4.5t-18.5 3t-17 2.5q-3 1 -21 8.5t-26 9.5q-10 4 -24 13t-25.5 14.5 t-21.5 5.5q-237 -3 -439 -37q-33 -8 -52 -11.5t-48.5 -2.5t-54.5 12q-8 3 -16 3q-26 0 -58 -27q-42 -35 -45 -70q-12 -159 -12 -307q0 -55 2 -109q3 -25 3 -130q0 -74 -2 -186q-4 -274 -3 -313z" />
<glyph unicode="F" horiz-adv-x="901" d="M10 258q-1 -27 -1 -54q0 -97 9 -186q11 -98 93 -122q15 -4 26 -4q15 0 23 7q14 12 6 46q-9 32 14 55q15 6 19 31q2 25 2 80q17 -26 18 -29q2 23 9.5 101t9.5 122q6 2 14 2q4 -54 10 -80q1 17 5 89t7 116l-18 -59q-8 0 -8 2q1 13 6 39t6 32q12 -2 18.5 -3t10 7.5t4.5 13.5 t1 17q0 22 9 72q14 79 27 166q8 35 35 37q49 4 73 12q20 6 145 34.5t152 39.5q-1 1 -2 4.5t-2 5.5q-5 1 -16.5 5t-16.5 5q5 15 5.5 22t-7 18.5t-35 18.5t-75.5 11h-250q0 2 -1 7t-1 7v22q0 45 6 90t6 90v23q0 4 0.5 7.5t1.5 6t2 4.5t3 3.5t3.5 2l4.5 1.5l4.5 1.5t5.5 1.5 t6 1q7 1 132.5 24.5t182.5 35.5q6 0 43 16q61 11 129 33q-8 33 -8 50q0 14 6 17q12 8 18 18q5 10 6 18q0 4 -2 22q-2 14 -1 22q-13 1 -39.5 3.5t-39.5 3t-38 -0.5q-37 -1 -52.5 0t-52 7t-53.5 8q-32 4 -68 3.5t-77 -3.5q-83 -7 -157 -15q-34 -3 -81 -3q-57 0 -133 5 q-17 1 -26.5 -10.5t-6.5 -28.5q9 -54 9 -87v-11q-2 -34 -11.5 -121t-11.5 -135q-16 -315 -22 -469q-1 -24 -6.5 -150t-6.5 -194z" />
<glyph unicode="G" horiz-adv-x="1024" d="M27 688q-8 -70 -8 -135q0 -159 49 -283q70 -181 229 -254q35 -17 133 -30q74 -9 150 -9q21 1 59.5 10t54.5 11q-10 -55 -10 -59q-3 -29 -9 -82.5t-10 -98.5t-6 -84v-7q0 -79 66 -136q17 -17 34 -17q14 0 29 11q3 1 7 0.5t11 -1.5t11 -1q4 4 4 18q9 85 76 135q3 2 3.5 6.5 t-0.5 11.5t-1 9q0 5 -2.5 16.5t-1.5 16.5q23 87 31 129q1 7 4 33.5t6 38.5q2 9 7.5 32.5t6.5 34.5q9 87 15 115q3 17 13 47t13 45q2 5 2 13q0 15 -4 20q-23 18 -10 51l-4 16q-8 26 -11.5 40.5t-2.5 36.5t10 40q2 7 0 14t-6 7q-12 5 -30 15.5t-34 16.5t-35 6 q-51 0 -152.5 4.5t-152.5 4.5q-16 -1 -33 -4.5t-39.5 -10t-33.5 -8.5v-16q32 -25 49.5 -38t49 -28t60.5 -20q68 -11 113 -11q23 1 30.5 -7t2.5 -29q-9 -75 -27 -148q0 -6 -6 -13t-12 -9q-25 -5 -55 -5q-63 0 -148 23q-14 2 -55 26q-31 17 -56 17q-8 0 -16 -2q-3 0 -10 10 t-8 17q-3 21 -9 59.5t-8 54.5v54q-14 -15 -14 -37t5 -39t-5 -37q-24 30 -28 117q-1 15 -1 29q0 63 17 87q13 -10 18 -20q6 6 12 18q-8 7 -17.5 17.5t-10.5 11.5q1 0 4.5 1t5.5 1q2 12 10 45q1 3 1.5 13.5t2.5 15.5q6 17 21.5 53t21.5 53q3 9 7.5 29.5t7.5 28.5q6 9 14.5 28 t9.5 21q6 16 16 47t18.5 54.5t18.5 45.5q5 12 21 34t22 34q61 111 158 139q39 13 127 62l14 16q14 26 36.5 41.5t57.5 30.5t50 24q2 19 -22 40.5t-54 27.5q-58 20 -102 30q-4 1 -15.5 5t-16 5.5t-15 4t-16.5 3.5t-15 2h-4q-7 0 -13 -2q-8 -1 -16 -3q-28 -10 -81 -27t-79 -26 q-148 -55 -219 -142q-7 -9 -68.5 -80t-84.5 -112q-105 -190 -123 -410z" />
<glyph unicode="H" horiz-adv-x="1085" d="M39 41q1 -17 7 -27q8 -12 26 -22q16 -10 33.5 -11.5t31 2t32.5 9.5t30 8q4 0 6.5 5.5t5 14.5t4.5 13q1 2 6 5.5t8 6.5t19.5 16.5t21.5 25t0 30.5q-11 28 -8 47q5 34 17.5 97.5t13.5 70.5l6 14l6 -6q6 -12 6 -29q4 0 4 2q8 57 17 90q3 13 16 51.5t14 63.5q2 25 10.5 52.5 t22 63.5t19.5 54q1 4 11 9t15 3q74 -15 156 -15q37 0 76 3l102 6q-6 -25 -20 -68t-19 -63q-4 -22 -0.5 -39.5t0 -38t-19.5 -36.5v-9q-3 -14 -8 -68.5t-19 -80.5q-3 -7 2 -37q9 14 10 16q-6 -30 -16 -93.5t-16 -96.5q-1 4 -9 12l-8 -2q17 -30 19 -39q0 -1 -6 -55q4 2 10 8 q7 -5 22.5 -14.5t22.5 -14.5q14 -8 26 -8q6 0 11 2q26 7 41 25q4 4 5 11t0.5 17t0.5 15q16 8 32 53q10 29 10 47q0 10 -3 17q0 -3 -6 -15q-2 9 -1.5 20t3.5 11q11 2 17 7.5t7 11t2 15t2 13.5q2 12 3.5 32.5t4.5 37t9 32.5q7 19 14.5 57.5t11.5 53.5q2 12 10.5 42.5 t10.5 47.5q18 85 18 88q4 28 8 84q1 5 1 11.5t-0.5 14t-0.5 11.5q10 -2 19 -2q0 2 5.5 24.5t6.5 34.5q1 16 13 40.5t14 31.5q22 61 33 152q11 112 11 214q0 23 -1 46v9q0 24 -1 37t-5 32.5t-15.5 33t-29.5 21.5q-11 5 -66 10q-33 9 -33 -27q-8 -128 -16 -188 q-9 -50 -29.5 -140.5t-25.5 -115.5q-3 -14 -9 -51t-12 -57q-4 -13 -7.5 -20.5t-14.5 -13.5t-27 -3q-27 4 -57.5 6.5t-71 4.5t-57.5 3q-18 1 -53.5 4t-53.5 4q0 13 2 17q62 274 66 413q0 4 2.5 14.5t1.5 16.5q0 4 -4.5 24t-3.5 31q0 54 -43 103q-19 11 -19 26q-2 35 -49 43 q-19 3 -36 3q-47 0 -77 -23q-42 -30 -188 -152q-10 -7 -21 -17t-18 -17t-19.5 -21.5t-17.5 -19.5q-9 -9 -4 -25q3 -8 23 -8q31 2 98 10q23 3 49 16q31 11 49 23v-27q-7 -41 -25.5 -157.5t-31.5 -180.5q-9 -46 -30.5 -132t-29.5 -126q-9 -39 -24.5 -117.5t-24.5 -115.5 q-59 -273 -59 -379zM813 209q5 24 11 72.5t7 52.5q13 0 17 -2q-16 -67 -27 -127q-2 0 -4.5 2t-3.5 2z" />
<glyph unicode="I" horiz-adv-x="430" d="M31 1405q49 -78 116 -78q3 -15 3 -20q-2 -21 -12 -108t-13 -136q-3 -30 -9 -114t-12 -130q-21 -215 -51 -430q-12 -75 -14 -125q-2 -27 -1.5 -54t1.5 -54q0 -7 -2 -32t-0.5 -40t8.5 -23q11 -12 20 -27.5t12.5 -24.5t11 -29.5t9.5 -26.5q8 -7 21 -12q8 -2 24.5 -4.5 t18.5 -2.5q44 50 88 91q17 21 18 26q12 55 22 111v20q-6 18 -7 25q11 46 12 51q1 12 2 38.5t2 39.5q5 113 10 147q4 30 16 96t15 103q5 29 7 83t3 66q9 88 23 111q24 46 24 80q-12 210 -26 315q-11 91 -57 125q-31 23 -85 24q-24 0 -51 -5q-23 -4 -46.5 -12.5t-52.5 -22 t-44 -19.5q-4 0 -4 -22z" />
<glyph unicode="J" horiz-adv-x="1024" d="M-12 98q-2 -14 -2 -28q0 -73 53 -131q71 -74 149 -74q10 0 19 -6q118 -37 268 -37q8 0 25 1t24 1q8 1 27.5 1.5t34 1.5t28.5 5q4 1 8.5 8t9.5 17t11 16q3 5 13.5 12t13.5 11q10 11 37 38t41 43q-8 4 -13 11q-3 -3 -9.5 -10t-12.5 -13t-11 -10q-10 17 -3 27t38 24 q26 63 33 72q10 15 35.5 35.5t30.5 25.5q13 90 20 125q1 3 6 8.5t6 8.5q21 26 19 32q-3 6 -3.5 11.5t-0.5 9.5t2 9t3.5 8t5.5 8t5.5 6.5l6 6l5.5 5.5q27 24 21 57q-2 18 3.5 40.5t12.5 23.5q19 4 22.5 14t-1.5 23q-1 7 -4 21t-3.5 20.5t1.5 17.5q14 37 18 80q4 39 4 85 q0 6 -1 12v15q0 42 3 66q1 24 4 102.5t6 120.5q3 50 3 95q0 117 -21 196q-18 61 -40.5 80t-86.5 22q-18 1 -38.5 1t-46.5 -0.5t-40 -0.5h-385h-94q-65 -4 -72 -47q-2 -6 -2 -13q0 -23 21 -52q27 -38 57 -41q126 -21 221 -21q62 0 111 9q22 3 47 4t55.5 1t46.5 1 q16 3 21.5 -3.5t3.5 -21.5q0 -6 -1 -18t-1 -19q-4 -27 -19 -108t-20 -127q-43 -419 -111 -727q-1 -4 -6.5 -27.5t-7 -29t-7 -26t-9 -28.5t-10 -25t-13.5 -26t-16 -22.5t-19.5 -23.5t-23.5 -20q-32 -23 -70 -36.5t-59 -2.5q-53 28 -93 106q-26 49 -26 92q0 24 8 46 q4 10 13.5 34.5t17.5 40.5t18 30q11 20 27 73q7 18 0 38t-27 26q-30 7 -59 7q-58 0 -109 -30q-50 -29 -65 -84q-6 -15 -16 -45.5t-13 -40.5q-3 -9 -17 -48t-20 -62q-5 -19 -9.5 -55.5t-6.5 -47.5z" />
<glyph unicode="K" horiz-adv-x="1024" d="M25 217v-25q0 -125 36 -200q11 -23 29.5 -34.5t47 -19.5t40.5 -14q4 0 12 4q55 31 60 76q7 33 12 33q9 3 12.5 7.5t3.5 13.5l1 10q3 18 10 54.5t10 55.5q3 15 12 50.5t11 54.5q8 71 16 209q6 -6 12 -13.5t8 -9.5q74 -92 226 -276q21 -26 44.5 -56.5t52 -68.5t44.5 -58 q15 -19 44 -52t40 -46q31 -39 49 -59l33 -46q1 1 3 3.5t3 3.5l-6 47q8 0 19.5 -1t15.5 -1q6 36 10 41q25 22 -4 47q15 13 22.5 21t13.5 22.5t3 29.5q-3 8 -14 26t-15 26q-2 2 -13.5 17.5t-15 21t-7 19t-1.5 26.5v39q-2 0 -6 1t-6 1q-2 -5 -7.5 -16.5t-8.5 -18.5 q-11 38 -11 39q-3 7 -6 22t-6 21l-70 100q-11 16 -41.5 62.5t-48.5 70.5q-9 12 -30 44t-37 54t-33 41q-15 18 -33 37t-41.5 42.5t-36.5 37.5q4 4 12 15t13 16q15 15 140 141t186 195q13 15 41 42.5t44 45.5t35.5 44t30 53.5t12.5 57.5l-57 60q-26 23 -63 24h-7q-33 0 -59 -8 q-56 -9 -115 -80q-63 -87 -82 -108l-260 -289q-4 -4 -28 -24q-2 33 -8.5 89t-8.5 78q-13 132 -22 185q-6 27 -23.5 74.5t-21.5 60.5q-26 79 -109 104q-16 5 -26 5q-7 0 -12 -2q-10 -6 -13 -37q-2 -13 -9.5 -60t-13.5 -72q-13 -55 -17 -121q-3 -44 -3 -82q0 -20 1 -38 q1 -21 1 -44q0 -35 -2 -75q-1 -59 -2 -179t-2 -179q-1 -41 -5 -129q-2 -90 -4 -154q-1 -39 -1 -76v-49z" />
<glyph unicode="L" horiz-adv-x="880" d="M14 72q0 -37 29.5 -70.5t65.5 -34.5q46 -5 85 -5q17 0 33 1q190 4 262 19q21 4 49 4.5t46 -1t53.5 -5.5t46.5 -5q28 -4 60.5 3t50 14.5t55.5 25.5q-14 15 -9.5 29t33.5 41q-17 1 -45 4t-38 4q-200 30 -234 37q-76 21 -154 21h-20q-24 -1 -50.5 -1t-61.5 0.5t-56 0.5 q0 8 -0.5 20.5t-0.5 20.5t1 14q2 6 13 64.5t22 88.5q22 59 29 154q42 314 47 354q3 25 8 80t8 82q2 37 2 113q0 12 -2 20q-7 28 -6 33q4 25 3.5 51t-3.5 53q-7 54 -35 101q-26 47 -74 59q-18 5 -33 5q-47 0 -49 -58q-2 -4 -2 -16q-11 -46 -39 -201q-22 -142 -28 -197 q-2 -14 -23 -169.5t-26 -235.5q-4 -77 -6.5 -162t-4 -194t-2.5 -162z" />
<glyph unicode="M" horiz-adv-x="1269" d="M27 213q0 -6 12 -66q3 -14 11 -37.5t12.5 -43t5.5 -37.5q3 -51 36 -77q22 -17 51 -17q14 0 29 4q46 10 78 65q37 77 41 117q1 23 16 62.5t17 47.5l18 123q4 22 13.5 70t13 69.5t7.5 70.5q1 18 1 32q0 25 -4 41q-6 47 -9.5 101t-5.5 123.5t-5 101.5q-1 19 -2.5 53.5 t-2.5 48.5q43 -45 66 -80t27 -76q12 -46 18 -61q49 -164 115 -377q9 -32 22 -51t39 -27q9 -3 25.5 -6t21.5 -4q1 3 4 18.5t7 22.5q4 11 19 37.5t19 42.5q6 19 14.5 58t14.5 59q25 85 53 157q8 26 40 124t48 151q21 64 70 84v-66q-3 -49 -8.5 -173t-11.5 -191 q-1 -28 -10.5 -86.5t-10.5 -88.5q-3 -62 -8 -376q-1 -8 -6.5 -23t-7.5 -22q-1 -4 -12 -28.5t-9 -45.5q6 -31 6 -56q0 -47 -20 -77q-1 -3 -1 -9.5t1 -9.5q13 -17 21 -25t23 -17.5t32 -12.5q44 -3 86 -12q7 -1 14 -1q32 0 45 17q5 6 13.5 11t17.5 8.5t12 5.5q-8 29 -10 41 q-1 1 -2.5 6t-3.5 6q-9 5 -9.5 11t4 14.5t5.5 11.5q4 -2 4 -17q5 17 14 44t12 34q1 0 3 -1t3 -1q-1 -18 -4 -52t-4 -52l21 30q3 3 24 -2q2 2 4.5 6t6 10t6.5 11q-21 -1 -26.5 7t1.5 22q1 4 2 12.5t2 11.5q0 2 12 31q1 0 2.5 -1t2.5 -1q3 29 8 84t8 80q4 0 8 -2q0 -15 4 -23 q3 18 3 37q0 15 -2 30q-4 36 -29 58q-10 13 -5 31q2 6 7 23t6 23.5t3 24t-3 25.5q-8 24 -8 39q-7 58 -15 107q0 12 6 24q7 14 7 16q-2 19 -17 123q-3 14 -10 44.5t-10 48.5q-1 14 -1 41.5t-1 42.5v8q-6 2 -10.5 6.5t-7 9t-3.5 11t-1 10.5t0.5 9.5t0.5 6.5q4 17 5.5 37 t1.5 30.5t-1.5 38.5t-1.5 33q-4 54 -7.5 83.5t-17 71.5t-36.5 75q-28 40 -56 58q-20 13 -46 13q-12 0 -25 -2q-7 -1 -21.5 -4t-21.5 -4q-33 -4 -70 -41q-24 -28 -42 -65.5t-26 -64t-20 -75.5t-18 -69q-46 -145 -88 -285l-2 -2q-15 20 -25.5 47.5t-14 45t-9 56t-7.5 50.5 q-3 0 -18 -5q-11 47 -17 66q-1 5 -4 18t-4.5 20t-5.5 17t-10 17q-8 10 -25 43q-29 72 -51 104q-10 16 -23 31.5t-29.5 34.5t-25.5 30q-47 52 -131 76q-16 7 -36 7q-6 0 -13 -1q-58 0 -101 -47t-48 -108q-22 -357 -23 -385q-8 -116 -12 -353q-4 -121 -4 -358zM334 1102 q20 -23 20.5 -34t-16.5 -26q-1 9 -2 29.5t-2 30.5zM342 872v62q4 2 10 2q0 -12 1 -33t1 -31h-12zM1124 61q0 212 43 383h11q0 -18 -2 -24q-1 -1 -2.5 -4t-2.5 -4.5t-2 -4t-1.5 -4t-1.5 -4t-0.5 -4t0.5 -4t1 -4.5t3 -4l4 -4t0 -4q-17 -59 -23 -84q0 -1 -1.5 -4t-2 -4.5 t1.5 -3.5q5 -11 3 -51.5t-1 -49.5q1 -20 -6.5 -51t-7.5 -47q0 -3 -2.5 -6t-6 -7t-4.5 -6zM1165 25v9q0 27 5 55q6 33 16 73.5t14 64.5q5 -2 12.5 -6.5t10.5 -5.5q-17 -60 -47 -190h-11z" />
<glyph unicode="N" horiz-adv-x="1024" d="M53 25q12 -87 92 -113q16 -4 31 -4q53 0 94 51q22 24 52 90q3 7 20.5 55t28.5 72q7 22 25.5 72.5t27.5 77.5q19 43 25 63q0 1 -9 23q-14 22 0 49q2 5 2 17q0 20 -6 59q-3 14 -7 29.5t-9 33.5t-8 29q2 2 10 2q69 -141 82 -168q109 -239 268 -436q28 -37 63 -43q6 -1 11 -1 q28 0 49 25q13 17 10 27q-8 19 -10 42.5t-0.5 37.5t7.5 44.5t7 37.5q14 69 21 186q2 33 2 84t-2 119q0 26 -2 79t-2 80q-1 28 -6.5 147t-6.5 185q-1 19 -1 39q0 66 8 141q4 41 17 115.5t15 89.5l6 60q0 4 0.5 31.5t4.5 41.5q5 16 18.5 47.5t17.5 40.5q-31 -24 -41 -34 q-108 -97 -135 -230q-8 -31 -17 -90.5t-11 -71.5q-35 -155 -35 -295v-22q1 0 1 -86v-107q-1 -193 -1 -194t-4 -29l-51 127q-2 -3 -4.5 -5.5t-5 -4t-3.5 -2.5q-19 61 -28 80q-10 19 -32 53.5t-30 48.5q-17 30 -48.5 92.5t-49.5 92.5q-33 66 -111 192q-31 51 -48 76.5 t-51.5 61t-72.5 55.5q-10 5 -10 8q-6 30 -23.5 35t-44.5 -9q-30 -13 -32 -32q-2 -17 -10.5 -74t-10.5 -90q-4 -93 -8 -279q-1 -26 -4 -73.5t-5 -86t-3 -73.5q-1 -34 -2 -100.5t-3.5 -120.5t-7.5 -103q-13 -117 -13 -216q0 -82 9 -152z" />
<glyph unicode="O" horiz-adv-x="1269" d="M51 547q22 -152 35 -195q46 -145 160 -256q167 -159 383 -159h8h15q218 0 370 165q154 157 190 332q25 106 25 156q0 25 5.5 66.5t7.5 64.5v8q0 22 -7 57q-6 29 -6 84q-5 41 0 52q9 18 7 32t-19 25q-6 3 -10 15t-1 18q14 25 -8 45q-4 4 -5 11.5t-1.5 18.5t-1.5 15 t-4.5 14.5t-5.5 13.5q-38 74 -58 99q-37 67 -65 86q-24 17 -74 43.5t-71 40.5q-21 15 -75.5 23.5t-76.5 31.5q-4 2 -12 2t-21 -2q-52 0 -65 -4q-6 -1 -33 -4.5t-37.5 -5.5t-31 -6t-35.5 -9.5t-29 -13.5q-108 -53 -232 -184q-128 -137 -190 -332q-39 -126 -39 -244 q0 -53 8 -104zM440 479q0 114 9 228q9 156 114 297q30 41 91 110.5t81 93.5q4 3 14.5 10t14.5 9q15 11 23 18.5t14.5 20.5t5.5 30v6q0 24 14 23q9 0 25 -10q105 -60 160 -176q52 -117 69 -224q2 -17 4 -34.5t2.5 -39t0.5 -33.5q0 -4 1 -10q0 -12 -1 -30q-1 -27 -1.5 -34 t-2 -39.5t-1.5 -35.5q-9 -103 -43 -274q-17 -70 -57 -145q-27 -47 -84 -56q-14 -1 -137 -18q-6 0 -29.5 1.5t-29 2t-25 2.5t-26 3.5t-22 4t-23 6t-19.5 8.5t-21 11t-18 14l-29 35q-7 8 -19 25.5t-16 23.5q-19 24 -28 58t-10 53.5t-1 64.5z" />
<glyph unicode="P" horiz-adv-x="1024" d="M20 940q17 -271 19 -377q1 -20 1 -43t-0.5 -51.5t-0.5 -44.5q-2 -96 -2 -287q0 -204 9 -260t52 -74q10 -5 23 -6h4q10 0 16 4q16 9 47 49q40 -21 74 -36q10 -4 21 0q18 10 49 32q3 4 47 70q-12 12 -12 55t7 88t13.5 88.5t5.5 53.5l-22 -11q28 59 30 62q-16 5 -16 20 q0 1 1 16.5t1.5 18t1.5 16.5t1.5 18t2.5 16t3.5 17.5t4 15.5t5 17t6.5 15l8 16q10 15 10 41q2 19 6.5 78t9.5 90q2 6 11 13.5t16 7.5q25 4 69 8t62 6q33 5 37 12q3 7 7.5 11t11 6.5t9.5 3t12.5 1.5t10.5 1q8 1 37 -1t33 3q20 9 86 53q1 1 8 14q4 4 10.5 16.5t10.5 16.5 q3 3 13 11t13.5 11t12 11t12.5 12.5t11 12t10 13.5t7.5 14t7 16.5t3.5 17.5q1 10 6.5 51.5t6.5 58.5q1 18 2 50v11q0 27 -4 47q-4 26 -13 50q-4 10 -10 20.5t-14.5 22.5t-12.5 19l-17 39l2 2q-36 42 -63 65q-6 5 -17 15.5t-18 17t-18 14t-21 11.5q-91 41 -155 55 q-67 20 -122 29q-33 5 -69 5q-24 0 -50 -2q-64 -6 -122 -32q-37 -16 -106.5 -50t-77.5 -38q-45 -18 -45 -62q0 -8 2 -18q2 -8 2 -25q-16 -135 -16 -251q0 -54 3 -103zM309 1341q40 18 92 18q50 0 111 -16q21 -5 41 -11t46 -16.5t38.5 -15.5t45.5 -20t40 -18 q108 -48 108 -168v-13q-3 -60 -16 -135q-1 -6 -6 -12.5t-8.5 -10.5t-12 -12t-10.5 -10q-46 -46 -61 -55q-78 -42 -201 -42q-18 0 -37 1h-30q-39 0 -48 8t-14 47q-10 103 -31 234q-1 8 -7 23t-7 22q-6 28 -10 78q-3 22 -11.5 64.5t-11.5 59.5z" />
<glyph unicode="Q" horiz-adv-x="1290" d="M43 670q2 -67 2 -94v-13q-2 -23 -2 -45q0 -136 63 -266q130 -247 375 -291q89 -19 180 -19q69 0 138 11q90 20 155 54.5t109 101.5q11 13 17 12t16 -12q1 -2 6 -12.5t6 -16.5q36 -65 77 -105t101 -51q21 -2 56.5 -11t37.5 -9q8 -3 17 -3q30 0 67 33q-39 6 -55 13v4 q47 5 61 10q-6 15 -30 23q-45 24 -69.5 38.5t-55.5 41.5t-51 59q-14 24 -47 71.5t-48 71.5q-4 10 -4 29q2 14 10.5 40t10.5 36q5 23 18.5 70.5t18.5 72.5q26 110 26 150v6q0 39 -22 141q-8 80 -19 115q-55 177 -172 340q-101 133 -215 202q-26 19 -55 13q-5 -4 -13.5 0.5 t-20 12t-19.5 9.5l-5 -1q-6 -1 -12 -1q46 -22 58 -31q-34 -8 -43 -4q-18 3 -34 3q-38 0 -67 -17q-2 -8 -16 -8h-8q-134 0 -221 -101q-22 -24 -74.5 -85t-81.5 -93q-143 -162 -162 -387q-5 -13 -5 -60q0 -21 1 -48zM412 643q6 44 12 72t20 66.5t35 70.5q19 28 42 92t32 82 l70 143q35 72 55 99q8 13 13.5 20t14.5 14q9 6 19 6h3q11 -1 26 -10q2 -2 5 -2t5 2l4 2q15 -12 66 -63q12 -16 53.5 -70t62.5 -86q21 -43 35 -112q56 -188 80 -273q1 -5 1 -15q0 -19 -3 -58q-2 -17 -10 -90.5t-13 -112.5q0 -7 -4 -35q-87 38 -179 38q-74 0 -150 -24l16 -18 q-24 -8 -29 -16q-11 -9 -10 -20.5t14 -18.5q24 -7 50 -7q24 -8 71 -12q13 -1 39 -6.5t37 -7.5q8 -1 27 -7.5t34 -9.5q-15 -13 -37.5 -37t-36.5 -37.5t-38 -23.5q-22 -10 -46 -10h-5q-19 1 -78 4.5t-92 3.5q-28 0 -45.5 10.5t-36.5 34.5q-132 190 -132 368q0 27 3 54z" />
<glyph unicode="R" horiz-adv-x="860" d="M6 1266q5 -260 8 -312q4 -114 27 -483q1 -11 13 -180.5t20 -220.5q2 -18 6.5 -39.5t8.5 -35.5t11.5 -40t10.5 -37q10 -35 28 -41q1 0 15 -4.5t16 -5t15 -4.5t17 -4q2 0 14 -2q8 -1 13 -1h4q5 1 15 1.5t16.5 3t15 6t15.5 8.5q104 69 104 182v6l-2 230q0 42 -14 205 q56 -64 70 -95q14 -29 43.5 -114.5t60.5 -156t64 -97.5q7 -5 31 -23t36 -28q102 -94 260 -117q4 25 20.5 28t32.5 -4t29 3q-68 32 -93 63q-20 25 -20 59q0 8 1 17q-58 64 -110.5 169t-111.5 256t-75 187q40 32 59 51q4 3 14 11.5t15 13.5t11.5 12.5t10.5 14.5q7 16 24 50 t27 61t13 54q2 24 11 68t11 59q5 36 4 43q-7 87 -35 144q-15 35 -35.5 104.5t-23.5 79.5q-4 14 -18 25q-39 28 -68 39q-12 6 -43 23.5t-54 27t-46 12.5q-15 3 -49 3q-27 0 -66 -2q-70 -3 -103 -3h-14h-2q-50 0 -110 -40q-62 -40 -105 -104.5t-43 -125.5zM266 1149 q-3 18 -3 36q0 68 46 126q13 13 60 18q46 5 85 5q17 0 33 -1q32 0 48 -16q86 -94 118 -141q25 -38 25 -89q0 -35 -12 -77q-2 -10 -7.5 -27.5t-7.5 -24.5q-34 -132 -153 -200q-18 -10 -42.5 -17t-58 -13.5t-53.5 -12.5q-5 33 -18.5 99t-18.5 101q-35 195 -41 234z" />
<glyph unicode="S" horiz-adv-x="921" d="M12 340q-1 -3 -1 -8q0 -10 3 -27h6v49q7 0 11 2q-6 -23 -6 -49q0 -70 43 -157q23 -47 56.5 -82.5t78.5 -59.5t85.5 -38.5t96.5 -28.5q33 -10 80 -10q25 0 55 3q252 30 354 218q45 79 45 161q0 68 -30 138q-37 88 -80 159q-4 12 -19 23.5t-26 11.5q-12 -1 -21.5 3t-12 6.5 l-13.5 13.5q-5 5 -20.5 23.5t-27 29.5t-24.5 20q-44 30 -128 84.5t-118 77.5q-14 8 -22 37q-12 35 -12 72q0 77 51 164q30 47 63 63q15 6 32 6q31 -1 69 -21q59 -32 73 -79q1 -3 3 -15.5t3.5 -18.5t5 -13.5t9.5 -10.5q16 -13 24.5 -30t15.5 -38t13 -32q17 -36 37 -74 q5 5 8 5q0 2 6 15.5t8 24.5l9 -22q9 9 16 20t11 19t7.5 22.5t5 21t4 23.5t3.5 23q4 27 4 52q0 120 -86 206q-18 18 -50.5 62.5t-35.5 48.5q-4 8 -15 8q-9 -8 -21 -6t-17.5 5.5t-16 10.5t-16.5 10q-84 39 -159 39q-38 0 -75 -10q-18 -7 -49.5 -20.5t-44.5 -18.5 q-4 -2 -19.5 -10.5t-21 -11.5t-19 -10.5t-20 -12.5t-16.5 -13t-17.5 -16.5t-13.5 -17.5q-78 -129 -78 -244v-8q3 -128 82 -240q100 -134 295 -206q24 -14 29 -21q45 -48 86 -98q10 -10 10 -39q-6 -141 -6 -146v-9q0 -65 -39 -103q-69 -66 -197 -84q-15 -3 -55 10 q-44 22 -69 74q-23 49 -24 98q0 4 1 8q2 54 29 82q18 18 31.5 41.5t20 41.5t15.5 49t15 46q-1 0 -35 -6q-11 -4 -29.5 -13t-34 -15t-30.5 -9q-29 -6 -72 -39q-25 -22 -39.5 -55.5t-18 -56.5t-7.5 -67q-1 -7 -1 -11z" />
<glyph unicode="T" horiz-adv-x="1024" d="M-152 1321q98 71 310.5 119.5t347.5 48.5q33 0 105.5 -1.5t115 -1.5t99.5 4.5t100 14.5q14 5 38 5q16 0 36 -2q33 -4 54 -4q11 0 19 1q14 1 38 -6.5t26 -7.5q2 -6 2 -10q-5 -4 -20.5 -14t-24.5 -17q0 -11 4 -12h18h96q-9 -1 -26 -6.5t-25 -6.5v-6q1 0 76 6v-6 q-5 -2 -19.5 -10t-23.5 -12h37q4 0 4 -4q-1 0 -53 -15q0 -4 2 -6l69 8l4 -6q-11 -3 -30 -12t-27 -12q-122 -35 -282 -35q-26 0 -74 -3t-72 -3q-77 0 -117 -13q-33 -11 -39 -8q1 -20 4.5 -70.5t4.5 -60.5l49 -514q4 -33 18 -142t25.5 -200t15.5 -143q1 -12 1 -24 q0 -92 -77 -169q-21 -21 -60 -21q-9 0 -19 1q-32 0 -46 6q-8 3 -16.5 12.5t-9.5 18.5q-3 17 -20.5 96.5t-25.5 122.5t-23 131.5t-27 183.5q-4 34 -6 68t-2 77.5t0.5 65.5t3 78.5t2.5 68.5q0 134 8 388q0 2 -2 8t-2 10h-27q-34 0 -227.5 -20.5t-227.5 -20.5q-5 0 -15.5 -1 t-16.5 -1q-12 -5 -22.5 4t-4.5 21q12 28 -18 45z" />
<glyph unicode="U" horiz-adv-x="1085" d="M31 379q0 -110 27 -193.5t100 -144.5q56 -40 78 -55q126 -80 231 -80q33 0 65 8q60 15 207 82q35 14 54 39q33 50 69 131q14 27 76 164q18 40 20 71q9 72 15 140q1 12 5 41t5 41t0 41q-1 24 -1.5 44.5t7 42.5t23.5 40q-19 -3 -25.5 3t-3.5 25q2 15 3 45t3 45q0 2 1 13.5 t1.5 15t2.5 13t3.5 13.5l4.5 12t7 12t10 9t13 9q-7 4 -18 10t-15 8q10 19 10.5 49t-2 54t8.5 49.5t39 40.5q-19 25 -21 49v12q0 35 6 141l-63 25q-40 14 -45 -23q-47 -213 -55 -272q-10 -61 -39 -348q-2 -20 -8.5 -59t-8.5 -58q-16 -225 -86 -401q-5 -12 -20 -50.5 t-26.5 -63.5t-24.5 -48q-30 -51 -68 -51q-25 0 -53 22q-68 52 -80 98q-34 123 -43 261q-4 81 -8 229.5t-6 206.5q-1 38 -8.5 112t-8.5 111v18q1 34 3 88q4 68 3 97q0 135 -110 252q-13 13 -50 13q-11 0 -24 -1q-7 0 -17 -11t-12 -20q-7 -49 -19.5 -150t-19.5 -153 q-7 -41 -40 -239.5t-48 -303.5q-21 -136 -24 -321z" />
<glyph unicode="V" horiz-adv-x="1024" d="M18 1348q4 -53 33 -168q21 -87 65 -260.5t66 -260.5q19 -72 54 -218t53 -218q20 -76 59.5 -146t100.5 -155q5 12 24.5 14.5t28.5 10.5q12 12 6.5 32t7.5 23q4 -4 11.5 -13.5t11.5 -13.5q1 15 -3 42t-4 38q0 6 15 56q2 5 8 15t8 15q2 6 3.5 22t4.5 23q30 71 89.5 202 t70.5 155q9 27 12 51q1 4 3 36.5t8 47.5q16 46 35.5 97.5t43.5 114t37 97.5q13 33 51.5 136t61.5 157q18 44 27 72q10 26 16 66q4 22 4 44q0 17 -2 33l-4 8q-1 -2 -5.5 -9.5t-8.5 -12.5q-13 19 -39 49h-10q-10 -79 -15 -100q-7 -22 -24 -57.5t-21 -43.5q-2 0 -5.5 1t-4.5 1 l-6 33q-4 2 -11 2q-9 -22 -45 -100q-10 -2 -12 -6q-4 -9 -13 -26t-15 -31t-9 -27q-4 -14 -26 -64q-20 -45 -19 -74v-8t-4 -12q-53 -100 -67 -137q-13 -31 -33.5 -90.5t-30.5 -85.5q-14 -36 -43 -105t-33 -80q-1 2 -8.5 10t-9.5 13q-16 52 -45.5 147t-36.5 119 q-10 36 -29.5 107.5t-29.5 107.5q-5 14 -16 52t-20.5 64.5t-21.5 49.5q-53 90 -108 153.5t-129 102.5q-6 3 -18.5 1t-14.5 -5q-2 -9 -9 -30q-6 -22 -9 -36q-2 -9 -2 -17q0 -5 1 -11z" />
<glyph unicode="W" horiz-adv-x="1638" d="M-23 1335q-1 6 -1 12q0 7 2 15q2 14 9 34.5t9 28.5q2 3 14 5q6 1 11 2q5 0 8 -2q75 -38 130 -99.5t107 -148.5q12 -22 21.5 -47.5t20.5 -62t16 -50.5q10 -35 29.5 -104.5t29.5 -104.5q13 -43 40.5 -129t41.5 -129q2 -5 9.5 -13t8.5 -10q69 161 76 179q11 25 31 83.5 t33 88.5q10 27 67 133l4 10q26 64 45 141q3 13 9 26.5t15 30t13 25.5l12 6q1 8 11 37l4 15q0 1 1 3t1 3q2 3 13.5 5t17.5 -1q119 -61 211 -223q12 -19 20.5 -41t19 -57.5t13.5 -45.5q10 -35 28.5 -100t24.5 -88l74 -232q2 -3 7.5 -9.5t8.5 -10.5q69 157 70 160 q52 148 55 155q9 24 34 69t28 50q1 1 2 3l1.5 3t0.5 2q-1 5 -1 10q1 28 19 66q22 46 23 53q3 14 32 74l11 4q11 66 41 137l8 -2q1 -4 3 -13t3 -13q1 -1 3 -1.5t3 -1t2 -1.5q22 46 35 43q4 -1 6 -7q8 -19 10 -1q1 4 2 15q1 16 2 23h9q7 -7 34 -43l15 19q4 -4 4 -6 q2 -16 2 -28q0 -13 -2 -21q-4 -18 -19 -42.5t-22 -41.5q-21 -49 -101 -256q-61 -149 -106 -271q-5 -13 -7 -39.5t-3 -32.5q-4 -31 -10 -45q-12 -28 -146 -311q-2 -6 -3 -19.5t-3 -19.5q-2 -5 -7 -14t-7 -14q-14 -38 -13 -48q0 -9 2.5 -32t1.5 -37l-18 24q-13 -6 -9 -22 t-5 -27q-7 -7 -24.5 -9t-22.5 -13q-115 158 -144 264q-20 71 -52.5 204t-43.5 175l-98 373q-1 -3 -4.5 -9.5t-4.5 -9.5q-105 -269 -116 -299q-4 -11 -6 -25t-3 -31t-2 -26q-3 -26 -12 -49q-7 -15 -68.5 -146t-91.5 -200q-3 -7 -4.5 -22t-3.5 -21q-2 -5 -8 -15.5t-8 -15.5 q-14 -42 -14 -53q0 -10 3.5 -36.5t2.5 -41.5q-4 4 -11.5 13.5t-11.5 13.5q-12 -6 -7.5 -24t-6.5 -30q-9 -8 -28.5 -10t-24.5 -14q-62 84 -101 151.5t-59 141.5q-19 73 -54.5 214.5t-52.5 207.5q-21 84 -65 251.5t-66 251.5q-29 110 -33 164zM866 1284l4 -4v2q0 2 -4 2z" />
<glyph unicode="X" horiz-adv-x="962" d="M-16 6q-1 -4 -1 -8q0 -9 7 -16q17 -18 51 -23q11 -2 20 -2q21 0 37 8q97 43 189 146q56 72 80 114q13 21 32.5 62t26.5 53q8 17 30.5 49t30.5 51q1 3 3.5 10t3.5 9t4.5 7.5t6 5t8 2.5t11.5 -1q1 8 4 22.5t4 22.5q18 -31 78 -140t88.5 -157t82.5 -126t108 -136q0 9 -4 21 q23 -20 33 -22h3q12 0 44 11l-7 66q1 0 13 4q10 -21 33 -51q0 20 -9 35q-7 15 -27.5 48t-31.5 58.5t-14 52.5q0 4 -23 15q-7 17 -21 54.5t-22 55.5q-4 9 -19 30t-20 34q-94 180 -141 272q-2 3 -8 13t-8 14t-6 13t-4.5 14t-1 13.5t2.5 15.5t8 15q-4 32 -4 47q0 14 15 33 q8 -19 6.5 -28t-9 -24.5t-8.5 -25.5q5 -10 5 -14h10q5 20 22 78q1 3 1.5 11t1.5 12.5t3 5.5q19 7 27.5 19.5t12.5 36.5t6 30q3 10 7 30l5 25h10q-1 -7 2 -33q8 34 25 119q7 -5 24 -14q3 13 13 34q12 0 18 -2q-7 15 -8 28.5t3 26t9 23t12 24t11 23.5l20 -45q21 109 27 131 q8 0 12 2q8 -23 10 -39q22 26 26 41.5t-5 38.5q-10 -12 -27 -41q-2 4 -4.5 12t-3.5 9q-8 15 -23 77.5t-43 88.5q-2 2 -2 8q-2 7 -18 39q-15 -11 -44.5 -29t-43.5 -29q-34 -20 -53 -45q-53 -89 -218 -376q-7 -10 -18.5 -31t-17.5 -31q-26 46 -136 232q-33 62 -127 223 q-19 34 -70 58q-39 18 -72 18q-10 0 -19 -2q6 -53 8 -60q1 -8 11 -44t9 -56q0 -54 21 -101t59 -102q28 -42 61.5 -86.5t76.5 -99.5t65 -84q27 -34 27 -64q0 -24 -19 -45q-5 -5 -9.5 -12t-9.5 -17l-7 -14q-72 -113 -106 -168t-85 -153t-82 -183q-15 -42 -36.5 -119.5 t-28.5 -101.5zM911 106q1 1 5 4t6 5l36 -60q-3 -1 -6.5 -3.5t-5.5 -2.5q-6 9 -17.5 28.5t-17.5 28.5z" />
<glyph unicode="Y" horiz-adv-x="1126" d="M-92 1372q3 -6 5 -8.5t9 -9.5q3 -2 20.5 -15.5t24.5 -21.5q17 -24 55 -77.5t60 -84t54.5 -74t60.5 -77.5q6 -7 42 -51t46.5 -56l42 -48t49.5 -52t47 -42t56 -44.5t57 -34.5q27 -18 14 -49q-21 -45 -42.5 -95t-48.5 -116.5t-40 -96.5q-8 -20 -47.5 -115t-59.5 -147 q-5 -10 -10 -59q48 6 49 6q55 0 92.5 29t69.5 82q33 60 100.5 176t100.5 176q38 64 54.5 93.5t42.5 83.5t40 101q62 180 92 250q22 49 70.5 140t54.5 102q50 90 59 190v7q0 16 -3 42q-4 31 -5 42q-2 -2 -10 -2q-2 -7 -9 -20.5t-9 -18.5q-6 2 -13 2l-8 57q-5 -1 -13.5 -4 t-13.5 -4q-4 -2 -15 -4t-13 -4q-55 -83 -84 -138q-64 -119 -164 -319q-9 -16 -27 -49.5t-28 -50.5l-25 16q-31 26 -102 90.5t-126 107.5t-112 74q-82 49 -215 121q-5 3 -12 9.5t-12 9.5q-36 18 -52 24q-10 3 -20 4.5t-21.5 0.5t-18.5 -2t-20 -5.5t-18 -6t-20.5 -8 t-18.5 -7.5q-9 -4 -12 -9q-2 -2 -2 -4.5t2 -5.5z" />
<glyph unicode="Z" horiz-adv-x="1433" d="M-23 -29q11 0 24.5 -1t22 -1t15.5 2q40 10 84 35q35 18 73 18q17 0 35 -4q57 -11 220 -24q40 -2 143.5 -3t157.5 -7q96 -9 201 -9q127 0 268 13q175 9 260 145q-5 0 -21 8q7 4 20.5 11t18.5 10q-5 4 -14 9t-14 8t-5 5q3 9 7.5 19t12 23t11.5 22q-75 14 -106 22 q-11 2 -43 6.5t-53.5 9t-41.5 11.5q-101 31 -164 31h-14q-225 -14 -575 -43q-4 0 -17.5 1t-23.5 1q13 21 22 30q54 66 155 186t132 157q35 40 117.5 142t128.5 154q27 32 62 64t78.5 69t66.5 58q33 33 69 96q6 8 10.5 17.5t8.5 22t6 18.5q-3 4 -11.5 10t-14.5 10.5t-5 7.5 q3 18 3 33q0 24 -7 41q-7 22 -12.5 32.5t-17 19.5t-29.5 9q-69 1 -135 1q-309 0 -541 -27q-92 -12 -230 -23q-15 -1 -63 -12q-9 -2 -23.5 -6.5t-26.5 -7t-24 -2.5q-72 0 -123 -72q-20 -39 -16 -49.5t43 -34.5q3 -3 49 -23q109 -33 154 -41q16 -4 48.5 -13.5t59 -15.5 t51.5 -7q39 -3 84.5 -3t101 1.5t85.5 1.5h82q-23 -33 -47 -62t-64.5 -74.5t-48.5 -54.5q-147 -166 -285 -336q-189 -225 -254 -307q-7 -7 -18.5 -20.5t-20.5 -23t-18 -13.5q-36 -18 -54 -62q-10 -24 -10 -46q0 -18 7 -36q0 -1 4 -11.5t4.5 -12t3.5 -11t3 -12.5t1.5 -11.5 t0 -13t-2.5 -12.5t-4 -14t-7 -13.5t-10 -15.5z" />
<glyph unicode="[" horiz-adv-x="573" d="M0 -109q1 -35 6 -104t6 -104q5 -29 39 -35q121 -4 182 -10q46 -2 131 -9.5t113 -9.5q13 0 30 5t17 11q5 15 -1 30t-25 18q-1 1 -1.5 3t-1 3t-1.5 2q5 3 16.5 7.5t19.5 8.5q-41 18 -45 19q-133 16 -194 20q-53 3 -63 12.5t-13 61.5q-2 40 -2 243q3 77 5 165.5t4 193.5 t3 164q3 48 10.5 140.5t10.5 137.5q10 178 26 310q1 21 10.5 79.5t8.5 89.5q-3 30 6.5 38t36.5 8q96 0 170 10q11 2 32.5 16.5t30.5 18.5q-8 9 -35 36q9 4 26 10.5t26 10.5q-60 75 -121 68q-150 -4 -240 -15q-54 -6 -110 -33q-12 -6 -21.5 -23t-11.5 -32q-9 -65 -23 -183.5 t-18 -152.5q-28 -255 -29 -274q-1 -22 0 -66t0 -65q-4 -43 -4 -119t-2 -104q0 -47 -2 -141t-2 -140v-320z" />
<glyph unicode="\" horiz-adv-x="778" d="M23 1452q45 30 90 -8q15 -11 38 -33t29 -27q40 -35 86 -114q40 -69 119 -207l10 -10q1 -2 6 -7t7 -8q13 -42 47 -84q3 -4 5 -8t4.5 -10t4.5 -10q7 -22 16 -31q1 -2 2.5 -7t2.5 -8t3 -7t5 -6.5t8 -4.5q10 -3 10 -16l6 -41q0 -4 2.5 -15.5t1.5 -15.5q-3 -11 1.5 -34.5 t-1.5 -34.5l11 -9q14 5 14 11q0 2 -0.5 10t0 11.5t2.5 9.5t6 10q7 -2 10.5 -7.5t-0.5 -13.5q-6 -28 9 -51q2 -2 1.5 -9t0.5 -12q1 -6 4.5 -20.5t5.5 -24.5q7 14 10 17l6 -2q11 -111 12 -119q5 -5 33 -19q-4 -4 -10.5 -11.5t-11.5 -12.5q16 0 24 -2q5 -24 14 -73.5t13 -70.5 v2q0 -9 6 -69q0 1 5 4t9 6q1 0 2.5 -1t2.5 -1q-5 -27 -19 -68q-3 -50 8 -73q0 4 -1 12.5t-0.5 13.5t3.5 9q6 19 -10 38q10 -4 14 -2.5t12 8.5t13 9v-17q0 -18 6 -30q19 -13 21.5 -35.5t-4.5 -42.5q-5 5 -11 10t-13 10.5t-11 8.5q4 18 -4 22l-4 -4q3 -3 8 -18q5 -8 13.5 -28 t14.5 -30l-22 4q2 -11 5 -32t5 -31q-19 -4 -29 -10q-49 34 -79 84q-94 171 -134 256q-27 47 -75.5 142t-53.5 105q-35 72 -96 236q-14 47 -72 188q-6 15 -22 58t-25 65q-11 28 -33 79t-30 71l-49 143q-8 21 -8 43zM573 580h7q0 6 -1 16t-1 16h-5v-32zM645 236 q-14 -35 10 -66q13 57 13 61q1 2 -9 17q-1 -1 -6.5 -5t-7.5 -7zM668 311q2 -2 2 -4q1 1 3.5 2.5t4.5 3.5q-6 0 -10 -2z" />
<glyph unicode="]" horiz-adv-x="573" d="M0 -311q19 -19 52 -30t75.5 -14.5t76 -3.5t75 1.5t49.5 1.5q10 0 49.5 -0.5t55 0t43.5 4.5t50 12q53 18 47 94q-1 15 -7.5 61t-6.5 72q-1 58 -2 176t-2 177q-2 62 8.5 221t1.5 248q-4 68 -5.5 153.5t-0.5 153.5t0 153q-3 66 -12 127q-8 79 -25 174q-5 41 -14 50 q-56 37 -82 39q-24 3 -52 3t-62.5 -1.5t-53.5 -1.5q-11 0 -33 -4t-32 -5q-77 -7 -114 -31t-59 -69q-17 -34 5 -53q15 -10 19 -12.5t18.5 -11t24.5 -10.5l27.5 -5.5t37.5 -3t45 3.5q18 2 51.5 7t50.5 7q18 3 24 -5t5 -32q-4 -46 -4 -71q4 -228 2 -338q0 -9 -0.5 -44.5t0 -49 t2 -40.5t5.5 -47t11 -40q15 -61 -2 -119q-5 -15 0 -72q1 -9 4.5 -38.5t3.5 -47.5q1 -23 -1 -68t-1 -67t8.5 -67t8.5 -68q2 -34 2 -105.5t4 -126.5t16 -106v-4q3 -27 -4.5 -38t-26.5 -9q-47 5 -59 2q-3 0 -31 -1t-48.5 -2t-53 -4t-55.5 -7t-44 -11.5t-30 -17.5 q-5 -7 -18 -20.5t-17 -18.5z" />
<glyph unicode="^" d="M31 727q3 -3 9 -11t9.5 -12t7.5 -6q41 -7 73 5t60 57q18 29 36 66t39.5 86.5t33.5 74.5q6 11 45 64.5t43 48.5q46 -59 82 -112.5t50 -77t38.5 -71.5t28.5 -55q52 -99 141 -106q35 0 53 4q1 0 17 8q-11 29 -17 37q-12 20 -16 57q0 26 -14 54q-10 17 -22 38.5t-26 47 t-22 39.5q-26 41 -29 45q-57 72 -76 206q-7 44 -40 154q-2 7 -11 16q-26 32 -43 48t-37.5 25.5t-39 1t-41.5 -32t-52 -66.5q-92 -141 -166 -311q-10 -25 -29.5 -74t-29.5 -74q-42 -96 -55 -174z" />
<glyph unicode="_" horiz-adv-x="1024" d="M33 -176q3 -2 9.5 -8.5t12.5 -11t13 -7.5q47 -19 94 -28q51 -13 127 -13q32 1 68 1t80 -0.5t69 -0.5q20 0 56 1t54 1q22 1 89.5 1.5t103.5 2.5q77 3 137 11q10 1 55 10q-17 9 -47 16q38 49 52 68q-22 7 -82 16q-82 4 -131 4h-142q-131 5 -321 -6l-180 -18 q-71 -3 -117 -39z" />
<glyph unicode="`" horiz-adv-x="471" d="M23 1526q4 -29 14 -47q11 -19 18 -36t10 -24.5t12.5 -19t28.5 -27.5q15 -13 42 -39.5t36 -34.5q59 -59 142 -106q37 -19 77 2q7 5 37 14v15q-2 5 -9.5 24t-10.5 25.5t-10 22.5t-12.5 24t-14 20t-18.5 20.5t-21 16.5q-14 14 -16 17q-34 32 -123 116q-35 30 -80 33 q-1 0 -82 6q-10 1 -16 -5t-4 -17z" />
<glyph unicode="a" horiz-adv-x="1085" d="M27 412q-5 -33 -5 -62q0 -82 35 -141q44 -70 47 -74q77 -135 246 -155q6 -1 32 -3.5t35 -3t30.5 -1.5t34.5 -1t31 1.5t34 4.5q5 1 25.5 5t28 5.5t24.5 5.5t26.5 8.5t23.5 10.5t25 14.5t21 18.5q53 -61 139 -74q13 -3 27 -3q31 0 68 14q53 20 75 53q7 11 21.5 31.5 t19.5 29.5q9 14 19 45q0 6 -3 15t-6 10t-20.5 9.5t-23.5 10t-20.5 5t-26.5 1.5t-25 -8q-18 -8 -86 -22q-28 -6 -37 22q-2 9 -14 40.5t-13 49.5q0 183 16 271q1 7 4 23t3 24q0 147 -2 219q0 12 -2.5 24t-8.5 30.5t-8 25.5q-3 14 -15 22.5t-28 8.5q-34 3 -59 34q-9 17 -19 25 q-22 24 -71.5 43.5t-61.5 19.5q-87 -3 -147 -45q-6 -4 -49 -36q-84 -67 -88 -70q-102 -95 -146 -176q-60 -98 -76 -145q-6 -18 -10 -35t-20 -125zM434 195q-8 22 -8 48.5t8 55.5q9 30 29 84t26 72q16 33 19 59q3 37 33 76l37 51q14 27 55 53l-25 -172q0 -2 -2 -6.5t-2 -7.5 q0 -90 -78 -197q-12 -17 -32.5 -48.5t-24.5 -37.5q-3 -4 -8 -9t-13.5 -11t-13.5 -10z" />
<glyph unicode="b" horiz-adv-x="921" d="M31 236q0 -44 12 -68q20 -45 74 -131q15 -24 26 -29q9 -4 28 -12.5t30.5 -13.5t28 -9t30.5 -4q66 -2 199 -2q15 0 33 6q4 2 27 12t38 15q11 4 31 17t30.5 16.5t36.5 -0.5l7 4q70 48 92 72q29 32 39 73q2 3 5 10.5t5 10.5q3 6 15 26t18 31q9 16 15.5 38.5t8.5 39.5t5 44 t5 40q2 2 2 14q0 9 -1 24q-3 34 -3 40q-4 44 -29 121.5t-28 91.5q0 2 -3.5 7.5t-4.5 8.5q-46 61 -156 135q-10 7 -32.5 14t-30.5 11q-80 33 -158 33q-49 0 -96 -13q-8 -3 -17.5 -4t-21.5 -1t-19 -1q-4 25 -6 31q-2 40 -2 66.5t2 39.5q6 53 6 160q3 44 3 87t-3 85 q0 48 -47 64q-36 11 -78 20q-10 2 -17 2q-11 0 -15 -4q-8 -6 -11 -31q-6 -59 -10 -168l-18 -286q-3 -26 -9.5 -75.5t-9.5 -74.5q-3 -42 -7 -127t-7 -127q-9 -169 -12 -329zM260 332q-1 23 -1 48q0 58 5 122q0 49 12 155q1 13 22 40.5t34 35.5q4 2 28 12q3 1 12.5 6.5 t13.5 6.5q4 2 14 5q4 1 8 1q5 0 8 -2q5 -1 21.5 -5t23.5 -6.5t18.5 -7.5t19.5 -12t15 -16q13 -19 25 -60q17 -69 17 -127q0 -43 -9 -79q-17 -85 -66 -142q-3 -4 -15 -16t-16.5 -17t-15.5 -16t-17.5 -16.5t-17 -15t-18.5 -15t-18.5 -12t-20.5 -11.5q-12 -2 -31 -12 q-33 51 -35 88q-1 4 -8.5 28.5t-7.5 39.5z" />
<glyph unicode="c" horiz-adv-x="757" d="M-6 406q6 -193 131 -312q67 -64 141 -80q7 -2 33.5 -6.5t37.5 -7.5t29 -12t31 -23q12 -10 21 -10q13 0 22 18q1 1 19 7q7 2 34.5 7t43.5 13q8 5 25 15t26.5 16t22 16t22 21.5t16.5 25.5q1 1 15 8q4 4 14.5 15.5t17.5 20t11 16.5q39 81 49 96q4 4 4 18q-19 19 -27 23 q-5 2 -17 8.5t-17 8t-18 3.5t-19 -4q-44 -22 -111 -63q-12 -7 -34 -25t-34 -26q-20 -15 -38 -15q-25 0 -46 31q-41 71 -41 160v12q0 12 3 36t3 44t-6 37q-2 2 -2 6q3 15 8 42.5t10 49t11 39.5q5 17 13 34t20.5 40t17.5 34q35 63 111 86q9 4 30 10t36.5 12.5t27.5 16.5 q24 23 24 50q0 16 -8 32q-36 68 -110 68h-86q-27 -2 -82 -10q-13 -2 -37 -8.5t-37 -8.5q-66 -14 -102 -43q-105 -85 -154 -207q-22 -55 -26 -73q-30 -102 -30 -221q0 -20 1 -41z" />
<glyph unicode="d" horiz-adv-x="901" d="M-4 377q-1 -16 -1 -32q0 -152 89 -259q97 -119 211 -129l22 -6q20 -7 121 -9q30 -1 52 -1q54 0 69 4q6 14 16.5 27t18 19.5t25 20t22.5 17.5q7 -10 21 -26.5t20 -25.5q29 -40 78 -49q8 -4 13 -4t9 4q44 26 62 39q-2 8 -2 25q16 8 22 12q0 7 -4 27q-10 30 -35 30 q-9 0 -20 -4q-2 -3 -4.5 -4.5t-5.5 -2t-4 -1.5l-9 10q-11 12 -19.5 28.5t-16.5 38t-13 32.5q-3 8 2 22q3 20 11.5 54t11.5 49q0 13 -8 41q-3 7 -12.5 30.5t-12.5 36.5v21q0 4 3 10.5t3 9.5q-1 24 -1 46q0 37 3 71q4 24 4 47.5t-4 48.5q-5 33 -5 69v19q0 29 2 65q2 48 1 70 q-1 15 -1 28q0 24 5 36q19 44 27 180q6 107 6 207v52q-2 123 -8 179q-1 5 -2 16.5t-1.5 15l-1.5 10.5t-2.5 10.5t-4.5 8t-7 7.5q-20 20 -35 20q-4 0 -8 -2l-22 -22q-3 -7 -16.5 -17.5t-30.5 -21.5t-23 -16q-20 -18 -25 -79t-8.5 -148.5t-19.5 -143.5q-6 -21 -15.5 -90 t-9.5 -127q0 -20 -18 -23q-4 -1 -61 -3.5t-64 -4.5q-31 -12 -57.5 -23t-35.5 -14.5t-17.5 -6.5t-18.5 -5q-14 -3 -26 -9.5t-18.5 -12.5t-18.5 -17.5t-19 -17.5q-124 -113 -158 -213q-9 -25 -13.5 -59t-5 -58.5t-1 -67.5t-0.5 -59zM272 322q0 70 31 161q4 11 11 33.5t10 32.5 q7 23 48.5 57.5t71.5 34.5q3 -1 49 3q36 3 49 3h5q1 -7 1 -17q0 -19 -5 -48q-9 -64 -9 -119q0 -21 1 -41q4 -24 7 -52.5t6 -62.5t5 -53q2 -20 16 -55q3 -8 3 -15q0 -11 -7 -20q-3 -4 -13.5 -20t-16.5 -23t-10 -7h-1q-4 0 -10 2q-7 4 -14 5q-191 24 -205 59q-23 49 -23 142z " />
<glyph unicode="e" d="M6 550q0 -5 -1 -12q0 -15 1 -40q3 -24 9 -68.5t8 -62.5q15 -115 88 -207q84 -110 206 -158q41 -17 83 -17q1 1 3 1q44 0 79 11.5t79 33.5q19 9 38.5 25t32 29t32.5 35.5t30 33.5q22 25 22 49q0 8 -3 16q-3 7 0 14q1 3 7 17t9 20.5t9 15.5t12 15q14 15 20 33q6 17 6 32 q0 9 -2 40q-1 17 -14.5 23t-28.5 -3q-43 -22 -76 -51q-50 -38 -92 -101q-52 -83 -69 -106q-18 -26 -41 -27q-10 0 -21 6q-67 31 -96 82q-36 59 -47 154q-2 13 -2 25q0 32 14 55q10 0 14 -2q48 -16 98 -16q43 0 87 12q74 14 114 49q31 31 45 47q39 39 48 57q18 53 24 107 q1 8 1 24q0 26 -3 72q0 4 -1.5 6.5t-3.5 5.5t-3 4q-5 10 -11.5 19t-17 18.5t-15 13.5t-19.5 15.5t-17 13.5q-82 64 -178 84q-38 8 -49 25q-8 8 -19 8q-63 -4 -94 -25q-77 -46 -84 -49q-59 -34 -106 -82q-66 -66 -76 -135q-2 -14 -7.5 -40.5t-7.5 -39.5q-2 -15 -8 -53t-6 -52 zM294 635q2 20 11 33q37 61 78 82q11 9 29 36q23 30 39 30q3 0 6 -1q9 -4 12 -10.5t3 -17t1 -15.5q-13 -85 -55 -143q-31 -42 -86 -45q-17 0 -25 2q-12 4 -12 14q-2 10 -2 22q1 6 1 13z" />
<glyph unicode="f" horiz-adv-x="645" d="M-70 -133q3 -3 5 -4t5 -2t4.5 -1t8 -1t12.5 -2h10q38 0 94 25q64 29 91 61q7 7 13 15t15.5 22t18 27t27.5 42t36 55q8 13 17 40.5t14 37.5q9 19 15 41t12 50t10 42q6 28 10 84q6 47 14 138q2 22 5.5 65.5t5.5 65.5q0 19 16 24q11 3 33.5 10.5t34.5 10.5q68 12 102 28 l-4 16t-4 19q1 1 12 7t17 8q-56 22 -95 22h-6q-25 -2 -102 -14v28q2 39 2 65t-2 38v6q4 47 8 137q6 94 23 176q5 31 32 66q21 26 45 2l31 -41q4 -9 8 -23q4 -27 4 -51q0 -54 -22 -94q-1 -2 -2 -6t-2 -6q70 -17 71 -17q24 -3 41 11q23 20 33 53q4 13 5.5 43.5t6.5 46.5l-2 8 q0 2 -5.5 28t-6.5 40q-6 64 -55 92q-18 12 -60 33q-34 17 -71 17q-14 0 -29 -3q-11 -2 -44 -3.5t-52 -8t-35 -25.5q-12 0 -50.5 -53.5t-43.5 -73.5l-12 -29q-51 -83 -58 -204q-1 -21 -1 -64t-1 -63q0 -15 -2 -42t-2 -40q-4 -106 -4 -160q0 -14 -12 -23q-1 -1 -16.5 -13 t-22.5 -19q-22 -22 -29 -41q10 -1 55 -11q22 -3 25.5 -7t3.5 -25q-8 -143 -14 -211q-1 -16 -3 -54t-3.5 -57.5t-9 -53t-19.5 -65.5q-32 -87 -58 -125.5t-59 -64.5q-9 -6 -33 -45z" />
<glyph unicode="g" d="M-170 -655q-2 5 -2 11q0 11 4 24q7 23 6 34q0 6 -1.5 22t-1.5 25v22.5t2 25.5t5 24q6 42 6 45q7 63 48 96q1 2 4.5 5.5t3.5 5.5q3 12 11.5 23.5t23 23t23 17.5t29 18t23.5 14q84 52 189 61h9q35 0 58 -20l2 -16q1 -15 0 -26t-5 -25.5t-15.5 -22.5t-30.5 -8q-16 0 -26.5 9 l-14 12t-26.5 -9q-67 -45 -99 -135q-10 -29 -13 -39.5t-6 -32.5t3.5 -39.5t21.5 -36.5q36 -43 54 -43q6 0 19 -1.5t24.5 -1t23.5 4.5q17 7 37.5 16t28.5 12.5t19.5 9.5t20 13t19.5 17q5 5 38 35.5t42 40.5q37 44 66 149q19 74 28 148q6 25 6 182v-168q0 102 5 180 q-21 -9 -81 -11t-71 -5q-13 -4 -28 -4q-35 0 -80 23q-63 33 -111 83q-18 18 -45 74q-14 32 -21.5 82.5t-11.5 169.5q0 27 8 127q4 82 10 130.5t10 60.5t13 28q64 108 184 174q18 11 29 22q1 1 4.5 4t5.5 3q61 12 173 16q32 1 60 1q69 0 113 -7q10 -1 20.5 -4.5t24.5 -10 t19 -8.5t18 -8t21 -8q10 -25 10 -68q-1 -14 2 -63q1 -19 1 -33q0 -22 -3 -31q-2 -14 -5.5 -124t-6.5 -128q-8 -47 -15 -144q-4 -57 -4 -93q0 -25 2 -39q3 -13 -4 -29q-3 -24 -7 -49.5t-9 -56t-8 -47.5q0 -6 -3.5 -96t-5.5 -111q-2 -24 -5 -24q-1 0 -3 2q-5 6 -8 -6 q-1 -5 -2 -15q-9 -42 -23 -78q-10 -28 -28.5 -103.5t-28.5 -103.5q-26 -80 -67 -127q-2 -2 -9 -10t-10 -14q-18 -27 -92 -79.5t-109 -64.5q-20 -9 -41.5 -15t-51 -12.5t-42.5 -9.5q-40 -11 -82 -11q-29 0 -59 5q-83 12 -123 37q-2 1 -13 8t-17 12t-16.5 16.5t-20.5 29 t-19 41.5zM201 512q0 -54 12.5 -107t27 -85t29 -59.5t15.5 -33.5q1 -2 18 -49q15 -26 53 -26q34 0 86 20q4 1 9.5 12.5t7.5 20.5q11 26 22 78q4 17 8.5 102t4.5 102l4 7q20 44 20 69q6 194 27 320q-11 -6 -26.5 -12.5t-20.5 -8.5q-8 -4 -70 -29t-80 -40q-59 -52 -103 -124.5 t-44 -156.5z" />
<glyph unicode="h" horiz-adv-x="778" d="M12 37l6 106q0 9 5 82q0 70 14 170q1 4 6 70q0 77 10 133q3 13 4 28t1 33.5t1 28.5q2 24 7.5 74t7.5 76q4 47 8 149q1 13 1 37t1 37l12 135q3 25 10.5 140.5t10.5 140.5q2 13 7 39t7 40q0 16 21 27q29 18 58 18l34 -6q35 -17 47 -55q9 -37 9 -66q0 -21 -5 -38 q-2 -10 -4 -99t-4 -100l-6 -53q-5 -50 -5 -58q0 -18 -10 -110q-4 -30 -8 -82q-1 -5 -3 -18l-1 -8v1v11v-5q0 -3 -1 -12t-1 -16q6 2 34.5 5.5t30.5 4.5q35 17 101 25q30 3 55 3q30 0 51 -5q4 -1 37.5 -5.5t50.5 -11.5q52 -22 64 -65q6 -20 6 -58q0 -45 -8 -116q-1 -8 -2 -26 t-2 -26q0 -34 -4 -104v-121q-5 -96 -9 -127q0 -4 -6 -36t-2 -48q4 -18 4.5 -37t-1 -44.5t-1.5 -37.5q0 -17 -4 -45q6 -10 22.5 -2.5t22.5 6.5v-14q20 -6 25.5 -5t15.5 19q6 9 12 21q8 -4 9 -6q4 -7 4 -18q0 -10 -3 -22q-7 -27 -22 -36q-18 -9 -24.5 -11.5t-25.5 -6.5 q-8 -2 -14 -2q-9 0 -14 4q-30 8 -86 16q-40 8 -63 49q-23 39 -23 84v10q0 3 3 30t3 42q0 61 -2 90q-2 32 -1.5 62.5t1.5 60.5q9 110 9 149q0 36 1 66t1 35q0 4 -4 20q-7 -2 -28.5 4.5t-42 11.5t-48.5 -7.5t-51 -47.5q-13 -19 -29 -59t-25 -51q-30 -35 -47 -92q-1 -2 -2 -6 t-2 -5q-12 -11 -17 -24.5t-7.5 -32.5t-4.5 -27q-9 -36 -18 -143q-1 -8 -1.5 -28t-1.5 -33t-5 -25q-13 -62 -27 -84q-2 -2 -3.5 -7t-3 -8t-4.5 -5.5t-7 -3.5q-32 -5 -43 -3q-27 3 -45 21q-19 16 -19 39z" />
<glyph unicode="i" horiz-adv-x="512" d="M27 66l10 -23q12 -19 27 -33t43 -32.5t34 -22.5q32 -22 67 -22q15 0 30 4q63 14 97 50t44 109q2 16 16 88q27 153 29 174q6 55 6 168q1 18 1 34q0 28 -3 54q-6 46 -6 88q0 95 31 175q7 16 14 41q3 9 3 17q0 9 -5 17q-8 12 -25 9q-15 -5 -27 12t-18 18q-3 0 -8 29 q-7 1 -23.5 6.5t-23.5 5.5q-122 0 -172 -135q-35 -88 -35 -250q0 -129 4 -403v-107q-73 -6 -110 -71zM152 1391q-2 -6 -3 -16q0 -14 5 -34q13 -56 57 -108q55 -69 106 -88q19 -5 37 -5q25 0 47 11q29 20 50 74q3 9 3 16q0 16 -14 29q-12 8 -39 35q1 4 3 11t2.5 11t1 9 t-1.5 8.5t-7 5.5q-13 8 -36.5 32.5t-40.5 32.5q-41 20 -80 20q-30 0 -58 -12q-26 -17 -32 -32z" />
<glyph unicode="j" horiz-adv-x="512" d="M10 -256q9 -92 17 -123q1 -4 3.5 -13t4 -13t4 -11t5 -11t6.5 -7.5t9 -5.5q2 -1 6 -6.5t5 -6.5t8.5 -7.5t9 -8t8.5 -6.5t9.5 -7t8.5 -5t10.5 -4t10 -2t10.5 -1q40 7 68 19q19 4 27 12q5 7 21 25.5t25.5 31.5t16.5 27q29 49 37 68q13 36 43 59q6 2 14 23q25 42 25 139 q0 24 2 48.5t5.5 54.5t4.5 46q1 18 4 47.5t5 54.5t3 48q1 13 2.5 61.5t6.5 75.5q2 11 2 35q0 15 -1 35q-1 37 -1 56v17q0 29 -13 107q0 8 -4 16q-11 9 -20 50q-15 70 -15 106v8q0 15 -2 21q-8 28 -8 104q0 7 -3 36.5t-2.5 47.5t5.5 37q2 2 -2 10q-8 21 -16 27t-25 2 q-54 -5 -88 -96q24 -7 24 -47q0 -6 -1 -13q-1 -20 -1 -43.5t0.5 -52t0.5 -43.5v-8q0 -48 -9 -221q-1 -18 -4.5 -52t-5.5 -62t-2 -52q-2 -64 -10 -203q-1 -25 -4 -67.5t-4 -59.5t-1 -51.5t-1 -50.5q-5 -116 -8 -138q-3 -16 -27 -116q-1 -1 -4.5 -7t-5.5 -10q-60 63 -93 133 q4 24 4 46q0 41 -14 71q-14 -14 -18 -14q-22 4 -39 -37q-4 -9 -10.5 -28t-10.5 -27q-9 -20 -9 -50q0 -9 1 -18zM295 1290q0 -14 10 -24q17 -17 49 -41q6 -6 11 -6q6 0 10 10q3 3 8 13t8 13q22 16 25 50l6 120q1 9 -9 23t-18 16q-9 1 -16 1q-39 0 -60 -17q-5 -4 -12.5 -13 t-11.5 -12q0 -1 1 -2.5t1 -3.5q0 -5 1 -16t1 -17q-5 -28 -5 -63q0 -15 1 -31z" />
<glyph unicode="k" horiz-adv-x="716" d="M12 135l6 -49v-47q2 -22 16 -36q13 -13 30 -13h2q51 4 84 18q27 14 38 49q1 3 3.5 12t4 13t4.5 11t5.5 11t6.5 9t9 8q-1 15 -2 45t-2 45q0 3 6 27l19 57q4 12 4 16q13 -35 69 -122t68 -119l27 -21q3 -2 18 -14.5t23 -16.5q73 -28 167 -28h19q43 3 74 28q14 8 14 23 q0 8 -4 18q-7 14 -33 11q-42 -8 -61 -7h-9q-94 10 -122 89q-31 79 -33 124q-1 15 -4 31t-8 34.5t-7 29.5q-2 19 -0.5 22.5t17.5 9.5q20 9 37 35.5t33 62.5t24 48q3 6 12.5 29.5t16.5 33.5q31 50 34 115q0 38 7 59q7 29 -13 56q-18 24 -18 51q1 17 -12 26.5t-29 6.5 q-13 -2 -37 -5.5t-37 -5.5q-23 -3 -43 -12q-4 -1 -45.5 -27t-79.5 -43t-47 -4q-15 25 -20 89q-1 7 -1 19q0 22 3 60l12 72q-1 14 -1 27q0 57 11 104q13 60 13 144q0 33 -2 69q0 20 -9 29q-30 34 -66 34q-11 0 -24 -3q-63 -14 -63 -66v-14q-22 -148 -31 -193q-4 -26 -19 -94 t-18 -119q-2 -35 -7 -103.5t-7 -103.5l-6 -118q-1 -13 -3 -39.5t-3 -40.5l2 -187v-4q-5 -36 -5 -83q0 -36 3 -79q0 -31 -7 -47q-5 -11 -5 -28q0 -9 1 -19zM252 566.5q0 14.5 4.5 27.5t14.5 29.5t21 30.5t28 33t32 34.5t36.5 38.5t37.5 41q10 11 16 16.5t16 10.5t23 6 q22 -24 25 -66q1 -18 1 -35q0 -71 -24 -115q-5 -8 -13.5 -28t-16.5 -29q-30 -36 -39.5 -71.5t-12.5 -38.5q-20 -19 -39 -19h-8q-23 4 -45 29.5t-35 46.5t-16 31q-6 13 -6 27.5z" />
<glyph unicode="l" horiz-adv-x="450" d="M20 814q-2 -31 -2 -50q0 -22 2 -29q2 -16 2 -40.5t-2 -57.5q-1 -27 -1 -50q0 -41 4 -71q4 -20 4.5 -42.5t-1 -52.5t-1.5 -44q0 -8 -0.5 -29.5t0 -32t1.5 -28t3.5 -32t7.5 -28.5q4 -8 4 -16q0 -4 -0.5 -21.5t0 -24.5t2 -20.5t5.5 -24t11 -20.5v-4q15 -30 21 -39 q3 -5 6 -9.5t7 -9t6.5 -8t8.5 -8t8.5 -6.5t9.5 -6.5t8.5 -5.5t10 -6t9.5 -6q26 -15 52 -15h9q38 0 68 9q83 20 125 73q17 23 16.5 32t-16.5 30q12 12 26 33l-6 6q-5 -4 -16.5 -12.5t-16.5 -12.5q-25 -22 -57 -22q-40 3 -49 49l-25 137v16q0 10 1 29.5t1 28.5q-4 58 -4 86 q1 24 4 73.5t4 75.5q0 43 -2 51q-6 47 -6 77v14q1 14 2 42t2 42q0 7 1 22.5t1 22.5v36q1 7 6.5 46t6.5 61q1 13 -0.5 36.5t-1.5 31.5q-1 20 0 58.5t0 57.5q-8 92 -17 146q-7 50 -35 69q-47 32 -87 32q-6 0 -10 -1q-44 -5 -97 -51q18 -15 18 -49q0 -11 -2 -25q-2 -4 -2 -14 q-16 -63 -20 -195q-4 -76 -4 -225q1 -13 -3 -79z" />
<glyph unicode="m" horiz-adv-x="1126" d="M-59 803q8 -18 22.5 -24t28 -3.5t28.5 -1.5q12 -20 12 -57q0 -17 -3 -37q-13 -77 -13 -168v-35q1 -32 6.5 -94t6.5 -80q4 -70 20 -229q3 -31 22.5 -50.5t53.5 -23.5l43 -6q9 -3 20 -3q21 0 48 13q0 16 -3 31q-6 29 19 47q18 10 22 39q3 13 5 37.5t5.5 45t12.5 36.5 q9 17 9 35q0 14 -5 28q-10 39 -10 71q0 29 8 52v33q5 29 10 39q2 8 9.5 28t9.5 31q16 85 80 141q9 -36 10 -39q17 -161 28 -233q14 -84 39 -207q10 -115 21 -137q16 -33 64 -57q39 -20 72 -20q7 0 13 1q29 6 33 14q1 2 6 13.5t6 15t4.5 13t4 14.5t1.5 13.5t-0.5 15.5 t-4.5 14q-7 19 -7 73q0 5 -1 9q0 47 5 63q7 17 3 31q-19 68 -19 164q0 69 10 153q9 31 25 39q10 -20 12 -30q33 -103 35 -109q20 -65 52 -187.5t36 -136.5q6 -19 16.5 -55t16.5 -55q18 -64 45 -123q9 -23 13.5 -33t16.5 -26t27 -23q59 -26 106 -26q37 0 66 16q-4 25 -12 45 q-9 67 -18 98q-3 8 -12.5 25.5t-12.5 25.5q-32 79 -51 136q-6 14 -12.5 41.5t-8.5 35.5q-35 93 -45 164q0 4 -1 8.5t-2.5 11t-2.5 9.5q-3 11 -11 32.5t-12 38t-4 31.5q0 13 -10 69q-7 40 -7 67q0 11 1 20q0 1 -1 5.5t-1 6.5q-24 67 -76 88q-8 3 -27.5 12.5t-29.5 12.5 q-31 11 -57 11q-33 0 -58 -17q-33 -26 -61 -41q-24 85 -137 114q-14 2 -43 2t-74 -2q-2 0 -7.5 -2.5t-7.5 -3.5q-84 -27 -122 -59h-13q0 12 -1.5 43t-0.5 49q0 31 -12 41q-5 4 -25 39q-12 32 -34 32q-12 0 -27 -10q-20 -13 -54.5 -39t-45.5 -34q-1 -1 -3 -6.5t-4 -6.5 l-57 -112q-12 -21 -22 -41z" />
<glyph unicode="n" horiz-adv-x="1024" d="M-74 958q6 -3 32 -19.5t40 -23.5q2 -2 8.5 -5.5t9 -5.5t5.5 -6t4 -9q4 -106 4 -156q0 -12 -1 -37t-1 -39q0 -6 2 -19.5t2 -19.5q-2 -24 -2 -47q0 -61 12 -114q4 -28 4 -43q2 -91 27 -301q10 -100 94 -119q15 -5 20 -10q9 -13 39 -13q12 -1 80 -16q26 -5 31 -4q15 3 40 10 t36 10q26 6 20 33q-4 30 -8 86q-2 29 -17 144q-14 108 -14 170v8q0 6 -4 22q-4 46 -4 64q0 51 8 92q12 69 31 100q27 44 90 111q25 21 74 53q7 4 47 8q10 -84 10 -90q9 -133 35 -252q9 -35 31 -143l12 -78q18 -73 18 -76q23 -135 29 -180q6 -41 41 -66q42 -36 133 -55 q6 -2 12 -2t13 2q18 4 22 10q3 4 3 15q0 5 -1 12q-12 78 -12 117q-4 149 -33 243q-10 35 -10 48q0 16 -8 96q-4 48 -4 83q0 24 2 42q2 23 2 69q0 25 1 73t1 71v24q4 16 4 30q0 27 -12 49q-18 34 -58 67q-35 29 -121 49q-47 9 -91 9q-156 0 -283 -109l-56 -50q-9 15 -14 25 q-2 5 -21.5 62t-27.5 87q-11 49 -49 84q-19 15 -38 15l-20 -4q-30 -14 -75.5 -53t-53.5 -44q-1 -1 -8 -14l-47 -47q-9 -7 -35 -23z" />
<glyph unicode="o" horiz-adv-x="962" d="M20 545q-3 -43 -3 -83q0 -92 16 -167q29 -141 121 -223q129 -109 315 -115q48 0 57 2q12 1 31 8t23 8q24 6 45 9q37 2 84 30q24 19 42.5 41.5t43.5 61.5t32 49q0 1 10.5 15t14.5 22q20 63 33 112l10 45t10.5 51t5.5 43.5t1 52t-9 46.5q-1 5 0.5 13t1.5 9q8 102 8 135v7 q-2 39 -11 111t-11 100q-2 25 -25 41q-28 9 -30 18q-10 15 -21.5 25t-29.5 15.5t-26.5 7.5t-31.5 5q-33 4 -92 23q-11 4 -29.5 9.5t-25.5 8.5q-39 9 -76 8q-95 0 -172 -57q-6 -4 -31 -23t-34.5 -27l-28.5 -24t-32.5 -30t-25.5 -29q-9 -14 -28 -37t-27 -33q-37 -58 -47 -77 q0 -1 -6 -20t-13 -27q-6 -6 -8.5 -16.5t-3.5 -24t-2 -19.5q-3 -11 -9.5 -31.5t-10.5 -37t-5 -31.5zM376 394q-1 22 -2 36q0 20 3 25q9 84 59 149q7 12 21 32t20 30q24 49 74 96q18 15 63 72q3 2 11.5 9t11.5 9q15 7 25 7q4 -1 6 -1q12 -4 16 -24l29 -175q-2 -25 -8.5 -79.5 t-8.5 -81.5l-12 -152q-9 -89 -49 -164q-15 -27 -29 -34q-8 -4 -19 -4q-10 0 -22 3q-25 6 -68.5 23t-52.5 20t-12 13q-4 9 -21 37.5t-24.5 49t-7.5 42.5q1 10 -3 62z" />
<glyph unicode="p" horiz-adv-x="942" d="M18 -209v-2l4 82q4 47 9 90v207q8 87 25.5 326.5t25.5 326.5q0 15 7 48t7 49q0 12 11 22t24 10q39 26 79 32q8 1 16 1q32 0 63 -18q7 -6 15 -6t17.5 3t14.5 3q94 49 207 49q57 0 127 -49q36 -16 94 -78q0 -7 8.5 -15.5t23 -18.5t17.5 -13q23 -13 36 -42t13 -57v-14 q7 -17 23.5 -41t23.5 -39q15 2 23 2q6 -7 6 -16q0 -11 -12 -23q-4 -4 -4 -14q-1 -7 -7 -40t-6 -50q0 -34 13 -43q1 -12 1 -54q0 -21 -1 -49q0 -86 -2 -106q1 -2 -1.5 -8.5t-2.5 -15t6 -15.5q0 -33 -10 -50.5t-38 -43.5q-11 -24 -25 -39t-38 -27q-56 -36 -121 -36 q-26 0 -53 6h-16q-19 -6 -44 -6q-46 0 -114 20q-35 0 -66 16h-16q-9 -17 -17 -41t-14 -37q0 -12 3 -27t3 -26.5t-6 -25.5v30q-18 -8 -14 -30.5t-2 -30.5q-7 -7 -7 -20t3.5 -27t3.5 -17q0 3 8 23l2 -4v8q6 30 6 37v-64q14 -18 0 -18q-4 -4 -4 0q-2 -2 -5 -6t-5 -6 q-8 -8 -8.5 -28.5t-8.5 -35.5v-16q12 0 16.5 2t16.5 14v-82q-12 12 -14 16.5t-2 18.5h-17v-65q0 -20 -1 -28t-7.5 -18t-21.5 -18q0 -8 -8.5 -31.5t-8.5 -31.5q-5 -4 -17 -29.5t-30 -34.5v-31q-31 -18 -94 -18q-7 -2 -14 -2q-30 0 -61 31q-38 37 -38 84v16v158v71v76z M336 -150q8 8 8 -20l-2 -4q-6 12 -6 24zM383 793q16 -35 16 -99v-143q0 -4 7.5 -18.5t7.5 -32.5q-14 -17 4 -37q12 -2 12 -6q18 -195 45 -195q8 0 12.5 -3.5t5.5 -6.5l1 -4q6 -12 18 -22.5t22 -15.5t29 -14t25 -12q21 -10 29 -10h2q6 2 18 27q8 8 16 36t15 42q11 11 16 52 t5 78t-1.5 88t-1.5 56q-33 128 -63 188q-51 79 -127 129q-24 12 -48 12t-49 -12q-16 -31 -16 -77z" />
<glyph unicode="q" d="M34 433q5 -140 17 -185q48 -149 172 -191q12 -8 39 -18q68 -29 119 -29q19 0 35 4q54 14 92 27q4 -12 4 -23v-22q0 -18 0.5 -42.5t0.5 -45.5v-27q-1 -32 -7 -61q-6 -34 -29 -43q-34 -16 -72.5 -42t-58.5 -42.5t-65 -54.5q-1 -2 -5.5 -7t-8 -10.5t-5.5 -9.5 q-6 -13 1.5 -21.5t19.5 -3.5q88 9 168 56q20 12 26 12q8 3 14.5 -2t2.5 -14q-5 -19 -3 -54t-2 -53q-3 -33 -1 -59t0 -60t-11 -61q0 -1 1 -11t1 -14q0 -6 -1 -18.5t-1 -18.5q-1 -10 -1 -24q0 -25 4 -63q7 -60 18 -87q3 -9 37 -26q28 -14 51 -19q2 -2 7.5 -4t8.5 -4 q5 7 2.5 14t0.5 14t18 9q7 -14 10 -23q6 6 14.5 14t14.5 14t10 11q10 170 24 613q9 1 23.5 5t19.5 5q60 9 110 9q43 0 79 -7q20 -6 43.5 -3t34.5 23q0 4 10 4q13 0 20 5.5t14 21.5t9 19q-24 -2 -48.5 4t-51 16.5t-39.5 13.5q-34 17 -60 17q-109 -10 -147 -11v48q3 42 11 128 t11 128q3 101 3 249q0 74 -1 160q0 22 0.5 62.5t0.5 73.5t-1 61q-7 46 -7 101q0 36 3 75v9q0 33 -21 52q-14 13 -35 13q-12 0 -26 -4q-13 -9 -16 -9q-5 0 -15 -0.5t-16 -0.5t-13.5 1t-12.5 4q-31 17 -64 17q-12 0 -25 -2q-18 -3 -51 -10t-61 -12t-51 -9q-106 -14 -172 -102 q-88 -127 -115 -262q-7 -32 -7 -105q0 -36 2 -83zM371 526q0 100 67 183q14 17 59.5 54t59.5 58l16 6v-92q-10 -94 -10 -146v-16q1 -80 1 -126q1 -4 1 -8q0 -42 -5 -81q-5 -43 -8 -61t-9 -42.5t-8 -33.5q0 -3 -9.5 -7t-21.5 -7.5t-15 -5.5q-15 -22 -34 -22q-16 0 -35 16 q-31 29 -40 89.5t-9 241.5z" />
<glyph unicode="r" horiz-adv-x="901" d="M-27 975q35 -41 62 -78q10 -16 41 -16q32 8 59 12q-15 -116 -16 -121q-7 -68 -7 -102q0 -11 1 -19v-7q-1 -28 -7 -76q-8 -55 -8 -70q-3 -51 -15.5 -148.5t-12.5 -144.5q0 -43 -11 -107q-4 -21 -4 -39q0 -56 39 -90q29 -29 72 -45q12 -2 21 -2q20 0 28 8q2 2 17 15.5 t19.5 18.5t15 16.5t16 21.5t8.5 21q1 3 4 13t5 15t6 12.5t8.5 12.5t11.5 10q10 7 10 23q0 13 9 48t3 56q-1 2 0.5 4.5t4 6.5t3.5 7q2 -2 9 -2l6 -65q27 45 37 88q29 103 41 182q3 27 17 75t17 64q5 21 13.5 62.5t13.5 62.5q2 6 11 18.5t9 20.5q-2 18 21 41q13 15 33.5 29.5 t30.5 20t40 20.5q17 9 32.5 13t36 1.5t28.5 -3.5t35.5 -9.5t31.5 -9.5q85 -27 99 -37l20 37q-5 4 -37 32q28 15 51 31q1 7 1 14q0 27 -10 45q-12 22 -44 33q-80 35 -192 47q-40 4 -76 4q-66 0 -121 -14l-76 -26q-1 2 -3.5 4.5t-2.5 3.5q-2 1 -4 4.5t-4 5.5q-55 77 -134 77 q-15 0 -32 -3q-16 -2 -51 -2q-52 0 -117 -43q-12 -8 -12 -21q0 -5 -1 -9t-5 -6.5t-5.5 -3.5t-8 -4t-7.5 -3q-56 -24 -74 -31z" />
<glyph unicode="s" d="M6 244q3 -19 27 -80q32 -82 119 -133q20 -15 30 -13q14 2 27.5 -1t31.5 -10t25 -9q33 -11 53 -6q18 8 39 8q18 0 37 -6q22 -7 48 -7q9 0 18 1q19 0 61 14q60 12 84 25q16 8 39.5 28t30.5 25q6 5 16.5 15.5t19.5 17.5t17 10q21 7 36 23t21.5 29.5t14.5 35.5q26 63 25 118 q0 20 -3 40q-7 49 -14 75q-21 74 -57.5 123.5t-100.5 69.5q-21 7 -78 23.5t-88 27.5q-8 1 -25 9.5t-18 9.5q21 70 55.5 96.5t106.5 32.5q20 1 54.5 -2t64 -3t55.5 7q12 18 17 28q12 23 12 42q0 38 -47 61q-100 45 -246 84q-51 11 -103 11q-72 0 -145 -22q-36 -14 -43 -45 q-1 -6 -6.5 -14t-7.5 -12q-27 -36 -31 -47q-17 -28 -27 -66t-12.5 -63t-5.5 -72q0 -36 25 -84q44 -65 96 -88q27 -14 143 -57q9 -4 51 -13t60 -24q43 -35 86 -95q13 -19 13 -62q0 -18 -2 -40q-1 -11 -2 -13l-1 9q0 5 -2 -1q-13 -43 -41 -62q-12 -7 -25 -18t-21 -19t-7 -9 q-7 -3 -14.5 -4.5t-16.5 -0.5t-14.5 2t-16 4t-14.5 4q-27 5 -83 13t-98 16.5t-69 19.5q-29 12 -36.5 41t2 62t30.5 71q10 18 29 49.5t28 46.5q-9 2 -22 4.5t-22 4t-15 1.5q-22 0 -39 -10q-54 -35 -96 -98q-35 -48 -35 -102q0 -13 2 -27z" />
<glyph unicode="t" horiz-adv-x="512" d="M8 834l27 -29q17 -20 41 -17q11 0 51 9q-1 -5 -2 -15t-2 -14q-12 -90 -12 -96q-6 -90 -9 -193q-2 -86 -2 -143.5t2 -85.5q10 -105 48 -182q28 -58 79 -78q41 -18 82 -18q70 0 138 53q-11 9 -12.5 12.5t-0.5 15.5q2 12 10 31q23 44 23 70q-12 -2 -17 3.5t-7 16t-5 14.5 l-16 -30q-8 -19 -16 -33q-10 -15 -25 -13t-23 19q-6 18 -8 21t-7.5 7t-6.5 5q-25 22 -24 47q0 10 3 20q1 5 0.5 12t-2.5 9q-24 10 -23 49q0 44 1 64q0 10 2 10q4 2 6.5 5.5t3 6.5t1.5 8.5t1 7.5l19 134q4 52 8 84q3 19 11 62t11 65q1 5 6 61q23 2 60 -6q20 -3 26.5 -2 t28.5 10q-1 2 -4 5t-4 5q4 2 12 3t13 4t8 10q-6 2 -17.5 7t-17.5 7v6q7 3 21 8.5t20 7.5q-5 3 -19.5 10t-21.5 10t-19.5 9t-21 8.5t-20 6t-21.5 4.5q-20 5 -23 8.5t0 23.5q11 108 21 187l12 86q1 9 5.5 38t4 38t-3.5 40q-11 42 -32 56q-43 27 -77 37q-12 3 -27 4.5t-25 1.5 q-2 0 -4 1q-8 0 -22 -2q-18 -2 -24 -2.5t-27 -4.5t-24 -4q-21 -3 -28 -29q55 -66 116 -68q4 -30 2 -41q-12 -82 -20 -121q-10 -53 -27 -118l-30 -129q-8 -25 -23 -31l-100 -43q-5 -2 -12 -8.5t-9 -7.5z" />
<glyph unicode="u" horiz-adv-x="1126" d="M72 562q0 -18 2 -52.5t2 -48.5q0 -23 3.5 -48t10 -58t8.5 -48q8 -49 39 -110q148 -228 379 -244q8 -1 17 -1q70 0 163 50q8 4 16 12t17 19t14 16q7 14 19 23q121 -82 239 -82q25 0 50 4l-25 57q28 16 35 25q12 12 12 24q0 5 -2 9q-6 21 -35 14q-21 -8 -32 -4 q-89 42 -119 100q-32 74 -32 156q0 25 3 51q1 5 2 16.5t2 16.5q11 181 12 186q1 34 15 160q0 2 1 9t0.5 12t-3.5 8t-5 6.5t-3.5 6t-1.5 7t-0.5 6.5t0.5 7t1 7t1.5 8t1.5 7q15 71 16 90q3 34 -13 46.5t-44 -1.5q-13 -6 -84 -45q-25 -20 -29 -33q-15 -38 -18 -78 q-4 -28 -11 -96t-14 -104q-15 -82 -15 -211q0 -29 1 -60v-9q0 -34 -7 -76q-8 -46 -14.5 -71.5t-23.5 -82.5q-3 -16 -25 -25q-25 -7 -57.5 14t-38.5 48q-3 7 -6.5 15.5t-8 19t-6.5 14.5q-50 89 -50 186q0 11 1 21q2 14 1 30q0 35 -9 74q-17 65 -32.5 184t-24.5 162 q-2 12 -6 24.5t-6.5 20.5t-10 22t-10 18t-12.5 21t-11 19q-7 11 -16 14q-10 4 -26 4q-21 0 -52 -7q-55 -12 -74 -29q-51 -51 -59 -58q11 -23 11 -68q0 -23 -3 -51q-2 -23 -4 -68.5t-4 -68.5v-37q-7 -21 -10 -49q-3 -24 -3 -40q1 -4 1 -6z" />
<glyph unicode="v" horiz-adv-x="942" d="M6 1036q4 -8 15 -29t14 -32q6 -23 31 -135q10 -43 26 -129q2 -7 9 -27.5t8 -30.5q3 -17 8.5 -48.5t10.5 -57t11 -47.5q54 -208 94 -336q48 -144 173 -182q29 -7 114 -7q4 18 8 25q9 24 31 84t33 92q8 20 8 33q2 36 28 97t31 91q0 9 5 9q13 7 19.5 17t11 31t5.5 23 q3 8 11.5 22.5t11.5 22.5l68 121q11 21 28 49l25 35q8 18 35 70q8 16 26 53t27 57q4 7 4 18q0 5 -2 7q-15 10 -15 27q0 15 13 36v17h-35q-2 4 -5 12t-5 12q-12 -2 -23 -8q-15 -8 -29 -16t-30 -21t-24.5 -19t-27.5 -23.5t-23 -21.5t-26.5 -25.5t-23.5 -22.5q-16 -18 -37 -56 q-4 -7 -25.5 -49t-35.5 -65q-51 -98 -103 -191q-32 -77 -35 -86h-8q-10 30 -10 39q-2 50 -37 133q-8 20 -26.5 58t-22.5 47q-16 40 -42 112t-36 97q-2 5 -8.5 17t-10.5 21.5t-5 18.5q-2 10 -5 18.5t-9.5 17.5t-9.5 14t-13 14.5t-12.5 12t-15 13.5t-13.5 12q-18 16 -41 16 q-14 0 -31 -6q-27 -11 -33 -12q-32 -8 -49 -39z" />
<glyph unicode="w" horiz-adv-x="1781" d="M45 1036q17 31 49 39q6 1 33 12q16 6 31 6q23 0 41 -16q3 -2 10 -8.5t10 -9t9.5 -8.5t9.5 -9t8 -9t8 -10t7 -10.5t6.5 -12t5 -12t3.5 -13.5q1 -9 5 -18.5t10.5 -21t9.5 -17.5q10 -25 36 -97t42 -112q4 -9 22.5 -47t26.5 -58q35 -83 37 -133q0 -9 10 -39h8q3 9 35 86 q52 93 103 191q14 23 35.5 65t25.5 49q21 38 37 56q86 81 98 90l-2 4q17 31 49 39q14 4 27 10l12 6q11 6 23 8l2 -6q29 -4 41 -16q2 -2 9.5 -8.5t10.5 -9t9.5 -8.5t9.5 -9.5t8.5 -9.5t8.5 -10t7 -10.5t6.5 -12t5 -12t3.5 -13.5q1 -9 5 -18.5t10.5 -21.5t8.5 -17 q10 -25 36 -97t42 -112q5 -10 23 -47t26 -57q35 -83 37 -133q0 -9 10 -39h8q3 9 35 86q61 110 103 190q13 23 34.5 64t26.5 51q19 35 37 55q2 2 27 26.5t31 30t27 24.5t33 27t30.5 20.5t35.5 21.5q11 6 23 8q2 -4 5 -12.5t5 -12.5h35v-16q-13 -21 -13 -36q0 -17 15 -28 q2 -2 2 -7q0 -10 -4 -17q-9 -21 -27.5 -58.5t-25.5 -52.5q-30 -57 -35 -69l-25 -35q-22 -36 -29 -49l-67 -121q-3 -8 -11.5 -22.5t-11.5 -22.5q-1 -3 -5.5 -23.5t-11 -31t-19.5 -17.5q-5 0 -5 -8q-5 -30 -31 -91.5t-28 -97.5q0 -24 -8 -32q-4 -4 -15 -16t-17.5 -19.5 t-15.5 -23.5t-16 -36q-4 -8 -8 -24q-9 0 -28 -0.5t-29.5 -0.5t-27 1.5t-30.5 5.5q-63 19 -109 48.5t-63 51.5q-35 43 -51 98.5t-25 129t-18 108.5q-6 22 -11 47.5t-10.5 57.5t-8.5 49q-1 10 -8 30t-9 27l-16 84q0 -1 -1 -2t-1 -2l-25 -35q-23 -36 -29 -49l-67 -121 q-3 -8 -11.5 -22.5t-11.5 -22.5q-2 -5 -5 -18.5t-5.5 -21t-9.5 -16.5t-17 -15q-4 0 -4 -9q-5 -30 -31 -91t-28 -97q0 -13 -8 -33q-11 -32 -33 -92t-31 -84q-3 -7 -8 -25q-86 0 -115 7q-123 38 -172 182q-40 128 -94 336q-6 22 -11.5 47t-11 58t-8.5 48q-1 10 -8 30.5 t-8 27.5q-12 65 -27 129l-30 135q-3 11 -14 32t-15 29z" />
<glyph unicode="x" horiz-adv-x="1167" d="M27 51q31 -24 55 -24q7 0 14 2q54 15 99 51q15 13 30 28t33.5 34.5t28.5 29.5q82 78 127 119l20 -25q130 -184 131 -186q85 -126 162 -186q72 -58 143 -58q18 0 35 4q2 3 8.5 13t8.5 14.5t5 13t1 16.5t-8 17q5 -1 61 -18q22 96 27 120q32 -37 34 -39q20 -15 36.5 -39 t24 -39.5t21.5 -48.5q-1 4 -1.5 18t-2.5 21q-11 50 -40.5 91t-78.5 88q-3 3 -16 13t-18 17q-11 22 -25.5 45t-25.5 39.5t-31.5 43t-29 37t-34 40.5t-30.5 37q-8 9 -132 172q8 8 26.5 28.5t29.5 30.5q73 70 145 136q94 83 109 98q31 29 90 88q31 29 31 59q0 14 -7 29l-34 6 q9 14 26 34t19 23q-2 4 -9 11q-18 -8 -38 -21q-62 -46 -93 -71l-227 -205q-2 -2 -139 -133q-4 3 -8 7.5t-6.5 6.5t-4.5 2q-8 0 -15.5 1.5t-12.5 4t-11 8t-9 8t-9 10t-8 9.5q-102 114 -201 231q-35 43 -68.5 68.5t-76.5 32.5q-16 4 -33.5 5.5t-43 3.5t-38.5 3v-45 q21 -74 33 -102q87 -203 184 -342q15 -20 29 -43.5t30.5 -52t26.5 -44.5q-16 -24 -22 -30q-12 -12 -44 -46.5t-55.5 -58.5t-46.5 -45q-55 -55 -137 -123q-21 -16 -21 -29q0 -8 7 -14z" />
<glyph unicode="y" horiz-adv-x="880" d="M-20 -467q13 -124 67 -203q4 -5 16.5 -23.5t20.5 -25.5q7 -5 25 -20t27 -21.5t24 -14.5t28 -11q46 -20 97 -35q7 -1 14 -1l14 1q70 14 113 49q106 83 188 237q54 91 80 156q40 102 45 125q2 8 12 38t15 51t6 42q1 20 7 57.5t7 51.5q6 74 9 143q0 7 1 22t1 23q0 25 -1 76 t-1 78q0 32 18 41l18 12l-18 16q13 4 21 12t18 30t12 26q-67 -14 -80 -19q-17 140 -17 222q0 16 1 30q4 151 25 248q-3 0 -7 2q-7 -24 -22 -61q-2 2 -4 2q4 36 8 59q-22 -18 -23 -18q0 6 -1 14t-1 10h-10q0 2 -2 9.5t-2 9.5q-3 -1 -8 -9t-12 -6q-7 0 -17 -10q-2 -3 -5.5 -13 t-6.5 -17q-2 2 -12 2q-7 -21 -9 -23q-11 -15 -16 -36.5t-5.5 -34t-0.5 -40.5v-36q-1 -29 -4 -91.5t-4 -97.5q-6 -70 -6 -145q0 -26 -10 -39t-33 -23q-1 0 1 4q1 3 -1 1q-1 -2 -5 -7q-32 -39 -71 -52q-25 -9 -47 -9q-11 0 -22 2q-31 7 -61 24.5t-46 32t-25 25.5 q-12 12 -14 20q-3 6 -18 38.5t-21 51.5q-37 135 -74 355q-15 68 -49 110q-10 14 -18.5 14.5t-20.5 -10.5q-12 -12 -16 -45q-9 -56 -21 -149q-2 -22 -7 -71t-7 -75q-6 -46 -10 -137v-16q0 -134 47 -254q29 -74 84 -129q44 -34 141 -68q14 -2 47 -2q72 0 232 10q2 0 6 -2v-10 l-25 -147q-21 -112 -96 -238q-16 -25 -35 -51t-43 -56.5t-37 -48.5q-21 -34 -57 -53q-41 -27 -84 -30q-15 0 -37 12t-33 14q-2 0 -5 2.5t-3 3.5q-2 7 -7.5 25t-8 27t-5 24t-2.5 29v6q0 39 21 104q25 59 92 138q3 4 14 18t15 19.5t11 17t10 22.5t5 23q-3 5 -10.5 18t-11.5 19 q-24 -14 -31 -23l-119 -74q-3 -3 -17 -15t-19 -19q-53 -73 -68 -111q-19 -51 -19 -103q0 -13 1 -26z" />
<glyph unicode="z" horiz-adv-x="1228" d="M29 82q7 -23 22.5 -44t23.5 -28.5t38 -28.5t32 -22q6 -6 23 -6q88 15 108 22q70 20 99 25q54 10 104 10t114 -5t109 -5q27 0 91.5 6t93.5 6q22 0 43 -4.5t46 -17.5t37.5 -20t44.5 -29t40 -27q11 -7 25.5 -12.5t35.5 -12t31 -10.5l8 4v31q27 -3 57 -6q-1 6 -2 16 t-2.5 16.5t-5.5 10.5q-24 45 -61.5 78t-93.5 69q-110 65 -324 117q-103 28 -220 28q-40 0 -81 -3q-8 -1 -22 -2.5t-27 -3t-27 -1.5q52 44 117 50q9 1 47 12q44 16 51 18q42 12 138.5 36.5t146.5 39.5q77 22 134.5 51t102.5 78q86 95 86 205q0 16 -2 31q-17 127 -139 180 q-47 21 -71 31q-24 11 -66 21q-38 10 -72 9h-6q-23 -1 -66.5 -2t-66.5 -2q-3 0 -14.5 -1.5t-16.5 -0.5q-17 3 -33 5q-11 1 -23 1h-12q-19 -1 -31.5 -1t-35 -3.5t-30.5 -5t-34.5 -6.5t-31.5 -6q-45 -9 -91 -21.5t-113 -33t-91 -27.5l-78 -14q-14 -19 -14 -38q0 -23 20 -46 q36 -48 79 -48q11 0 22 3q4 0 12.5 -1.5t13.5 -1.5q65 -5 118 -5q84 0 140 12q99 18 166 18q35 1 82 1q95 0 240 -3q10 0 29.5 -5t29.5 -7q-51 -56 -133 -72q-78 -16 -201 -45q-213 -51 -286 -72q-83 -27 -144 -57q-66 -31 -133 -88q-59 -45 -78 -84q-39 -78 -39 -155 q0 -50 17 -101z" />
<glyph unicode="{" horiz-adv-x="573" d="M2 164q17 -83 80 -121q123 -84 258 -33q52 19 92 56q3 3 13.5 12t15.5 15.5t6 12.5q3 10 9 16t15.5 10.5t14.5 8.5l2 2q-3 9 5 19t9 14q-3 0 -11 2.5t-9 -0.5l-14 -1q-15 -1 -17.5 -1t-14 -2t-16.5 -4t-13 -6t-15 -10q-15 -11 -45 -37q-20 -20 -41 -25q-32 -10 -90 10 q-74 20 -91 86q-18 66 -2 117q12 40 56 92q36 43 67 111q26 54 -6 94q-26 30 -43 43q-14 14 -24 19q3 5 45 59q26 38 16 78q-3 13 -9.5 27.5t-11 22t-16 25t-14.5 21.5q-40 57 -56 100q-7 42 5 66q6 17 21 48.5t17 35.5q3 4 10 14.5t11 14.5q33 65 65 79q76 43 123 58 q35 8 68 -2q49 -15 78 16l6 8v19q5 6 5.5 10.5t-1 7.5t-5.5 7.5t-5 6.5q-9 9 -21 15q-19 13 -75 53q-3 1 -14.5 5t-18.5 7q-41 7 -62 -12h-8q-14 -3 -82 -31q-56 -33 -100 -77q-87 -81 -127 -213q-8 -42 -4 -64q0 -99 76 -195q15 -18 24 -36q11 -14 -2 -31q-15 -9 -29 -23 q-26 -16 -32 -18q-23 -13 -23 -35q0 -4 -3.5 -11.5t-4.5 -12.5q-13 -39 -14 -43q-2 -14 0 -17.5t14 -7.5q5 -1 10 -5t8 -5q-2 -3 -7.5 -8.5t-6 -8t1.5 -10.5q27 0 31 2q9 3 17 5t19.5 0.5t15.5 -2t20 -5t18 -4.5q-4 -6 -14 -31q-45 -53 -89 -116q-35 -45 -53 -99 q-31 -81 -8 -188z" />
<glyph unicode="|" horiz-adv-x="307" d="M63 975q1 -56 5.5 -171t5.5 -173q2 -143 2 -422v-629q37 8 49 55q0 4 4 11.5t6 7.5q21 -14 25 21q1 4 1 12q1 4 1 6q42 237 49 317q3 30 3 65.5t-1.5 79.5t-1.5 68q0 5 -3 19t-3 22q2 62 10 201q0 30 4 70q1 10 3.5 29.5t2.5 29.5t-3 27t-3.5 25t2.5 20q9 19 8.5 57 t3.5 57t0 67t5 66v11q-2 34 -5.5 106.5t-5.5 108.5q0 6 -0.5 16t-0.5 17.5v16t1.5 14t3.5 7.5q9 14 9.5 26t-2 17.5t-11.5 18.5q10 23 8 68.5t-12 68.5q-12 35 -18 72q-3 16 -6 47t-6 47q-1 5 -3 22.5t-3.5 24t-5 18.5t-9.5 19.5t-14 13.5q-7 3 -24.5 8t-27.5 9 q-15 -119 -16 -136q-12 -216 -16 -321q-11 -236 -11 -258z" />
<glyph unicode="}" horiz-adv-x="573" d="M-14 1335q1 -10 22.5 -24.5t32.5 -14.5q13 0 33 -4q7 4 24 10.5t25 10.5q55 32 129 4q46 -18 96 -33h12q37 0 43 -29q18 -105 -12 -172q-6 -13 -17.5 -39t-21.5 -46t-22 -37q-32 -42 -60 -111q-17 -43 -1 -101t53 -81q6 -3 15 -11t11 -10q-5 -8 -12 -22t-13.5 -24.5 t-13.5 -18.5q-15 -21 -17 -49t3 -50q12 -67 55 -125q19 -22 19 -51q7 -91 -4 -145q-2 -12 -11 -29q-46 -62 -133 -92q-34 -11 -51 14q-16 27 -31 64q-12 14 -7 66.5t3 66.5l2 4q4 12 4 16q-3 1 -7 4t-7.5 4.5t-7.5 2.5q-8 4 -13 4q-2 0 -26.5 -6t-36.5 -7q-16 -4 -18 -14 q-2 -14 -8.5 -40t-8.5 -40q-6 -86 33 -160q4 -3 14.5 -8t14.5 -8q44 -42 106 -51q82 -13 113 -10q66 8 98 24q49 25 66 29q18 5 24 24q29 78 29 134q-6 105 -6 108q-3 52 -31 100q-40 66 -59 103q-15 29 6 53l67 82q13 14 11 16q-5 9 -3 12.5t6.5 11t4.5 13.5q-7 3 -25 17 q-4 2 -14 5t-14 5q-24 13 -37 25.5t-17 33.5q-7 28 17 64q16 28 69 98q7 10 22 28t19 23q29 32 39 62q37 119 -12 233q-24 48 -37 58q-109 90 -193 110q-93 19 -118 19q-82 -4 -125 -29q-39 -22 -56 -33q-20 -8 -28 -16q-11 -7 -6 -21z" />
<glyph unicode="~" horiz-adv-x="675" d="M37 563q-10 -38 4 -61q8 -19 25 -19q16 3 34 21q4 3 9 26q13 53 32 62q69 40 111 0q11 -11 38.5 -29.5t39.5 -32.5q32 -37 67 -51q80 -43 135 17q45 50 50 57q4 5 14 47q1 1 4.5 1.5t6 2t3.5 4.5q5 6 12.5 28t16.5 28q2 2 2 6l-8 14q1 5 2.5 11t4 14t3.5 14l-6 3 q-5 2 -6 1q-33 -4 -47 -18q-27 -24 -68 -68q-29 -29 -55 -31q-8 -1 -24.5 0.5t-22.5 1.5q-39 9 -60 47q-30 55 -75.5 81.5t-96.5 7.5q-74 -23 -114 -91q-20 -36 -31 -94z" />
<glyph unicode="&#xa1;" horiz-adv-x="327" d="M27 225q2 37 5 112.5t5 113.5q3 20 7 58t7 58q2 15 14 102t17 134q22 138 27 196v15q-4 8 0 21.5t6.5 19.5t9.5 18.5t10 18.5q6 9 21 27t22 28q3 -4 13 -12.5t14 -12.5l3 6q3 7 5 11q1 -6 4 -16.5t4 -16.5q12 4 17 4q2 -2 2 -4q-4 -33 2 -51q6 -17 -2 -41 q-5 -15 -6.5 -33.5t-0.5 -29.5t3.5 -35t3.5 -31q4 -33 -2 -58q-9 -29 0 -63q6 -24 0 -47q-2 -1 -1 -13.5t1 -13.5q1 -5 1.5 -15t1.5 -18.5t3 -15.5q4 -19 3.5 -29t-3 -28.5t-2.5 -28.5q0 -4 -6 -16q-17 -31 -21 -43q-1 -17 -2 -54t-2 -55v-10q-2 -23 -10.5 -86.5 t-10.5 -97.5q-3 -13 -4 -27t-1 -31t-1 -26v-9q-3 -12 -11 -35.5t-11 -35.5q-4 -11 -11.5 -19t-18.5 -16t-15 -12q-1 -4 -7.5 -4.5t-9.5 2.5q-31 6 -59 16q-4 19 -8 57q-12 111 -6 172zM111 1395q0 1 6 37q2 11 10 16t18 2q37 -6 66 20q1 -4 2 -11.5t2 -10.5q5 -1 15 -2 t14 -2q20 -9 28 -29q1 -1 4 -8.5t4 -9.5t3.5 -8.5t3 -9t2 -8t1.5 -9.5t0.5 -9t-0.5 -10t-3 -10v-4q8 -9 9.5 -18t-0.5 -15t-7.5 -16t-7.5 -14q-12 -21 -36 -27t-46 6q-18 12 -68 43q-1 0 -8 15z" />
<glyph unicode="&#xa2;" horiz-adv-x="1228" d="M-6 406q-6 143 29 262q4 18 26 73q49 122 154 207q36 29 102 43q13 2 37 8.5t37 8.5q4 1 15.5 1.5t32.5 1t36 1.5l6 137q1 17 6 51.5t6 42.5q5 -1 12.5 -3t13 -3.5t9.5 -3.5q4 -3 7.5 -6.5t5.5 -8.5t3.5 -9t3 -11t2 -10.5t2 -12.5t1.5 -12q2 -11 4 -32t4 -33q0 -2 12 -49 q4 -7 8 -33l60 2h86q74 0 110 -68q22 -46 -16 -82q-12 -10 -27.5 -16.5t-36.5 -12.5t-30 -10q-19 -6 -76.5 -6.5t-71.5 -1.5l4 -110v-9q-6 -12 -2.5 -45t0.5 -47q-4 -12 -3.5 -40t-4.5 -40q-3 -9 -2.5 -14.5t2.5 -17.5t2 -19q0 -5 -4 -41q-2 -14 -2 -47q-4 -47 -8 -141 q0 -5 2 -15t2 -14v-39q45 -6 64 -3.5t34 14.5q12 8 34 26t34 25q70 44 110 63q6 6 19.5 4t18 -3.5t17.5 -8l17 -8.5q8 -4 27 -23q0 -14 -4 -18q-14 -22 -50 -96q-4 -8 -11 -16.5t-17.5 -20t-14.5 -15.5q-12 -6 -14 -8q-9 -17 -24 -32.5t-23.5 -22t-34 -21.5t-30.5 -18 q-16 -8 -43.5 -13t-34.5 -7q-18 -6 -19 -7q-5 -10 -69 -14q-3 -20 -10.5 -55t-10.5 -51v-8t-0.5 -8t-1.5 -7.5t-3 -5t-5.5 -2t-7.5 3.5q-6 -10 -6 -14q-9 -30 -35 -39v184q-57 3 -62 8q-13 14 -31 23t-29 12t-37.5 7.5t-33.5 6.5q-74 16 -141 80q-125 119 -131 312z M355.5 291.5q0.5 -18.5 3 -30t7 -24t13 -19.5t20.5 -9l60 -10v12v295q-1 41 -4 121t-4 118v7q-49 -64 -66 -117q-6 -18 -11 -39.5t-10 -49t-8 -42.5q0 -4 2 -6q6 -17 6 -37t-3 -44t-3 -36q0 -8 -1 -28t-1.5 -31.5t0 -30z" />
<glyph unicode="&#xa3;" horiz-adv-x="1126" d="M-18 20q57 -18 67 -20q117 -30 141 -33q81 -10 248 -18q219 -15 273 -17q48 -2 149 2q57 3 131 13q8 1 33.5 5t33.5 4.5t34 -1.5q20 -5 24 8q-5 5 -24 8.5t-27 14.5q31 3 47 8q1 2 2 6t2 7t2 5l-35 25q6 2 16 4.5t13 3.5l2 4l-92 31q-34 10 -80 10.5t-80 -2.5 q-152 -7 -391 4q-6 0 -22 4q-5 228 38 525q66 4 86 4q86 0 129 2q39 0 116 1t116 1q2 0 12 3.5t17 4.5l-39 20q20 8 24 9q0 4 -1 9.5t-1 8.5l35 6q-6 12 -25.5 14t-23.5 15l37 6q0 1 1 3.5t1 4.5q-9 3 -31 13.5t-35 13.5q-70 20 -178 16q-64 0 -190 -4q-17 0 -37 4 q-1 2 -2 4.5t-1.5 3.5t-0.5 2q0 11 2.5 68.5l3.5 80.5t5.5 65.5t10.5 76.5q22 112 100 187q20 20 37 20q92 3 158 -20q24 -9 27 -33q2 -16 5 -50t5 -51q1 -9 10 -49l-16 -32q12 2 35 2l-13 -103q27 3 45 6q2 13 9.5 46.5t9.5 52.5q3 20 18 24q17 4 21 31q13 74 -29 164 q-37 78 -104 115t-154 28q-71 -6 -129 -26q-84 -26 -143 -105q-53 -65 -88 -145q-54 -131 -68 -328q-4 -28 -4 -43q-60 -22 -82 -49q38 -20 76 -41q-1 -37 -4 -106t-4 -101q-5 -200 -5 -238q0 -50 -30 -73q-90 -79 -162 -97q-42 -10 -57 -43z" />
<glyph unicode="&#xa4;" horiz-adv-x="1228" d="M93 1127q0 4 7 6l15 3t13 3t7.5 4t3.5 6.5t-4.5 10t-11.5 16.5q-14 17 -8 26q-4 10 10 11q7 0 16 -3l90 -28h2q-10 0 3 -8q25 -19 49.5 -38.5t38.5 -29.5l53 53q85 70 209 55q8 -2 24 -4t25 -4q42 -10 84 -10q3 0 12.5 -0.5t13.5 -1t12 -1t12.5 -2t11.5 -3.5t12 -5 t11 -7.5t11 -10.5q4 -6 33 -10q19 -11 29 -31l10 -34q18 11 53 32q8 4 12 8q16 15 32.5 22t27.5 8t32 1l3 -4q-1 -4 -5 -14.5t-4 -16.5q-5 -26 -28 -55q-72 -59 -95 -70l13 -38q4 -16 6 -33t3.5 -40.5t2.5 -35.5v-18q23 -40 26 -92.5t-3 -90.5q-3 -53 -11 -92q-2 -4 -8 -15 t-8 -18l-8 -14q2 -2 4 -2q53 -15 90 -37q14 -10 26 -18l2 -2q-9 6 4 -5l15 -12q7 -3 18 -14q29 -16 49.5 -36.5t26.5 -31.5t21 -39q-4 -2 -4 -6q-36 4 -43 2q-44 0 -95 23q-26 15 -39 17t-34 18q-14 13 -42.5 32.5t-37.5 26.5l-6 4q-14 -18 -27 -28q-25 -25 -65 -33 q-6 -1 -17.5 -5t-17.5 -6t-20 -8t-23 -8q-8 -3 -16 -4t-18.5 -1t-16.5 -1q-160 -9 -289 59l-23 17q-12 -11 -42 -34t-52 -42q-16 -14 -16 -7q0 8 -1 8q-2 -1 -8 -5q-23 -19 -33.5 -24t-26.5 -7.5t-32 -7.5q-19 -11 -33 -2q-4 -1 -6.5 2t-2 9t4.5 13q6 11 21.5 35.5 t21.5 36.5v17l121 86q1 0 3.5 1t4.5 1q-24 39 -36 67q-30 62 -50 191q-1 13 3 41.5t4 40.5q0 3 -1 14.5t0 19.5t5 13q5 7 6 20t2 17q10 30 29 61q4 12 20 37q-45 25 -74 51q-10 8 -41 25q-47 25 -48 33zM422 707q2 -16 11.5 -47t12.5 -46q3 -18 12.5 -33.5t27.5 -36 t24 -28.5l4 -7q3 -7 9 -14t16.5 -14.5t29.5 -11.5t43 -2q14 1 36 -3.5t39 -4.5t32 12q4 3 13 10t12.5 10t9 9t9.5 12.5t7 15.5q22 64 16 129q-10 65 -10 115q-3 23 -12 131q-3 7 -22.5 54.5t-28.5 76.5q-23 51 -51 47q-30 -5 -50.5 -15t-27 -19t-11 -17.5t-6.5 -9.5 q-17 -33 -43 -62q-36 -45 -47 -77l-24 -52q-34 -58 -31 -122z" />
<glyph unicode="&#xa5;" horiz-adv-x="1228" d="M-92.5 1372q-3.5 6 0 10.5t12.5 8.5q3 1 18.5 7.5t20.5 8t18 6t20 5.5t18.5 2t21.5 -0.5t20 -4.5q16 -6 52 -24q5 -3 12 -9.5t12 -9.5q133 -72 215 -121q57 -31 112 -74t126 -107.5t102 -90.5l25 -16q10 17 28 50.5t27 49.5q100 200 164 319q29 55 84 138q2 2 13 4t15 4 q5 1 13.5 4t13.5 4l8 -57q7 0 13 -2q2 5 9 18.5t9 20.5q8 0 10 2q1 -11 5 -42.5t3 -48.5q-9 -100 -59 -190q-6 -11 -54.5 -102t-70.5 -140q-30 -70 -92 -250q-15 -45 -18 -53h69q6 0 18.5 -1t18.5 -1h178q4 -4 4 -18q-34 -11 -55 -15q16 -3 26.5 -1t21.5 1t20 -8 q-7 -2 -22.5 -7t-25.5 -7q-73 -12 -114 -14l-174 -5q-9 -19 -30 -55.5t-24 -42.5h117q6 0 18.5 -1t18.5 -1h178q4 -4 4 -18q-34 -11 -55 -15q16 -3 26.5 -1t21.5 1t20 -8q-7 -2 -22 -7t-25 -7q-81 -13 -115 -15l-232 -4q-30 -55 -92.5 -163t-93.5 -164q-32 -53 -69.5 -82 t-92.5 -29q-1 0 -49 -6q5 49 10 59q20 52 59.5 147t47.5 115l49 121q-16 -1 -46.5 -2t-45.5 -2q-92 -8 -197 23q-14 3 -17 5.5t-9 14.5q11 2 41.5 8.5t52.5 10t41 4.5l211 8q18 45 45 104q-45 0 -127 -4q-92 -8 -197 23q-13 3 -16.5 5.5t-9.5 14.5q11 2 41.5 8.5t52.5 10 t41 4.5l192 8q-28 16 -54 34.5t-53.5 44t-44.5 41t-47.5 50.5t-40.5 46.5t-44.5 54t-40.5 49.5q-28 34 -60.5 77.5t-54.5 74t-60 84t-55 77.5q-7 8 -24.5 21.5t-20.5 15.5q-7 7 -9 9.5t-5.5 8.5z" />
<glyph unicode="&#xa6;" horiz-adv-x="307" d="M106 174q0 -14 2.5 -39t2.5 -39q2 -33 2 -98v-143q15 0 22 14q4 2 6 2q9 -2 13 10q22 64 24 72v49q0 1 -2 4.5t-2 5.5l6 45v17q4 8 4 12q0 3 -2.5 10t0.5 8q4 4 3.5 13t2.5 12q2 4 -0.5 15.5t2.5 15.5v4q-1 7 -3 23.5t-3 23.5q0 16 2 16q9 7 -2 15q6 5 4.5 15t-6.5 15 q-1 3 -4 8.5t-4 8.5q-5 20 -6 22q-5 20 -16 23q-15 0 -25 4q-8 -20 -8 -31q-1 -14 -4 -39t-4 -37q-5 -40 -5 -57zM127 1210q0 -14 2 -39t2 -38q2 -33 2 -97v-143q17 0 23 12q4 2 6 2q3 -1 5.5 0.5t3.5 3t2 4t1 3.5q3 9 12.5 33t12.5 38v49q0 1 -2 5.5t-2 5.5l6 47v14 q1 2 2 5l1.5 4.5t0.5 2.5q0 3 -1.5 7.5t-2 6.5t1.5 5q4 4 3.5 13t2.5 13q2 4 -0.5 15.5t2.5 15.5v2q-1 8 -3 26.5t-3 22.5q0 15 2 15q3 2 4.5 4t1 3.5t-1 2.5t-3 3t-3.5 3q5 4 4 14t-6 17l-8 14q-5 20 -7 23q-5 19 -16 24q-15 0 -25 2q-8 -20 -8 -31q-1 -15 -4 -39t-4 -34 q-4 -36 -4 -60z" />
<glyph unicode="&#xa8;" horiz-adv-x="716" d="M2 1317q3 -5 8.5 -20.5t9.5 -24.5q16 -26 82 -64q19 -12 37 -8q20 4 78 23q37 15 37 37q0 2 4 8t4 8q34 44 -12 84q-3 4 -11.5 12t-11.5 14q-21 28 -61 33q-3 1 -10.5 5.5t-10.5 5.5l-20 10q-12 4 -55.5 -13t-46.5 -28q-4 -11 -21 -82zM441.5 1312q-0.5 -8 2 -16.5 t4.5 -15t7 -15t8 -13.5t9.5 -14t8.5 -13q18 -30 78 -43q70 0 129 45q13 9 19.5 27.5t11.5 23.5q-10 12 -25 35q-11 11 -12 14q-20 41 -78 51q-6 1 -20 2.5t-22 2.5t-19 4.5t-19 9.5q-2 2 -7.5 2t-11.5 -1t-7 -1q-48 -42 -54 -68q-2 -9 -2.5 -17z" />
<glyph unicode="&#xa9;" horiz-adv-x="1228" d="M-188 514q3 -18 8 -54t8.5 -56.5t10 -48.5t14.5 -50q54 -148 198 -276q207 -173 484 -170q280 -6 479 178q188 166 233 354q31 122 31 168q0 25 7 69.5t9 69.5t-8 70q-8 31 -8 92q0 5 -1.5 14.5t-2 14.5t0 12t3.5 12q12 20 9 34.5t-25 27.5q-6 3 -11 16t-2 19q10 14 8 25 t-18 22q-6 6 -7.5 26t-2.5 23t-3 10.5t-4 12.5t-5 8q-47 79 -70 106q-46 71 -82 90q-31 21 -96 50.5t-84 39.5q-25 15 -92.5 25t-94.5 35q-9 5 -41 0q-64 0 -82 -4q-7 -1 -35 -4t-38 -4t-33.5 -4.5t-36.5 -7t-30.5 -10t-32.5 -13.5q-130 -51 -285 -195q-163 -150 -236 -356 q-71 -197 -36 -371zM39 440q0 124 12 244q8 160 139 317q38 42 112.5 116t103.5 104q7 3 71 54.5t68 53.5q22 14 65.5 25t69.5 8q58 -6 73 -10t42 -19q129 -63 196 -188q67 -127 86 -240q3 -16 4.5 -34t2.5 -32t1.5 -35.5t0.5 -32t-1 -36t-1 -33t-1.5 -36t-1.5 -33.5 q-13 -133 -55 -293q-12 -55 -70 -156q-35 -51 -104 -59q-86 -7 -170 -21q-297 6 -381.5 14.5t-134.5 43.5q-11 16 -35 37q-5 5 -41 53q-25 25 -37 61t-13 58t-1 69zM268 604q3 -152 101 -250q54 -47 110 -63q6 -1 25.5 -5t28.5 -6.5t23 -9.5t24 -18q19 -15 32 8q1 1 7 2t8 2 t24.5 5.5t34.5 11.5q8 6 25 15.5t26 15.5t20 17t17 25q2 4 10 8q3 4 11.5 12t14 15t7.5 12q5 9 12 25t13.5 28.5t13.5 22.5q2 4 2 17q-16 16 -20 18q-4 1 -13 5.5t-13.5 6.5t-14.5 3.5t-15 -3.5q-10 -5 -84 -49l-24 -20t-29 -23q-39 -28 -65 14q-34 64 -31 136q0 10 2 29.5 t2 35t-4 29.5q-2 2 -2 4q2 8 8.5 47t13.5 57q5 16 39 86q25 49 86 70q6 2 19 5.5t20.5 6t17.5 7t17 10.5q29 29 12 65q-29 56 -86 56h-67q-14 -1 -62 -11q-6 -1 -57 -12q-52 -11 -80 -35q-81 -68 -117 -164q-18 -42 -20 -57q-29 -99 -23 -207z" />
<glyph unicode="&#xab;" horiz-adv-x="921" d="M41 498q43 -46 59 -78q15 -29 38 -57.5t41.5 -46t51.5 -46.5q18 -16 53.5 -44.5t53.5 -43.5q33 -27 68 -35q23 -6 32 5q-4 7 -1 11t16 5q2 0 8 7t14 7q16 4 29 4q-21 26 -21 31q-1 7 -2.5 12t-5.5 10t-5.5 7t-8.5 8t-8 6q-41 25 -115 80q-58 44 -150 117q-21 14 -41 24 q8 5 52 33.5t67 44.5q91 54 135 105q3 3 8 8.5t8.5 9.5t6.5 6q4 3 44 40.5t58 55.5q6 7 9 16t4 19.5t2 14.5q0 6 -5.5 13.5t-15.5 6.5l-2 2q-5 19 -22 10q-79 -34 -107 -57l-162 -137q-76 -72 -121 -127q-3 -2 -8 -7.5t-8.5 -8.5t-9 -6.5t-11 -5t-12.5 -1.5q-16 0 -16 -18z M373 498q49 -62 59 -78q20 -41 51 -74.5t80 -75.5q17 -16 52.5 -44.5t52.5 -43.5q34 -27 71 -35q18 -7 33 5q-6 14 10 16q3 0 10 7t11 7q20 4 28 4q-18 29 -18 31q0 5 -0.5 9t-3 7.5t-3.5 6t-5 6t-5.5 4.5t-7 5t-6.5 5q-87 58 -114 80q-72 52 -150 117q-6 5 -20 13t-19 11 l117 78q90 53 137 105q5 4 12 13t11 11q3 3 102 96q7 10 9.5 29.5t2.5 20.5q0 5 -5.5 13t-14.5 7l-2 2q0 11 -8 13t-15 -3q-73 -32 -106 -57q-29 -26 -86 -73.5t-76 -63.5q-60 -55 -123 -127l-7 -7l-8.5 -8.5t-8 -6.5t-11 -5.5t-12.5 -1.5q-17 0 -14 -18z" />
<glyph unicode="&#xac;" horiz-adv-x="1024" d="M45 547q4 20 21 49q7 10 26 14q24 2 52 3t62 1.5t52 1.5q62 6 131 9q12 0 35 -2t33 -2q15 0 108 -5q21 -1 66 -2t67 -2q123 -4 158 -10q69 -4 100 -10q17 -3 17 -19v-77q1 -20 -1 -114.5t-1 -111.5q-4 -16 -8 -20q-22 -4 -25 12q-2 0 -4 4q0 -2 -8 -18q-1 5 -4.5 11.5 t-3.5 10.5l2 203q2 22 -2.5 27t-30.5 6q-19 2 -59.5 4t-59.5 4q-29 1 -81 2.5t-94.5 2.5t-80.5 1h-137q-25 0 -75 -2t-75 -2q-66 -5 -84 -2q-2 0 -17.5 1t-27 2.5t-25.5 4.5t-21 9.5t-5 15.5z" />
<glyph unicode="&#xad;" horiz-adv-x="532" d="M11.5 477q0.5 -11 17.5 -26q6 -2 18 -11q32 -14 72 -14q102 -12 145 -16q43 -2 133 -2q21 -2 62 2q21 0 33 20l20 37q8 17 -4 35q-17 26 -51 26q-94 4 -142 4q-13 2 -79 7q-14 0 -41 1t-41 1q-44 0 -64 -2q-45 -4 -65 -33q-14 -18 -13.5 -29z" />
<glyph unicode="&#xae;" horiz-adv-x="1228" d="M-188 514q3 -18 8 -54t8.5 -56.5t10 -48.5t14.5 -50q54 -148 198 -276q207 -173 484 -170q280 -6 479 178q188 166 233 354q31 122 31 168q0 25 7 69.5t9 69.5t-8 70q-8 31 -8 92q0 5 -1.5 14.5t-2 14.5t0 12t3.5 12q12 20 9 34.5t-25 27.5q-6 3 -11 16t-2 19q10 14 8 25 t-18 22q-6 6 -7.5 26t-2.5 23t-3 10.5t-4 12.5t-5 8q-47 79 -70 106q-46 71 -82 90q-31 21 -96 50.5t-84 39.5q-25 15 -92.5 25t-94.5 35q-9 5 -41 0q-64 0 -82 -4q-7 -1 -35 -4t-38 -4t-33.5 -4.5t-36.5 -7t-30.5 -10t-32.5 -13.5q-130 -51 -285 -195q-163 -150 -236 -356 q-71 -197 -36 -371zM39 440q0 124 12 244q8 160 139 317q38 42 112.5 116t103.5 104q7 3 71 54.5t68 53.5q22 14 65.5 25t69.5 8q58 -6 73 -10t42 -19q129 -63 196 -188q67 -127 86 -240q3 -16 4.5 -34t2.5 -32t1.5 -35.5t0.5 -32t-1 -36t-1 -33t-1.5 -36t-1.5 -33.5 q-13 -133 -55 -293q-12 -55 -70 -156q-35 -51 -104 -59q-86 -7 -170 -21q-297 6 -381.5 14.5t-134.5 43.5q-11 16 -35 37q-5 5 -41 53q-25 25 -37 61t-13 58t-1 69zM352 944q0 -107 4 -160q5 -110 15 -245q2 -19 8 -99.5t10 -105.5q1 -16 9.5 -43.5t9.5 -34.5q13 -19 16 -20 q2 -1 12 -3.5t13 -3.5t11.5 -2.5t13 -1.5t11.5 0.5t13 2.5t12 5q58 39 55 99v117q0 34 -8 104q4 -4 11 -11.5t11 -12.5t9 -12t8 -13q8 -14 23.5 -58t32.5 -80t34 -49q5 -4 18 -13t19 -15q60 -49 143 -58q2 13 10.5 14t17 -2.5t15.5 1.5q-37 18 -50 33t-9 38q-32 32 -61.5 87 t-60.5 128.5t-42 96.5q26 17 33 26q3 3 14.5 12t14.5 15q4 9 12.5 26t14 31t7.5 29q1 12 7 36.5t6 26.5q0 1 1.5 9.5t0.5 13.5q-3 43 -21 72q-4 10 -31 94q-5 9 -10 12q-26 17 -37 21q-6 2 -34.5 16t-45.5 16q-10 3 -61 0.5t-63 -2.5q-43 2 -92.5 -43.5t-49.5 -93.5z M494 885q-9 44 24 82q5 5 33 10q20 2 63 2q17 0 27 -10q49 -49 64 -70q23 -37 6 -84q0 -4 -1 -9t-2.5 -11t-2.5 -9q-16 -61 -87 -102q-9 -5 -21.5 -8t-30.5 -6t-29 -6q-17 78 -21 102q-15 72 -22 119z" />
<glyph unicode="&#xaf;" d="M25 1341q6 -14 8.5 -16.5t13.5 -5.5q92 -32 162 -25q66 6 201 6l256 7q32 2 94 14q7 2 19.5 7t19.5 7q-9 10 -25 10t-31 1q23 5 45 14q0 14 -4 18h-145q-5 0 -15.5 1t-15.5 1q-14 0 -38.5 0.5t-44.5 0.5t-36 -1q-127 -4 -352 -16q-17 -1 -35 -4.5t-42 -10t-35 -8.5z" />
<glyph unicode="&#xb0;" horiz-adv-x="409" d="M45 1157q11 -44 55 -76q1 0 6 -3.5t9 -4.5q2 -1 7 -2t7 -2t6 -2t6 -2q12 -6 25 -6q8 1 16 3.5t19 6.5t16 6q1 1 4.5 2.5t5.5 3.5q16 12 25 21q2 2 7 6l7.5 6t6.5 6.5t6.5 7.5t6 7t5.5 8.5t4 9.5q0 1 1 3t1 3q3 3 8.5 9.5t9.5 12t7 9.5q8 14 26 53q5 5 2 12q-5 9 -4 11 q0 14 -18 28l-19 19q-2 6 -8 12q-26 29 -65 29q-51 -6 -58 -8q-12 -4 -22 -9q-13 -3 -23 -10l-12 -8q-3 0 -7 -4.5t-5 -5.5l-21 -21q-27 -30 -37 -59q-15 -36 -6 -72zM129 1145q1 3 1.5 12t1.5 15.5t5 11.5q2 2 8 12.5t11 15.5q16 19 37 25q12 6 20 8q13 10 31 10l26 9h9 q11 0 8 -13q-5 -8 -12.5 -24.5t-8.5 -18.5q-6 -8 -16 -20t-12 -14q-4 -6 -13.5 -17.5t-13.5 -17.5q-16 -19 -37 -31q-13 -5 -22 4t-21 29q-2 0 -2 4z" />
<glyph unicode="&#xb1;" d="M55.5 569q-4.5 -9 1.5 -20q17 -31 47 -37q16 -5 53.5 -17.5t67.5 -20t58 -9.5q2 0 32 -10v-31q3 -26 23 -176q4 -30 20 -37q2 2 43 31q12 9 21 18q28 32 39 98q12 80 12 82q210 20 256 25q10 8 33 31q-5 5 -2 12q7 26 -23 41q-33 22 -37 26q-44 34 -112 27h-107 q-8 78 -8 105q0 14 -9 28.5t-20 20.5q-20 12 -45 45l-4 8q-11 -2 -15.5 2t-5 14.5t-1.5 12.5q0 1 -0.5 2t-2 4.5t-3.5 7.5q-14 -28 -15 -29q0 -2 -4 -2q-4 16 -4 25q-22 0 -22 -23q-2 -12 -13 -96l-6 -115q-7 0 -17 -1t-14 -1q-59 0 -86 -2q-40 -3 -71 -14q-28 -16 -43 -16 q-12 0 -16.5 -9zM98 82q17 -23 23 -25q32 -16 63 -24q33 -10 84 -6q26 3 75.5 6t64.5 4q11 0 22.5 1t25.5 2.5t23 2.5q118 11 125 12q47 6 88 17q11 2 35 12q-9 5 -31 14q5 10 14 32t15 34q-26 9 -55 12h-84q-16 -1 -46.5 -3t-45.5 -3q-88 -2 -207 -20q-23 -4 -63 -14 t-54 -13q-44 -7 -72 -41z" />
<glyph unicode="&#xb4;" horiz-adv-x="471" d="M31 1149q8 -20 20 -23q71 -10 90 -6q107 23 162 103q6 9 17.5 23.5t15.5 19.5q5 7 17 26q35 51 30 51q-2 0 -8 -6q-7 -6 -3 9q4 13 23 59q33 81 37 104q-5 1 -10.5 15.5t-20.5 9.5q0 10 2 31t3 28q-33 -11 -37 -14q-65 -52 -74 -61q-42 -43 -116.5 -126.5t-94.5 -105.5 q-22 -25 -47 -69q-17 -25 -6 -68z" />
<glyph unicode="&#xb7;" horiz-adv-x="450" d="M41 641q-7 -56 45 -125q59 -103 186 -76q13 2 34.5 8.5t33.5 8.5q47 6 53 35q36 107 -35 206q-13 21 -31 35t-45 22.5t-43 12t-51 8.5q-21 5 -38 -1.5t-37.5 -23.5t-28.5 -22q-43 -23 -43 -88z" />
<glyph unicode="&#xb8;" horiz-adv-x="409" d="M63 -172q0 3 3 11t4 11q4 15 16 15l18 -15q3 -2 5 -4l12 -20q5 -9 14 -45q9 -27 21 -35q16 -8 24 -10q8 -3 29 8q22 12 41 43q11 15 8 39t-18 37q-8 8 -9 10q-2 12 -18 12q-17 0 -23 11q0 2 -1 3t-2.5 1.5t-2.5 1.5q-4 3 -13 8t-13 8q-2 1 -11 10q-5 9 -1 17.5t14 11.5 l47 18q5 1 14 11l27 26q44 -3 88 -12q0 -6 -2 -8q-5 -10 -10 -15q0 -2 -2.5 -4.5t-2.5 -3.5q-10 -19 -24 -28q-2 -2 -3.5 -4t-3.5 -5.5t-3 -5.5l20 -14l8 -8l25 -35q12 -21 18 -45q4 -16 4 -21q7 -30 -4 -51q-1 -4 -10 -31q-2 -1 -5 -4t-6 -5t-7.5 -4t-8.5 -3q-6 0 -10 -8 q-12 -18 -33 -21l-8 -4q-4 8 -20 4q-36 -6 -37 -6q-84 -9 -131 62q-28 35 -17 96z" />
<glyph unicode="&#xbb;" horiz-adv-x="942" d="M23 844q10 -31 12 -33q8 -10 42 -56.5t54 -70.5q21 -23 49 -49t45 -40.5t57 -46.5l50 -40q21 -13 35 -29q-20 -15 -23 -18q-12 -9 -61 -45t-74 -58q-96 -76 -168 -213q-7 -12 4 -18q42 -18 76 16q6 7 25.5 28t27.5 29.5t25.5 27t29.5 29.5t28.5 25.5t32 26.5t32.5 23 q41 27 133 102q15 10 22 17q14 27 45 22q-8 47 -14 72q-4 3 -20.5 10t-24.5 14l-111 88q-12 9 -33.5 28.5t-33.5 29.5l-131 98q-41 25 -64 35q-7 3 -13.5 4.5t-15 0t-11 -1.5t-14.5 -3.5t-13 -3.5zM410 844q10 -31 12 -33q11 -14 44 -59t52 -68q21 -23 49 -49t45 -40.5 t57 -46.5l50 -40q18 -9 35 -29l-23 -18q-15 -12 -62 -47t-73 -56q-96 -76 -168 -213q-7 -12 4 -18q42 -18 76 16q2 2 20 21.5t21.5 23.5t20 21t22.5 23l20.5 20.5t23.5 22t22.5 19t25.5 20.5t25 18q41 27 133 102q16 8 22 17q17 27 45 20q2 2 0 2q-9 59 -14 72 q-5 3 -20.5 10t-24.5 14q-19 15 -55 44.5t-54 43.5q-14 10 -36.5 30t-32.5 28q-27 22 -131 98q-31 22 -64 35q-7 3 -13.5 4.5t-15 0t-11 -1.5t-14.5 -3.5t-13 -3.5z" />
<glyph unicode="&#xbf;" horiz-adv-x="614" d="M57 281q-11 -66 17 -111q11 -18 30.5 -51.5t26.5 -44.5q65 -98 193 -101q67 -3 138.5 49t94.5 128q2 9 2 61q-3 18 -20 18q-9 1 -16 -3.5t-9 -12.5q-1 -3 -2 -9t-2 -9q-3 -75 -82 -117q-14 -7 -22 -4q-15 2 -41.5 7t-38.5 7q-21 3 -29 25q-33 85 4 174q12 32 43 71 q19 25 57 68t52 61q8 10 18 31.5t14 28.5q4 6 13.5 23.5t15.5 25.5q1 3 4.5 7.5t3.5 6.5q4 16 13.5 44.5t15.5 52.5t8 47q3 100 -35 178q-15 30 -30 45q-45 45 -103 63q-10 2 -30.5 9t-36 10t-31.5 2q-69 0 -84 -2q-32 -5 -41 -10q-10 -6 -31 -21.5t-31 -21.5 q-41 -38 -47 -91q-2 -15 2.5 -43.5t4.5 -33.5q6 -6 16 -9q28 -14 48 -4.5t24 39.5q6 34 6 35q6 34 20 62q3 11 19 16q48 4 69 -6q46 -22 66.5 -69.5t5.5 -94.5q-30 -82 -59 -123q-11 -13 -36 -44.5t-40 -47.5q-4 -6 -14.5 -18t-16 -19t-12 -18t-10.5 -21q-1 -5 -7.5 -12 t-7.5 -8q-6 -9 -18 -26.5t-20.5 -31t-12.5 -26.5q-20 -60 -29 -131zM246 1393q7 -104 59 -156q26 -29 66 -63l24 14q70 61 58 153q-11 100 -95 119h-6q-20 12 -45 -6q-10 -13 -22 -16q-23 -5 -31.5 -14t-7.5 -31z" />
<glyph unicode="&#xc3;" horiz-adv-x="921" d="M4 -25q-8 -37 12 -57q34 -40 99.5 -29t91.5 60q70 144 98 225q17 38 33 82.5t36 102.5t29 83q3 8 10 15.5t13 7.5h248q24 -110 33 -174q17 -82 34 -205q4 -35 35 -65t66 -35q2 7 2 22.5t2 18.5q13 6 18 15t4.5 16t-4 20.5t-4.5 17.5q-2 23 -6.5 48t-10.5 54t-9 44 q-17 126 -46 351.5t-40 305.5q-27 215 -43 379q-14 53 -9 74q6 76 -38.5 116.5t-110.5 26.5q-8 -4 -21 -4q-61 6 -84 -57q-71 -165 -94 -244q-23 -64 -58 -181t-48 -157q-80 -265 -86 -287q-16 -61 -48.5 -184.5t-57.5 -220t-46 -185.5zM307 1659q-10 -30 4 -51 q9 -15 25 -15q17 3 35 17q3 2 8 22q13 42 33 51q69 32 110 0q10 -8 37.5 -23t40.5 -28q32 -28 68 -43q83 -32 135 15q35 32 49 47q4 6 14 39q1 0 7.5 2t7.5 4q5 5 12 23t16 24q2 2 2 4l-8 12q1 2 10 31l-6 3q-5 2 -6 1q-33 -4 -47 -14q-36 -28 -68 -56q-27 -24 -55 -26 q-8 -1 -24.5 0.5t-22.5 1.5q-36 6 -59 39q-30 44 -75.5 65.5t-96.5 7.5q-76 -20 -115 -75q-20 -29 -31 -78zM465 596q73 235 139 434q1 -14 4.5 -38.5t3.5 -37.5q3 -20 20.5 -139.5t26.5 -181.5q0 -22 -7 -29.5t-27 -7.5h-160z" />
<glyph unicode="&#xc4;" horiz-adv-x="880" d="M-27 -25q-3 -14 0.5 -31t12.5 -26q22 -26 60.5 -30.5t75.5 12.5t54 49q70 144 98 225q15 34 99 268q9 23 22 23h248q24 -110 33 -174q20 -100 35 -205q5 -35 35 -65.5t65 -34.5q2 7 2 22.5t2 18.5q13 6 18 15t4.5 16t-4 20.5t-4.5 17.5q-2 23 -6.5 48t-10.5 54t-9 44 q-17 126 -46 351.5t-40 305.5q-27 215 -43 379q-13 51 -8 74q6 76 -39 116.5t-111 26.5q-8 -4 -20 -4q-61 6 -84 -57q-74 -173 -95 -244q-23 -64 -58 -181t-48 -157q-80 -265 -86 -287q-16 -61 -48.5 -184.5t-57.5 -220t-46 -185.5zM213 1735q3 -6 7.5 -24.5t8.5 -27.5 q5 -9 11 -17.5t15 -16.5t14.5 -12.5t17.5 -13t16 -11.5q16 -12 35 -8q33 8 70 24q32 14 32 41q0 3 4 10t5 9q15 28 12 49.5t-25 44.5l-20 30q-19 31 -54 37q-4 1 -20 13q-3 1 -8.5 6t-9.5 6q-11 3 -50.5 -16t-42.5 -31q-11 -51 -18 -92zM434 596q73 235 139 434 q1 -14 5 -38.5t4 -37.5q3 -20 20.5 -139.5t26.5 -181.5q0 -22 -7.5 -29.5t-27.5 -7.5h-160zM704 1722q2 -12 2 -16t4.5 -15t6 -15t7 -14.5t7.5 -14.5q15 -30 57 -39q48 0 93 41q9 8 13.5 24t8.5 21l-18 30q-1 2 -4 7.5t-4 7.5q-13 35 -58 45q-5 1 -14 2t-15.5 2.5t-14 4.5 t-13.5 9q-2 1 -9.5 0.5t-9.5 -2.5q-1 -1 -9.5 -10t-10.5 -12l-7 -10.5t-7.5 -14t-3.5 -14.5q-3 -5 -1 -17z" />
<glyph unicode="&#xc5;" horiz-adv-x="880" d="M-29 -25q-3 -14 0.5 -31t12.5 -26q22 -26 60.5 -30.5t75.5 12.5t54 49q70 144 98 225q15 34 99 268q9 23 22 23h248q24 -110 33 -174q20 -100 35 -205q5 -35 35 -65.5t65 -34.5q2 7 2 22.5t2 18.5q13 6 18 15t4.5 16t-4 20.5t-4.5 17.5q-2 23 -6.5 48t-10.5 54t-9 44 q-17 126 -46 351.5t-40 305.5q-27 215 -43 379q-13 51 -8 74q6 76 -39 116.5t-111 26.5q-8 -4 -20 -4q-61 6 -84 -57q-74 -173 -95 -244q-23 -64 -58 -181t-48 -157q-80 -265 -86 -287q-16 -61 -48.5 -184.5t-57.5 -220t-46 -185.5zM354 1812l17.5 -49t21.5 -57 q3 -2 19.5 -19.5t27.5 -23.5q8 -5 15.5 -8.5t18 -6.5t16 -4.5t18.5 -3.5t16.5 -2.5t18.5 -2t16 -1.5q23 -3 43 13q37 37 57 67q24 37 9 62q-2 3 -2 24q-1 38 -18 58.5t-54 29.5q-5 4 -39 21q-39 22 -78 6q-1 -1 -13.5 -0.5t-14.5 0.5q-1 0 -11 1.5t-16 0.5 q-12 -3 -41.5 -47.5t-26.5 -57.5zM432 596q73 235 139 434q1 -14 5 -38.5t4 -37.5q3 -20 20.5 -139.5t26.5 -181.5q0 -22 -7.5 -29.5t-27.5 -7.5h-160z" />
<glyph unicode="&#xc6;" horiz-adv-x="1228" d="M-143 -25q18 77 151 590q6 22 86 287q12 37 48 155t59 183q23 79 94 244q23 63 84 57q3 0 9.5 2.5t10.5 1.5q71 -22 95 -39q4 2 16 2q30 0 100.5 -5.5t120 -5.5t70.5 11q21 16 78 6.5t77 -4.5q202 34 439 37q10 0 21.5 -5.5t25.5 -14.5t24 -13q8 -2 26 -9.5t21 -8.5 q6 -1 17 -2.5t18.5 -2.5t16.5 -4t16 -7q-27 -9 -47 -17q7 -1 12.5 -3.5t7.5 -2.5q-43 -28 -92 -70q-4 -2 -16 -2q-191 -7 -346 -20q-60 -7 -156 -37q-7 -1 -11.5 -14.5t-4.5 -24.5q1 -6 5.5 -30t4.5 -38q8 -145 10 -227q0 -37 -8 -127q70 8 152 21q79 17 221 -2h33 q40 0 51 -11.5t10 -52.5q-98 -25 -115 -31q-5 -2 -13.5 -16t-14.5 -18q-87 -33 -115 -37q-47 -6 -201 -15q-14 -2 -19.5 -6.5t-6.5 -17.5q0 -16 -3.5 -43.5t-3.5 -32.5q-24 -186 -32 -283q0 -17 1 -35.5t2.5 -40.5t2.5 -36q159 14 205 14q44 0 124.5 -6.5t102.5 -7.5 q19 -1 40.5 0t48.5 3t42 3q82 0 129 -8q-10 -7 -53 -33l33 -6q-4 -2 -8.5 -5.5t-8.5 -5.5l-8 -4q18 -2 49 -2q4 -8 4 -12q-2 -1 -32.5 -18t-47.5 -19q-403 -52 -460 -59q-21 -4 -93.5 -2.5t-91.5 0.5q-4 0 -9 -2t-11.5 -5.5t-9.5 -4.5q-9 -9 -11 -9q-77 9 -92 15 q-24 6 -35 20q0 -14 -2 -20q-35 4 -65.5 34.5t-34.5 65.5q-15 105 -35 205q-9 64 -33 174h-247q-6 0 -13 -7.5t-10 -15.5q-9 -25 -29 -83t-36 -102.5t-33 -82.5q-26 -74 -99 -225q-17 -32 -54 -49t-75.5 -12.5t-60.5 30.5q-20 20 -12 57zM317 596h160q20 0 27.5 7.5 t7.5 29.5q-9 62 -26.5 181.5t-20.5 139.5q0 13 -3.5 37.5t-4.5 38.5q-80 -241 -140 -434zM633 985l6 -70v33q0 19 -6 37z" />
<glyph unicode="&#xc8;" horiz-adv-x="1228" d="M207 279q2 -86 10 -259q4 -59 49 -69q12 -4 26.5 -6t34 -3.5t29.5 -2.5q2 0 6 3t5 3q3 1 9.5 4.5t11.5 5.5t9 2q19 1 90 -0.5t91 2.5q75 9 450 59q17 2 48 18l30 17q0 5 -4 13q-31 0 -47 2q4 2 11 6.5t11 7.5l-30 6q7 5 25 16t26 17q-45 6 -127 6q-107 -5 -127 -4 q-33 1 -107.5 6.5t-115.5 5.5q-29 0 -62.5 -2t-74 -5.5t-62.5 -4.5q-1 13 -2.5 34.5t-2.5 39.5t-1 34q12 141 30 277q1 7 4 33t3 41q1 13 6.5 17.5t19.5 6.5q151 9 197 15q28 4 112 36q5 3 13.5 17t13.5 16q23 8 113 31q1 39 -10 50t-50 11h-32q-138 19 -218 2 q-59 -10 -147 -20q8 90 8 125q-2 76 -10 223q0 13 -4.5 36t-5.5 30q0 11 4.5 23t11.5 13q92 30 152 37q171 15 340 21q10 0 14 2q48 38 90 67q-2 0 -7.5 3t-10.5 4q9 4 45 16q-9 5 -18.5 8t-27 5t-20.5 3q-9 2 -25 8.5t-22 8.5q-8 4 -22.5 13t-26 14.5t-21.5 5.5 q-233 -3 -428 -37q-36 -7 -52 -10t-45.5 -2t-53.5 10q-33 11 -73.5 -23.5t-43.5 -69.5q-16 -212 -10 -405q5 -41 1.5 -307.5t-3.5 -306.5zM242 1927q4 -29 14 -47q59 -102 129 -162q16 -13 44 -40t34 -33q62 -62 141 -107q37 -19 78 2q7 5 37 14v15q-2 5 -9.5 24t-10.5 25.5 t-10 22.5t-12.5 24t-14 20t-18.5 20.5t-21 16.5l-17 17q-61 59 -182 172q-35 30 -80 33q-1 0 -82 6q-10 1 -16 -5.5t-4 -17.5z" />
<glyph unicode="&#xc9;" horiz-adv-x="1228" d="M207 279q2 -86 10 -259q4 -59 49 -69q12 -4 26.5 -6t34 -3.5t29.5 -2.5q2 0 6 3t5 3q3 1 9.5 4.5t11.5 5.5t9 2q19 1 90 -0.5t91 2.5q75 9 450 59q17 2 48 18l30 17q0 5 -4 13q-31 0 -47 2q4 2 11 6.5t11 7.5l-30 6q7 5 25 16t26 17q-45 6 -127 6q-107 -5 -127 -4 q-33 1 -107.5 6.5t-115.5 5.5q-29 0 -62.5 -2t-74 -5.5t-62.5 -4.5q-1 13 -2.5 34.5t-2.5 39.5t-1 34q12 141 30 277q1 7 4 33t3 41q1 13 6.5 17.5t19.5 6.5q151 9 197 15q28 4 112 36q5 3 13.5 17t13.5 16q23 8 113 31q1 39 -10 50t-50 11h-32q-138 19 -218 2 q-59 -10 -147 -20q8 90 8 125q-2 76 -10 223q0 13 -4.5 36t-5.5 30q0 11 4.5 23t11.5 13q92 30 152 37q171 15 340 21q10 0 14 2q48 38 90 67q-2 0 -7.5 3t-10.5 4q9 4 45 16q-9 5 -18.5 8t-27 5t-20.5 3q-9 2 -25 8.5t-22 8.5q-8 4 -22.5 13t-26 14.5t-21.5 5.5 q-233 -3 -428 -37q-36 -7 -52 -10t-45.5 -2t-53.5 10q-33 11 -73.5 -23.5t-43.5 -69.5q-16 -212 -10 -405q5 -41 1.5 -307.5t-3.5 -306.5zM250 1550q8 -19 20 -22q71 -10 90 -6q108 23 162 102q6 9 17.5 23.5t15.5 19.5q8 12 29.5 42.5t31.5 47.5q10 15 16.5 35t9 35t5 39.5 t4.5 36.5q-5 1 -10 15t-20 9q0 10 4 60q-31 -10 -37 -15q-65 -52 -74 -61q-105 -108 -211 -223q-21 -23 -47 -70q-17 -25 -6 -68z" />
<glyph unicode="&#xca;" horiz-adv-x="1003" d="M6 305q2 -86 10 -264q4 -60 52 -70q12 -5 26 -7t36 -4t30 -3q2 0 10 8q3 1 9.5 4.5t12 5.5t9.5 2q18 1 91.5 0t92.5 3q67 8 461 59q17 2 47.5 19t32.5 18q0 4 -4 12q-32 0 -50 2q5 2 25 14l-33 7q5 3 25.5 14.5t28.5 17.5q-53 9 -130 9q-9 0 -57.5 -4t-73.5 -3t-104 8 t-123 7q-35 0 -205 -15q-1 14 -2.5 36t-2.5 41t-1 36q6 74 33 283l6 75q1 13 7 18t20 7q167 10 200 14q28 4 115 37q6 4 15 18.5t14 16.5q20 7 114 31q1 41 -10 52t-51 11h-33q-142 19 -221 2q-63 -10 -152 -20q9 101 9 127q-1 46 -11 227q0 14 -4.5 38t-5.5 30q0 11 5 24.5 t12 14.5q92 29 155 36q174 15 346 21q13 0 17 2q49 42 92 70q-2 0 -8 2.5t-13 3.5l48 16q-7 4 -16.5 7t-16 4.5t-18.5 3t-17 2.5q-3 1 -21 8.5t-26 9.5q-10 4 -24.5 13t-26 14.5t-21.5 5.5q-235 -3 -438 -37q-33 -8 -52 -11.5t-49 -2.5t-55 12q-33 11 -74.5 -24t-44.5 -70 q-16 -218 -10 -416q4 -42 1 -315.5t-3 -313.5zM147 1663q21 -12 27 -14q87 -7 133 30q18 15 36 34t39.5 43.5t33.5 37.5l12 12q21 -19 62 -56.5t61 -57.5q53 -51 141 -54q35 0 53 2q2 0 8 2l9 3q-10 13 -17 18q-12 10 -16 29q0 12 -14 26l-70 64q-23 18 -29 22 q-56 36 -75 105q-4 14 -10.5 26.5t-16.5 29t-14 22.5q-4 8 -11 8q-6 -1 -19 -2t-23 -3.5t-19 -7.5q-67 -41 -166 -157l-59 -74q-43 -51 -56 -88z" />
<glyph unicode="&#xcb;" horiz-adv-x="1024" d="M6 305q2 -86 10 -264q4 -60 52 -70q12 -5 26 -7t36 -4t30 -3q2 0 10 8q3 1 9.5 4.5t12 5.5t9.5 2q18 1 91.5 0t92.5 3q67 8 461 59q17 2 47.5 19t32.5 18q0 4 -4 12q-32 0 -50 2q5 2 25 14l-33 7q5 3 25.5 14.5t28.5 17.5q-53 9 -130 9q-9 0 -57.5 -4t-73.5 -3t-104 8 t-123 7q-35 0 -205 -15q-1 14 -2.5 36t-2.5 41t-1 36q6 74 33 283l6 75q1 13 7 18t20 7q167 10 200 14q28 4 115 37q6 4 15 18.5t14 16.5q20 7 114 31q1 41 -10 52t-51 11h-33q-142 19 -221 2q-63 -10 -152 -20q9 101 9 127q-1 46 -11 227q0 14 -4.5 38t-5.5 30q0 11 5 24.5 t12 14.5q92 29 155 36q174 15 346 21q13 0 17 2q49 42 92 70q-2 0 -8 2.5t-13 3.5l48 16q-7 4 -16.5 7t-16 4.5t-18.5 3t-17 2.5q-3 1 -21 8.5t-26 9.5q-10 4 -24.5 13t-26 14.5t-21.5 5.5q-235 -3 -438 -37q-33 -8 -52 -11.5t-49 -2.5t-55 12q-33 11 -74.5 -24t-44.5 -70 q-16 -218 -10 -416q4 -42 1 -315.5t-3 -313.5zM63 1729q3 -6 9 -26t10 -30q5 -11 11.5 -19.5t17.5 -18.5t15 -13.5t20.5 -15.5t17.5 -13q17 -14 37 -10q21 6 78 29q36 14 36 45q0 3 4.5 10t4.5 10q34 55 -13 105l-22 33q-21 34 -62 40q-3 1 -6 3t-7 6t-7 6q-3 1 -9.5 6 t-11.5 6q-12 5 -55.5 -16.5t-46.5 -34.5q-4 -14 -21 -102zM503.5 1723q-0.5 -10 2 -20.5t4.5 -18.5t7 -19t8 -17t9.5 -17.5t8.5 -16.5q19 -40 78 -53q70 0 129 55q13 11 18.5 34t11.5 29l-24 43q-1 2 -4.5 6t-5.5 7t-3 6q-19 50 -77 63q-6 1 -25.5 3.5t-32 7t-22.5 14.5 q-4 2 -13.5 1t-13.5 -3q-18 -19 -24 -26.5t-16 -24.5t-13 -33q-2 -10 -2.5 -20z" />
<glyph unicode="&#xce;" horiz-adv-x="450" d="M-53 1511q4 -2 10.5 -6.5t9.5 -5.5q61 -3 96 27q14 12 26.5 26.5t28 35.5t23.5 30q1 0 17 12.5t31 23.5t18 9q27 -19 47.5 -35t36.5 -31t22.5 -21.5t20.5 -22t16 -17.5q39 -42 103 -45q25 0 39 2l12 4q-8 12 -12 14q-9 7 -13 25q0 10 -10 20l-51 52q-9 9 -21 18 q-39 27 -55 84q-4 17 -29 62q-3 5 -8 8q-45 30 -74.5 30t-78.5 -41q-66 -56 -121 -127q-26 -37 -43 -59q-32 -46 -41 -72zM31 1405q49 -78 116 -78q3 -15 3 -20q-2 -21 -12 -108t-13 -136q-3 -30 -9 -114t-12 -130q-21 -215 -51 -430q-12 -75 -14 -125q-3 -54 0 -108 q0 -7 -2 -32t-0.5 -40t8.5 -23q11 -12 20 -27.5t12.5 -24.5t11 -29.5t9.5 -26.5q8 -7 21 -12q8 -2 24.5 -4.5t18.5 -2.5q44 50 88 91q17 21 18 26q12 55 21 111v20q-6 18 -6 25q11 46 12 51q1 12 2 38.5t2 39.5q5 113 10 147q4 30 16 96t15 103q5 29 7 83t3 66q9 88 23 111 q24 46 24 80q-12 210 -26 315q-12 92 -57.5 125.5t-135.5 18.5q-23 -4 -46.5 -12.5t-52.5 -22t-44 -19.5q-4 0 -4 -22z" />
<glyph unicode="&#xcf;" horiz-adv-x="430" d="M-78 1700q2 -6 7.5 -24t9.5 -27q4 -8 9.5 -16t10 -12.5t13.5 -12.5t12 -10.5t15 -11t13 -9.5q16 -12 35 -8q33 8 70 24q33 15 33 41q0 3 3.5 10l4.5 9q15 28 12 49.5t-25 44.5l-20 31q-19 32 -53 37q-8 2 -21 12q-3 1 -8.5 6t-9.5 6q-11 3 -50 -16t-42 -31 q-15 -68 -19 -92zM20 1405q49 -78 117 -78q2 -10 2 -20q-3 -28 -8 -76.5t-9 -89.5t-7 -78q-3 -30 -9 -114t-12 -130q-21 -215 -51 -430q-12 -75 -14 -125q-3 -54 0 -108q0 -7 -2 -32t-0.5 -40t8.5 -23q11 -12 20 -27.5t12.5 -24.5t11 -29.5t9.5 -26.5q8 -7 21 -12 q8 -2 24.5 -4.5t18.5 -2.5q44 50 88 91q17 21 18 26q12 55 21 111v20q-7 21 -7 25q0 1 6 20.5t7 30.5q1 12 2 38.5t2 39.5q5 113 10 147q4 30 16 96t15 103q5 29 7 83t3 66q1 5 2.5 27t3 32t6 25.5t10.5 26.5q25 48 25 80q-11 197 -27 315q-12 92 -57 125.5t-135 18.5 q-23 -4 -46.5 -12.5t-52.5 -22t-44 -19.5q-5 0 -5 -22zM298 1687q2 -11 2.5 -16t4.5 -15t6.5 -15t7.5 -14.5t7 -14.5q15 -30 57 -39q47 0 92 41q9 8 14 24t9 21l-19 31q-1 2 -4 7t-4 7q-13 35 -57 45q-4 1 -18 2.5t-23.5 5t-16.5 10.5q-2 1 -9 0.5t-9 -2.5t-9.5 -10 t-10.5 -12t-8 -11t-7.5 -13.5t-3.5 -14.5q-3 -6 -1 -17z" />
<glyph unicode="&#xd1;" horiz-adv-x="1024" d="M66 23q12 -87 92 -113q72 -19 125 47q20 22 51 90q3 7 20.5 55t28.5 72q7 22 25.5 72.5t27.5 77.5q19 43 25 63q0 3 -8 23q-14 22 0 49q6 13 -4 76q-3 18 -13 50.5t-12 41.5q2 2 10 2q69 -141 82 -168q109 -239 268 -436q28 -37 63 -43t60 24q13 18 11 27q-8 19 -10 42.5 t-0.5 37.5t7.5 44.5t7 37.5q12 61 20 186q4 66 0 203q0 26 -2 79t-2 80q-1 37 -4 104t-5 122.5t-3 105.5q-3 91 6 180q3 41 16.5 113.5t16.5 91.5l6 60q1 6 1 33t3 40q5 15 18.5 45.5t18.5 42.5q-32 -25 -41 -34q-108 -97 -135 -230q-6 -23 -11 -50t-10 -60t-8 -52 q-38 -167 -35 -317q2 0 1 -193t-1 -194t-4 -29l-51 127l-12 -12q-17 53 -29 80q-10 19 -32 53.5t-30 48.5q-18 30 -49 92.5t-49 92.5q-37 74 -110 192q-23 37 -36 57t-35.5 49.5t-47.5 50.5t-54 36q-10 5 -10 8q-6 30 -23 35t-44 -9q-11 -5 -16.5 -8t-10.5 -9t-6 -15 q-2 -17 -10.5 -74t-10.5 -90q-4 -93 -8 -279q-1 -26 -4 -73.5t-5 -86t-3 -73.5t-2 -100.5t-3 -120.5t-7 -103q-24 -214 -4 -368zM238 1622q-10 -30 4 -51q9 -15 24 -15q17 3 35 17q3 2 8 22q13 43 33 52q70 32 111 0q10 -8 37 -23.5t40 -28.5q32 -28 68 -43q83 -32 135 15 q35 31 49 47q6 8 15 39q1 1 4.5 1.5t6 1.5t3.5 3q5 5 12.5 23t16.5 24q2 2 2 4l-8 12q0 3 10 31l-13 4q-33 -4 -47 -14q-38 -29 -67 -55q-28 -25 -55 -27q-8 -1 -25 0.5t-23 1.5q-36 6 -59 39q-30 44 -75.5 66t-96.5 8q-75 -20 -115 -76q-19 -27 -30 -78z" />
<glyph unicode="&#xd6;" horiz-adv-x="1290" d="M53 547q22 -152 35 -195q46 -145 160 -256q170 -162 391 -159q228 -6 385 165q154 157 190 332q25 106 25 156q0 25 5.5 66.5t7 64.5t-6.5 65q-6 29 -6 84q-5 41 0 52q9 18 7 32t-19 25q-6 3 -9.5 15t-0.5 18q14 25 -9 45q-4 4 -5 11.5t-1.5 18.5t-1.5 15t-4.5 14.5 t-5.5 13.5q-40 77 -57 99q-36 66 -66 86q-24 17 -74 43.5t-71 40.5q-21 15 -75.5 23.5t-76.5 31.5q-7 4 -33 0q-52 0 -65 -4q-6 -1 -33 -4.5t-37.5 -5.5t-31 -6t-35.5 -9.5t-29 -13.5q-108 -53 -232 -184q-128 -137 -190 -332q-56 -182 -31 -348zM250 1726q2 -4 8 -26.5 t12 -34.5q5 -11 12 -21t18 -19.5t17.5 -15t21.5 -16.5t19 -14q17 -14 41 -10q43 12 84 30q39 14 39 50q0 3 4.5 10.5t5.5 9.5q34 61 -14 115q-2 3 -11 15.5t-13 19.5q-25 40 -66 45q-5 1 -22 14q-3 1 -10.5 7t-12.5 7q-14 5 -61 -18.5t-50 -36.5q-6 -24 -22 -111zM442 479 q0 114 9 228q9 156 114 297q30 41 91 110.5t81 93.5q4 3 14.5 10t14.5 9q15 11 23 18.5t14.5 20.5t5.5 30q-3 47 39 19q105 -60 160 -176q52 -117 69 -224q2 -17 4 -34.5t2.5 -39t1 -34t-0.5 -39.5t-1.5 -34t-2 -39.5t-1.5 -35.5q-9 -103 -43 -274q-17 -70 -57 -145 q-27 -47 -84 -56q-14 -1 -137 -18q-6 0 -29.5 1.5t-29 2t-25 2.5t-26 3.5t-22 4t-23 6t-19.5 8.5t-21 11t-18 14l-29 35q-7 8 -19 25.5t-16 23.5q-19 24 -28 58t-10 53.5t-1 64.5zM926 1715l3 -24t7 -23t9.5 -22.5t11 -22t10.5 -21.5q22 -45 86 -58q45 0 75 15t64 45 q14 13 20 37.5t13 31.5l-27 45q-10 15 -12 21q-20 52 -86 69q-6 1 -27 3.5t-34.5 7.5t-24.5 16q-3 3 -14.5 1t-14.5 -5q-1 -1 -10.5 -11t-11 -12t-9 -11t-10 -13.5t-7 -12t-6.5 -15t-3 -15.5q-4 -10 -2 -26z" />
<glyph unicode="&#xd7;" horiz-adv-x="962" d="M37 881q17 -49 20 -54q59 -94 156 -198q56 -58 117 -133q-32 -41 -121 -166q-24 -32 -34.5 -47.5t-25 -45.5t-20.5 -57q-3 -17 -16.5 -44t-16.5 -38q-3 -7 -8 -39q56 -26 100 15l29 22q120 100 148 125q24 22 114 107q50 -57 90 -92l111 -123q16 -16 38 -29t52.5 -28.5 t48.5 -26.5q-2 27 7.5 37t30 12.5t28.5 7.5q-5 8 -6.5 15t2 15t6.5 12t10 13q4 -4 10 -4q3 0 11 4q-9 14 -10 21.5t-3 38.5q0 7 -5 16.5t-11 9.5q-19 4 -26.5 13.5t-12.5 29.5q-1 5 -12 21q-8 9 -45.5 49.5t-59.5 62.5q-15 16 -45 46.5t-45 46.5l10 18q9 14 28 42t32 50 t22 45q8 19 20.5 40.5t28 47t23.5 39.5q11 17 6 29t-29 24q7 8 21.5 28t26.5 34.5t24 26.5q28 28 21 55q-3 10 0 20q0 11 14 58q-34 -15 -62 -43q-99 -88 -102 -90q-106 -74 -190 -164q-3 -4 -30.5 -35.5t-41.5 -48.5q-15 6 -19 14q-12 10 -42.5 37t-46.5 41t-42.5 33.5 t-50.5 33.5q-12 7 -56.5 32.5t-68.5 39.5q-10 5 -16 2q-14 -3 -42 -11.5t-44 -12.5z" />
<glyph unicode="&#xd8;" horiz-adv-x="1269" d="M51 547q-25 166 31 348q62 195 190 332q124 131 232 184q14 8 29 13.5t35.5 9.5t31 6t37.5 5.5t33 4.5q13 4 65 4q26 4 33 0q22 -23 76.5 -31.5t75.5 -23.5l26 -17q8 17 26 47t23 39l60 93q9 12 26 12q8 1 11.5 -6.5t5.5 -20.5q2 -16 4 -46.5t4 -47.5l29 -45 q-5 -15 -16.5 -44.5t-16.5 -45.5l-8 -29q3 -3 36 -59q20 -25 58 -99q2 -3 5.5 -13.5t4.5 -14.5t1.5 -15t1.5 -18.5t5 -11.5q22 -20 8 -45q-3 -6 1 -18t10 -15q17 -11 19 -25t-7 -32q-5 -11 0 -52q0 -55 6 -84q8 -42 6.5 -65t-7 -64.5t-5.5 -66.5q0 -50 -25 -156 q-36 -175 -190 -332q-157 -171 -385 -165q-37 0 -55 2l-19 -37q-18 -33 -47 -78q-44 -64 -94 -33q-7 4 -15 5.5t-20 3.5l-18 3q3 28 8 37q16 38 22 90q1 10 3.5 29.5t3.5 24.5q-85 40 -160 112q-114 111 -160 256q-13 43 -35 195zM440 479q0 -45 1 -64.5t10 -53.5t28 -58 l4 10q12 19 21.5 42t21 57.5l15.5 46.5q82 190 147 356q12 29 49 119.5t58 138.5q37 83 100 209q-19 16 -49 33q-42 28 -39 -19q1 -24 -9.5 -38t-33.5 -31q-4 -2 -14.5 -9t-14.5 -10q-20 -24 -81 -93.5t-91 -110.5q-105 -141 -114 -297q-9 -114 -9 -228zM676 172 q44 -4 80 -6q123 17 137 18q57 9 84 56q40 75 57 145q34 171 43 274q0 7 1.5 31.5t1.5 33.5t1 31t1 33.5v31t-1 33t-2.5 30.5t-3.5 32q-11 81 -49 172l-22 -61q-13 -38 -39 -107.5t-33 -87.5q-12 -31 -64 -161.5t-77 -202.5q-55 -169 -115 -295z" />
<glyph unicode="&#xdb;" horiz-adv-x="1085" d="M31 379q0 -110 27 -193.5t100 -144.5q56 -40 78 -55q165 -105 296 -72q60 15 207 82q35 14 54 39q33 50 69 131q14 27 76 164q18 40 20 71q9 72 15 140q1 12 5 41t5 41t0 41q-1 24 -1.5 44.5t7 42.5t23.5 40q-19 -3 -25.5 3t-3.5 25q2 15 3 45t3 45q0 2 1 13.5t1.5 15 t2.5 13t3.5 13.5l4.5 12t7 12t10 9t13 9q-7 4 -18 10t-15 8q10 19 10.5 49t-2 54t8.5 49.5t39 40.5q-19 25 -20.5 49.5t5.5 152.5l-63 25q-40 14 -45 -23q-47 -213 -55 -272q-10 -61 -39 -348q-2 -20 -8.5 -59t-8.5 -58q-16 -225 -86 -401q-5 -12 -20 -50.5t-26.5 -63.5 t-24.5 -48q-50 -85 -121 -29q-68 52 -80 98q-34 123 -43 261q-4 81 -8 229.5t-6 206.5q-1 38 -8.5 112t-8.5 111t2.5 105.5t3.5 97.5q0 135 -110 252q-17 17 -74 12q-7 0 -17 -11t-12 -20q-7 -49 -19.5 -150t-19.5 -153q-7 -41 -40 -239.5t-48 -303.5q-21 -136 -24 -321z M352 1634q21 -12 27 -14q85 -7 133 31q18 15 36 33.5t39.5 43t33.5 37.5l12 13q21 -19 62 -57.5t61 -57.5q52 -50 141 -53q35 0 53 2q1 0 17 4q-10 13 -17 18q-12 10 -16 29q0 13 -14 27l-70 63q-28 22 -29 23q-57 37 -76 104q-5 14 -10.5 26t-16.5 30t-13 22q-4 8 -11 8 q-7 -1 -19.5 -2t-22.5 -3t-19 -7q-31 -19 -63.5 -49t-50.5 -50t-52 -59l-59 -74q-43 -51 -56 -88z" />
<glyph unicode="&#xdc;" horiz-adv-x="1085" d="M31 379q0 -110 27 -193.5t100 -144.5q56 -40 78 -55q165 -105 296 -72q60 15 207 82q35 14 54 39q33 50 69 131q14 27 76 164q18 40 20 71q9 72 15 140q1 12 5 41t5 41t0 41q-1 24 -1.5 44.5t7 42.5t23.5 40q-19 -3 -25.5 3t-3.5 25q2 15 3 45t3 45q0 2 1 13.5t1.5 15 t2.5 13t3.5 13.5l4.5 12t7 12t10 9t13 9q-7 4 -18 10t-15 8q10 19 10.5 49t-2 54t8.5 49.5t39 40.5q-19 25 -20.5 49.5t5.5 152.5l-63 25q-40 14 -45 -23q-47 -213 -55 -272q-10 -61 -39 -348q-2 -20 -8.5 -59t-8.5 -58q-16 -225 -86 -401q-5 -12 -20 -50.5t-26.5 -63.5 t-24.5 -48q-50 -85 -121 -29q-68 52 -80 98q-34 123 -43 261q-4 81 -8 229.5t-6 206.5q-1 38 -8.5 112t-8.5 111t2.5 105.5t3.5 97.5q0 135 -110 252q-17 17 -74 12q-7 0 -17 -11t-12 -20q-7 -49 -19.5 -150t-19.5 -153q-7 -41 -40 -239.5t-48 -303.5q-21 -136 -24 -321z M270 1774q1 -4 8 -27t13 -35q5 -11 12 -21t18 -19.5t17.5 -15t21.5 -16.5t19 -14q17 -14 41 -10q38 10 84 31q39 14 39 49q0 3 4.5 10.5t5.5 9.5q34 61 -14 115q-3 4 -12.5 16t-12.5 19q-26 40 -65 45q-7 2 -23 14q-3 1 -10.5 7t-12.5 7q-14 5 -60.5 -18.5t-49.5 -36.5 q-11 -45 -23 -110zM748 1762.5q2 -16.5 3 -24.5t7 -23.5t9 -22.5t10.5 -21.5t10.5 -21.5q22 -45 86 -58q45 0 76 15t64 45q14 13 20 37.5t13 31.5l-27 45q-10 15 -12 21q-20 52 -86 69q-6 1 -27 3.5t-34.5 7.5t-24.5 16q-3 3 -14.5 1t-14.5 -5q-1 -1 -10.5 -11t-11 -12 t-9 -11t-10 -13.5t-7 -12t-6.5 -15t-3 -15.5q-4 -9 -2 -25.5z" />
<glyph unicode="&#xe3;" horiz-adv-x="1085" d="M27 412q-17 -123 30 -203q44 -70 47 -74q77 -135 246 -155q6 -1 32 -3.5t35 -3t30.5 -1.5t34.5 -1t31 1.5t34 4.5q5 1 25.5 5t28 5.5t24.5 5.5t26.5 8.5t23.5 10.5t25 14.5t21 18.5q53 -61 139 -74q42 -9 95 11t75 53q7 11 21.5 31.5t19.5 29.5q9 14 19 45q0 6 -3 15 t-6 10t-20.5 9.5t-23.5 10t-20.5 5t-26.5 1.5t-25 -8q-18 -8 -86 -22q-28 -6 -37 22q-2 9 -14 40.5t-13 49.5q0 183 16 271q1 7 4 23t3 24q0 147 -2 219q0 12 -2.5 24t-8.5 30.5t-8 25.5q-3 14 -15 22.5t-28 8.5q-34 3 -59 34q-9 17 -19 25q-22 24 -71.5 43.5t-61.5 19.5 q-87 -3 -147 -45q-6 -4 -49 -36q-84 -67 -88 -70q-102 -95 -146 -176q-60 -98 -76 -145q-6 -18 -10 -35t-20 -125zM293 1311q-10 -37 4 -60q8 -16 25 -16q15 2 34 18q4 3 9 27q13 48 32 57q6 3 20.5 12.5t23.5 13.5t21.5 6t23.5 -6t22 -26q9 -15 38.5 -30.5t39.5 -26.5 q30 -34 67 -49q82 -40 135 16q40 39 50 53q4 6 14 46q1 1 4.5 1.5t6 1.5t3.5 3q3 11 6 25.5t5 22t4.5 16t5.5 13t8 7.5q2 2 2 6l-8 12q1 5 10 37l-12 4q-33 -4 -47 -16q-31 -27 -68 -64q-3 -3 -12 -12.5t-13.5 -14t-13 -9t-16.5 -5.5t-24.5 0.5t-22.5 1.5q-31 8 -60 56 q-30 51 -75.5 76.5t-96.5 7.5q-75 -23 -114 -86q-6 -9 -11 -26.5t-8 -31t-7 -35.5t-5 -26zM434 195q-15 45 0 104q9 30 29 84t26 72q16 33 19 59q3 37 33 76l37 51q14 27 55 53l-25 -172q0 -2 -2 -6.5t-2 -7.5q0 -90 -78 -197q-12 -17 -32.5 -48.5t-24.5 -37.5q-3 -4 -8 -9 t-13.5 -11t-13.5 -10z" />
<glyph unicode="&#xe4;" horiz-adv-x="1085" d="M27 412q-17 -123 30 -203q44 -70 47 -74q77 -135 246 -155q6 -1 32 -3.5t35 -3t30.5 -1.5t34.5 -1t31 1.5t34 4.5q5 1 25.5 5t28 5.5t24.5 5.5t26.5 8.5t23.5 10.5t25 14.5t21 18.5q53 -61 139 -74q42 -9 95 11t75 53q7 11 21.5 31.5t19.5 29.5q9 14 19 45q0 6 -3 15 t-6 10t-20.5 9.5t-23.5 10t-20.5 5t-26.5 1.5t-25 -8q-18 -8 -86 -22q-28 -6 -37 22q-2 9 -14 40.5t-13 49.5q0 183 16 271q1 7 4 23t3 24q0 147 -2 219q0 12 -2.5 24t-8.5 30.5t-8 25.5q-3 14 -15 22.5t-28 8.5q-34 3 -59 34q-9 17 -19 25q-22 24 -71.5 43.5t-61.5 19.5 q-87 -3 -147 -45q-6 -4 -49 -36q-84 -67 -88 -70q-102 -95 -146 -176q-60 -98 -76 -145q-6 -18 -10 -35t-20 -125zM250 1276q-7 -41 14 -68q24 -32 41 -47q18 -21 49 -35q17 -8 33 4q19 17 47 3q3 -3 6 -3q6 18 6 19l31 -4v47q0 31 6 43q13 28 -2 49q-6 6 -10.5 15t-6 14.5 t-5 18t-4.5 14.5q-1 6 -6.5 16.5t-6.5 13.5q-3 6 -12 18.5t-12 18.5q-4 17 -29 17q-8 -2 -27 -3.5t-28 -3.5q-18 0 -29 -14q-40 -61 -55 -133zM434 195q-15 45 0 104q9 30 29 84t26 72q16 33 19 59q3 37 33 76l37 51q14 27 55 53l-25 -172q0 -2 -2 -6.5t-2 -7.5 q0 -90 -78 -197q-12 -17 -32.5 -48.5t-24.5 -37.5q-3 -4 -8 -9t-13.5 -11t-13.5 -10zM676 1366q18 -88 29 -117q26 -65 81 -78q9 -2 30 -4t24 -2q2 3 5 10.5t5 10.5h8q28 -6 55.5 3.5t40.5 31.5q32 52 2 98q-53 95 -170 104q-13 1 -36.5 0t-34.5 0q-22 2 -28 -2.5t-9 -25.5 q-2 -8 -2 -29z" />
<glyph unicode="&#xe5;" horiz-adv-x="1085" d="M27 412q-17 -123 30 -203q44 -70 47 -74q77 -135 246 -155q6 -1 32 -3.5t35 -3t30.5 -1.5t34.5 -1t31 1.5t34 4.5q5 1 25.5 5t28 5.5t24.5 5.5t26.5 8.5t23.5 10.5t25 14.5t21 18.5q53 -61 139 -74q42 -9 95 11t75 53q7 11 21.5 31.5t19.5 29.5q9 14 19 45q0 6 -3 15 t-6 10t-20.5 9.5t-23.5 10t-20.5 5t-26.5 1.5t-25 -8q-18 -8 -86 -22q-28 -6 -37 22q-2 9 -14 40.5t-13 49.5q0 183 16 271q1 7 4 23t3 24q0 147 -2 219q0 12 -2.5 24t-8.5 30.5t-8 25.5q-3 14 -15 22.5t-28 8.5q-34 3 -59 34q-9 17 -19 25q-22 24 -71.5 43.5t-61.5 19.5 q-87 -3 -147 -45q-6 -4 -49 -36q-84 -67 -88 -70q-102 -95 -146 -176q-60 -98 -76 -145q-6 -18 -10 -35t-20 -125zM434 195q-15 45 0 104q9 30 29 84t26 72q16 33 19 59q3 37 33 76l37 51q14 27 55 53l-25 -172q0 -2 -2 -6.5t-2 -7.5q0 -90 -78 -197q-12 -17 -32.5 -48.5 t-24.5 -37.5q-3 -4 -8 -9t-13.5 -11t-13.5 -10zM457 1282q11 -37 14 -45q10 -28 39 -39q61 -24 147 -31q13 0 43 13q54 34 60 86q-4 3 -12.5 7.5t-10.5 6.5q-2 5 -4 15.5t-2 11.5q-4 50 -10 73q-8 33 -47 31q-3 0 -10 3.5l-9 4.5t-5.5 2.5t-6.5 2.5t-6 1q-2 0 -18 0.5 t-21.5 0t-16 -3t-16.5 -7.5q-8 -5 -27.5 -12t-31.5 -15.5t-14 -23.5q-2 -9 -21 -33q-21 -18 -14 -49z" />
<glyph unicode="&#xe6;" horiz-adv-x="1228" d="M27 412q16 108 20 125q6 31 22.5 67t26.5 52.5t37 60.5q44 81 146 176q4 3 88 70q43 32 49 36q60 42 147 45q12 0 61.5 -19.5t71.5 -43.5q10 -8 19 -25q25 -31 59 -34q16 0 28 -8.5t15 -22.5q2 -9 7.5 -24.5t6.5 -20.5l23 24q46 46 107 82q2 1 83 49q31 21 95 25 q10 0 18 -8q11 -17 49 -25q96 -20 178 -84q4 -3 14.5 -11t15.5 -12t14 -12t14 -14t11.5 -14.5t10.5 -16.5l3.5 -3.5t4 -5.5t1.5 -7q5 -74 2 -96q-5 -50 -25 -107q-10 -20 -47 -57q-14 -16 -45 -47q-40 -35 -115 -49q-95 -25 -184 4q-4 2 -15 2q-19 -32 -12 -80 q11 -95 47 -154q28 -50 97 -82q35 -17 61 21q23 30 70 106q42 63 92 101q33 29 76 51q15 9 28.5 3t14.5 -23q1 -20 1 -37t-6 -35t-20 -33q-6 -6 -12 -15t-9 -15.5t-9 -20.5t-7 -17q-4 -7 0 -14q10 -33 -18 -65q-10 -11 -30 -33.5t-32.5 -35.5t-32 -29t-38.5 -25 q-55 -27 -184.5 -49.5t-202.5 -22.5q-20 0 -33 10q-17 0 -25 2q-86 13 -139 74q-10 -10 -21 -18.5t-25 -14.5t-23.5 -10.5t-26.5 -8.5t-24.5 -5.5t-28 -5.5t-25.5 -5q-16 -3 -34 -4.5t-31 -1.5t-34.5 1t-30.5 1.5t-35 3t-32 3.5q-169 20 -246 155q-3 4 -47 74 q-47 80 -30 203zM434 195q5 4 13.5 10t13.5 11t8 9q4 6 24.5 37.5t32.5 48.5q78 107 78 197q0 3 2 7.5t2 6.5l25 172q-41 -26 -55 -53l-37 -51q-30 -39 -33 -76q-3 -26 -19 -59q-6 -18 -26 -72t-29 -84q-15 -59 0 -104zM1038 600q0 -10 13 -14q8 -2 24 -2q55 3 86 45 q43 60 56 143q-1 4 -1.5 15t-3.5 17.5t-12 10.5q-17 8 -45 -29q-18 -27 -29 -36q-40 -20 -77 -82q-15 -19 -11 -68z" />
<glyph unicode="&#xe8;" d="M5.5 550.5q-0.5 -14.5 0.5 -52.5q3 -24 9 -68.5t8 -62.5q15 -115 88 -207q84 -110 206 -158q42 -17 86 -16.5t79 12t79 33.5q19 9 38.5 25t32 29t32.5 35.5t30 33.5q29 33 19 65q-3 7 0 14q1 3 7 17t9 20.5t9 15.5t12 15q14 15 20 33t5.5 35t-1.5 37q-1 17 -14.5 23 t-28.5 -3q-43 -22 -76 -51q-50 -38 -92 -101q-52 -83 -69 -106q-26 -38 -62 -21q-67 31 -96 82q-36 59 -47 154q-7 48 12 80q10 0 14 -2q89 -29 185 -4q74 14 114 49q31 31 45 47q39 39 48 57q18 53 24 107q3 22 -2 96q0 4 -1.5 6.5t-3.5 5.5t-3 4q-5 10 -11.5 19t-17 18.5 t-15 13.5t-19.5 15.5t-17 13.5q-82 64 -178 84q-38 8 -49 25q-8 8 -19 8q-63 -4 -94 -25q-77 -46 -84 -49q-59 -34 -106 -82q-66 -66 -76 -135q-2 -14 -7.5 -40.5t-7.5 -39.5q-2 -15 -8 -52.5t-6.5 -52zM195 1419q4 -29 14 -47q12 -21 20.5 -42t17 -32t32.5 -32 q15 -13 41 -39t36 -35q61 -61 142 -107q37 -19 77 2q9 7 37 15v14q-1 3 -11 27.5t-12.5 30.5t-12 25.5t-16.5 28t-19 21t-25 21.5l-16 16q-65 63 -123 117q-35 30 -80 33q-1 0 -82 6q-10 1 -16 -5.5t-4 -17.5zM293.5 635q1.5 20 11.5 33q37 61 78 82q11 9 29 36q28 37 45 29 q9 -4 12 -10.5t3 -17t1 -15.5q-13 -85 -55 -143q-31 -42 -86 -45q-17 0 -25 2q-12 4 -12 14q-3 15 -1.5 35z" />
<glyph unicode="&#xe9;" d="M5.5 550.5q-0.5 -14.5 0.5 -52.5q3 -24 9 -68.5t8 -62.5q15 -115 88 -207q84 -110 206 -158q42 -17 86 -16.5t79 12t79 33.5q19 9 38.5 25t32 29t32.5 35.5t30 33.5q29 33 19 65q-3 7 0 14q1 3 7 17t9 20.5t9 15.5t12 15q14 15 20 33t5.5 35t-1.5 37q-1 17 -14.5 23 t-28.5 -3q-43 -22 -76 -51q-50 -38 -92 -101q-52 -83 -69 -106q-26 -38 -62 -21q-67 31 -96 82q-36 59 -47 154q-7 48 12 80q10 0 14 -2q89 -29 185 -4q74 14 114 49q31 31 45 47q39 39 48 57q18 53 24 107q3 22 -2 96q0 4 -1.5 6.5t-3.5 5.5t-3 4q-5 10 -11.5 19t-17 18.5 t-15 13.5t-19.5 15.5t-17 13.5q-82 64 -178 84q-38 8 -49 25q-8 8 -19 8q-63 -4 -94 -25q-77 -46 -84 -49q-59 -34 -106 -82q-66 -66 -76 -135q-2 -14 -7.5 -40.5t-7.5 -39.5q-2 -15 -8 -52.5t-6.5 -52zM141 1141q8 -20 21 -23q71 -10 90 -6q108 23 162 102q6 9 17.5 24 t14.5 19q4 7 16 24q36 53 31 54q-1 0 -8 -6q-11 -8 -10 9q0 3 15 82q1 7 2 12q-5 1 -10.5 15t-20.5 9q0 10 4 60q-31 -10 -37 -15q-65 -52 -74 -61q-23 -24 -71 -71t-88 -91q-23 -26 -48 -70q-17 -24 -6 -67zM293.5 635q1.5 20 11.5 33q37 61 78 82q11 9 29 36q28 37 45 29 q9 -4 12 -10.5t3 -17t1 -15.5q-13 -85 -55 -143q-31 -42 -86 -45q-17 0 -25 2q-12 4 -12 14q-3 15 -1.5 35z" />
<glyph unicode="&#xea;" d="M5.5 550.5q-0.5 -14.5 0.5 -52.5q3 -24 9 -68.5t8 -62.5q15 -115 88 -207q84 -110 206 -158q42 -17 86 -16.5t79 12t79 33.5q19 9 38.5 25t32 29t32.5 35.5t30 33.5q29 33 19 65q-3 7 0 14q1 3 7 17t9 20.5t9 15.5t12 15q14 15 20 33t5.5 35t-1.5 37q-1 17 -14.5 23 t-28.5 -3q-43 -22 -76 -51q-50 -38 -92 -101q-52 -83 -69 -106q-26 -38 -62 -21q-67 31 -96 82q-36 59 -47 154q-7 48 12 80q10 0 14 -2q89 -29 185 -4q74 14 114 49q31 31 45 47q39 39 48 57q18 53 24 107q3 22 -2 96q0 4 -1.5 6.5t-3.5 5.5t-3 4q-5 10 -11.5 19t-17 18.5 t-15 13.5t-19.5 15.5t-17 13.5q-82 64 -178 84q-38 8 -49 25q-8 8 -19 8q-63 -4 -94 -25q-77 -46 -84 -49q-59 -34 -106 -82q-66 -66 -76 -135q-2 -14 -7.5 -40.5t-7.5 -39.5q-2 -15 -8 -52.5t-6.5 -52zM82 1141q24 -14 27 -15q85 -7 133 31q18 15 36 34t38.5 43t33.5 38 l12 12q20 -20 61 -58t62 -57q52 -50 142 -53q35 0 53 2l16 4q-13 17 -16 19q-12 10 -16 28q0 12 -15 27l-69 64q-23 18 -29 22q-57 37 -76 104q-4 14 -10.5 26.5t-16.5 29t-14 22.5q-4 9 -10 9q-6 -1 -19 -2t-23.5 -3.5t-19.5 -7.5q-31 -19 -63.5 -48.5t-50 -49t-51.5 -59.5 l-60 -74q-42 -49 -55 -88zM293.5 635q1.5 20 11.5 33q37 61 78 82q11 9 29 36q28 37 45 29q9 -4 12 -10.5t3 -17t1 -15.5q-13 -85 -55 -143q-31 -42 -86 -45q-17 0 -25 2q-12 4 -12 14q-3 15 -1.5 35z" />
<glyph unicode="&#xeb;" d="M5.5 550.5q-0.5 -14.5 0.5 -52.5q3 -24 9 -68.5t8 -62.5q15 -115 88 -207q84 -110 206 -158q42 -17 86 -16.5t79 12t79 33.5q19 9 38.5 25t32 29t32.5 35.5t30 33.5q29 33 19 65q-3 7 0 14q1 3 7 17t9 20.5t9 15.5t12 15q14 15 20 33t5.5 35t-1.5 37q-1 17 -14.5 23 t-28.5 -3q-43 -22 -76 -51q-50 -38 -92 -101q-52 -83 -69 -106q-26 -38 -62 -21q-67 31 -96 82q-36 59 -47 154q-7 48 12 80q10 0 14 -2q89 -29 185 -4q74 14 114 49q31 31 45 47q39 39 48 57q18 53 24 107q3 22 -2 96q0 4 -1.5 6.5t-3.5 5.5t-3 4q-5 10 -11.5 19t-17 18.5 t-15 13.5t-19.5 15.5t-17 13.5q-82 64 -178 84q-38 8 -49 25q-8 8 -19 8q-63 -4 -94 -25q-77 -46 -84 -49q-59 -34 -106 -82q-66 -66 -76 -135q-2 -14 -7.5 -40.5t-7.5 -39.5q-2 -15 -8 -52.5t-6.5 -52zM29 1217q3 -5 8.5 -21t9.5 -25q4 -7 10.5 -13.5t11.5 -11t14.5 -11 t14 -9t16.5 -9.5t15 -9q19 -12 37 -8q30 7 78 22q37 15 37 37q0 2 4 8.5t4 8.5q33 44 -13 84q-3 3 -11 11.5t-11 14.5q-21 28 -61 33q-3 1 -21 10l-20 10q-12 5 -56 -13t-47 -28q-1 -3 -20 -81zM293.5 635q1.5 20 11.5 33q37 61 78 82q11 9 29 36q28 37 45 29q9 -4 12 -10.5 t3 -17t1 -15.5q-13 -85 -55 -143q-31 -42 -86 -45q-17 0 -25 2q-12 4 -12 14q-3 15 -1.5 35zM468.5 1212q-0.5 -8 2 -16.5t4.5 -15t7 -15.5t8 -13.5t9.5 -14.5t8.5 -13q18 -30 78 -43q70 0 129 45q13 9 19 28t11 24q-8 10 -24 34q-11 11 -12 15q-20 41 -78 51q-7 1 -20.5 2 t-21.5 2.5t-19 4.5t-19 9q-2 2 -7.5 2t-12 -1t-7.5 -1q-47 -41 -53 -67q-2 -9 -2.5 -17z" />
<glyph unicode="&#xee;" horiz-adv-x="614" d="M27 66l10 -23q12 -19 27 -33t43 -32.5t34 -22.5q45 -31 97 -18q63 14 97 50t44 109q2 16 16 88q27 153 29 174q6 55 6 168q3 47 -2 88q-20 148 25 263q7 16 14 41q6 22 -2 34.5t-25 8.5q-15 -5 -27 12t-18 18q-3 0 -8 29q-7 1 -23.5 6.5t-23.5 5.5q-122 0 -172 -135 q-35 -88 -35 -250q0 -129 4 -403v-107q-73 -6 -110 -71zM78 1114q4 -2 9.5 -6.5t8.5 -5.5q56 -4 88 26q12 12 23.5 27t24.5 35t22 31q1 1 15 13t27.5 23t16.5 9q21 -16 38.5 -31.5t27.5 -24.5t22 -22.5t15 -16.5t14 -17l12 -15q36 -42 95 -45q22 0 34 2q3 0 11 4 q-3 10 -11 14q-10 8 -10 25q0 10 -10 20q-28 32 -47 51q-6 10 -19 19q-36 29 -49 84q-6 25 -26 61q-1 2 -7 8q-29 21 -46 27.5t-40 -1t-53 -36.5q-59 -53 -110 -127q-3 -5 -39 -59q-31 -51 -37 -72z" />
<glyph unicode="&#xef;" horiz-adv-x="552" d="M-10 1206l8 -16t10 -19q5 -8 12 -14.5t16.5 -12.5t16 -9.5t19 -9.5t18.5 -9q22 -9 37 -6q8 1 78 18q37 11 37 33q0 1 4 7t4 8q34 31 -12 65q-20 20 -23 25q-25 22 -61 24q-2 1 -9 4t-12 4q-3 1 -9 5.5t-11 5.5q-12 3 -56 -11.5t-47 -23.5q-4 -8 -7 -18.5t-6.5 -25 t-6.5 -24.5zM47 66l10 -23q12 -19 27.5 -33t43 -32t34.5 -23q44 -31 96 -18q63 14 97 50t44 109q0 1 17 88q25 140 28 174q7 64 7 168q3 47 -2 88q-20 150 24 263q7 16 14 41q6 22 -1.5 34.5t-24.5 8.5q-15 -5 -27 12t-18 18q-3 0 -8 29q-7 1 -23.5 6.5t-24.5 5.5 q-122 0 -172 -135q-34 -86 -34 -250q0 -129 4 -403v-107q-74 -6 -111 -71zM381 1212q2 -12 2.5 -18t6.5 -17t9.5 -16.5l10.5 -16.5t10 -16q18 -30 78 -43q70 0 129 45q13 9 18.5 28.5t11.5 25.5l-24 30q-11 10 -12 15q-19 40 -78 53q-6 1 -25.5 2.5t-32 4.5t-22.5 9 q-2 2 -7.5 2t-12 -1t-7.5 -1q-47 -41 -53 -67q-4 -7 -2 -19z" />
<glyph unicode="&#xf1;" horiz-adv-x="1024" d="M-80 958q6 -3 32 -19.5t40 -23.5q2 -1 8.5 -5t8.5 -6t5 -6t4 -9q5 -133 5 -156q0 -12 -1.5 -37t-1.5 -39q0 -6 2.5 -19.5t2.5 -19.5q-6 -88 10 -161q4 -28 4 -43q2 -91 27 -301q10 -100 94 -119q15 -5 20 -10q9 -13 39 -13q12 -1 80 -16q25 -5 31 -4q15 3 40 10t36 10 q26 6 20 33q-4 30 -8 86q-2 29 -17 144t-14 178q0 6 -4 22q-4 46 -4 64q0 51 8 92q12 69 31 100q27 44 90 111q25 21 74 53q7 4 47 8q10 -84 10 -90q9 -133 35 -252q9 -35 31 -143l12 -78q18 -73 18 -76q23 -135 29 -180q6 -41 41 -66q42 -36 133 -55q12 -3 25 0q18 4 22 10 t2 27q-12 78 -12 117q-4 149 -33 243q-10 35 -10 48q0 16 -7.5 96t-2.5 125q2 23 2 69q0 25 1 73t1 71v24q10 45 -8.5 79t-57.5 67q-35 29 -121 49q-211 40 -374 -100l-56 -50q-9 15 -14 25q-2 5 -21.5 62t-27.5 87q-11 49 -49 84q-29 23 -58 11q-30 -14 -75.5 -53 t-53.5 -44q-1 -1 -8 -14l-47 -47q-9 -7 -35 -23zM264 1276q-10 -36 4 -59q8 -17 25 -17q14 2 35 19q3 2 8 26q13 49 33 58q21 11 36.5 16t36 2t37.5 -18q11 -10 38.5 -27.5t39.5 -30.5q29 -33 68 -49q82 -40 135 16q31 32 49 54q4 7 14 45q1 0 7.5 2t7.5 4q5 6 12 26.5 t16 26.5q2 2 2 6l-8 13q0 2 10 36q-3 1 -7 3q-4 3 -5 2q-32 -4 -47 -17q-38 -33 -68 -63q-29 -29 -55 -31q-8 -1 -24.5 0.5t-22.5 1.5q-38 9 -59 45q-30 51 -75.5 76.5t-96.5 7.5q-77 -24 -115 -86q-20 -33 -31 -88z" />
<glyph unicode="&#xf6;" horiz-adv-x="942" d="M10 545q-10 -142 13 -250q29 -142 120 -223q129 -109 316 -115q48 0 57 2q12 1 30.5 8t22.5 8q24 6 45 9q37 2 84 30q24 19 42.5 40.5t45 63t31.5 48.5q1 1 11 15t14 22q16 48 32 112q2 12 10 45.5t10.5 50t6 44t1.5 51.5t-9 47q-1 5 0.5 13t1.5 9q9 113 8 142 q-2 39 -11 111t-11 100q-2 25 -25 41q-29 10 -31 18q-10 15 -21.5 25t-29 15.5t-26 7.5t-31.5 5q-33 4 -92 23q-11 4 -30 9.5t-26 8.5q-140 31 -247 -49q-6 -4 -31 -23t-34.5 -27l-28.5 -24t-32.5 -30t-25.5 -29q-9 -14 -28 -37t-27 -33q-37 -58 -47 -77q0 -1 -6 -20 t-13 -27q-6 -6 -8.5 -16.5t-3.5 -24t-2 -19.5q-3 -11 -9.5 -31.5t-10.5 -37t-5 -31.5zM223 1296q3 -6 9 -21t10 -24q4 -7 10.5 -13.5t11.5 -11t14.5 -11t14 -9t16.5 -9.5t15 -9q19 -11 36 -8q30 7 78 22q37 15 37 37q0 2 4 8t4 8q34 44 -12 84q-2 2 -10 11.5t-12 15.5 q-21 27 -62 33q-3 1 -6 2.5t-7 4t-7 3.5q-19 9 -21 10q-12 4 -55.5 -13t-46.5 -28q-4 -11 -21 -82zM365.5 394.5q-3.5 52.5 1.5 60.5q9 84 59 149q7 12 21 32t20 30q24 49 74 96q18 15 63 72q3 2 11.5 9t11.5 9q20 10 31.5 6.5t15.5 -24.5l28 -175q-2 -22 -5.5 -55t-6 -58.5 t-4.5 -47.5l-12 -152q-9 -89 -49 -164q-15 -27 -29 -34t-41 -1q-25 6 -68.5 23t-52.5 20t-12 13q-4 9 -21 37.5t-24.5 49t-7.5 42.5q0 10 -3.5 62.5zM663.5 1292q-0.5 -8 2 -17t4 -14.5t7 -15.5t7.5 -13.5t9.5 -15t8.5 -12.5q18 -30 78 -43q70 0 129 45q13 9 19.5 27.5 t11.5 23.5q-10 13 -25 35q-11 10 -12 15q-20 41 -78 51q-7 1 -20.5 2t-21.5 2.5t-19 4.5t-19 9q-2 2 -7.5 2t-11.5 -1t-7 -1q-47 -41 -53 -67q-2 -9 -2.5 -17z" />
<glyph unicode="&#xf7;" horiz-adv-x="1126" d="M49 483q7 -23 11 -28t18 -11q117 -53 209 -41q92 11 256 11q224 8 331 10q39 4 121 25q7 3 23 12t26 12q-9 14 -20.5 16t-22 -1.5t-26.5 1.5q16 6 55 25q0 29 -4 35h-186q-7 0 -20.5 2t-20.5 2q-17 0 -49 1t-57 1t-46 -2q-90 -4 -262.5 -17t-191.5 -14q-20 -2 -43 -7.5 t-56.5 -17t-44.5 -14.5zM369 807q-7 -44 30 -105q48 -86 142 -61q9 1 24.5 6t24.5 6q34 3 41 31q26 85 -27 170q-10 17 -23.5 28.5t-32.5 18.5t-32.5 10t-36.5 7q-17 4 -29 -0.5t-30 -20.5t-21 -18q-30 -20 -30 -72zM414 217q-7 -43 30 -104q49 -86 142 -62q9 1 24.5 6 t24.5 6q34 3 41 31q26 85 -27 170q-10 17 -23.5 28.5t-32.5 18.5t-32.5 10t-36.5 7q-17 4 -29 -0.5t-30 -20.5t-21 -18q-30 -20 -30 -72z" />
<glyph unicode="&#xf8;" horiz-adv-x="962" d="M20 545q1 15 5 31.5t10.5 37t9.5 31.5q1 6 2 19.5t3.5 24t8.5 16.5q7 8 13 27t6 20q10 19 47 77q8 10 27 33t28 37q12 15 25.5 29t32.5 30l28.5 24t34.5 27t31 23q107 80 248 49l18 -6q20 52 33 92q6 18 19.5 53.5t17.5 45.5q18 43 37 80q3 10 14 10q2 1 3.5 -0.5t2.5 -4 t1.5 -5t1.5 -7t1 -6.5q1 -14 2 -41t2 -41q2 -4 17 -39l-19 -77l-18 -93l14 -2q23 -3 31.5 -5t26.5 -7.5t29.5 -15.5t21.5 -25q2 -9 30 -18q23 -16 25 -41q2 -28 11 -100t11 -111q1 -29 -8 -142q0 -1 -1.5 -9t-0.5 -13q7 -23 9 -46.5t-1 -52t-5.5 -43.5t-10.5 -51l-10 -45 q-13 -49 -33 -112q-4 -8 -14.5 -22t-10.5 -15q-7 -10 -32 -49t-43.5 -61.5t-42.5 -41.5q-47 -28 -84 -30q-21 -3 -45 -9q-4 -1 -23 -8t-31 -8q-9 -2 -57 -2l-39 2q-3 -10 -9 -29.5t-9 -29.5q-5 -14 -15 -38t-12 -28q-27 -55 -57 -29q-2 1 -31 11q1 6 2 17t2 15q11 34 14 78 l4 56q-91 28 -165 90q-92 82 -121 223q-23 108 -13 250zM273 394.5q3 -52.5 3 -62.5q0 -22 8 -43t24.5 -48.5t21.5 -37.5q3 -10 12 -13l4 -2q12 55 19 70q9 23 20 71t14 58q66 234 88 311l25 90q-51 -14 -63 -26q-50 -47 -74 -96q-6 -10 -20 -30t-21 -32q-51 -66 -60 -149 q-4 -8 -1 -60.5zM485 156q35 -6 80 -9q30 -2 43 4t27 31q40 75 49 164l12 152q2 27 8.5 81.5t8.5 79.5l-29 175q-3 21 -16 24q-3 -14 -17 -67t-20 -80q-68 -250 -84 -318q-28 -125 -62 -237z" />
<glyph unicode="&#xfb;" horiz-adv-x="1146" d="M71.5 562.5q0.5 -17.5 2.5 -52.5t2 -49q0 -23 3.5 -48t10 -58t8.5 -48q8 -49 39 -110q148 -228 379 -244q75 -7 180 49q8 4 16 12t17 19t14 16q7 14 19 23q147 -99 289 -78l-25 57q28 16 35 25q17 17 10 33q-6 21 -35 14q-21 -8 -32 -4q-89 42 -119 100q-42 97 -29 207 q1 5 2 16.5t2 16.5q11 181 12 186q1 34 15 160q0 2 1 9t0.5 12t-3.5 8t-5 6.5t-3.5 6t-1.5 7t-0.5 6.5t0.5 7t1 7t1.5 8t1.5 7q15 71 16 90q3 34 -13 46.5t-44 -1.5q-13 -6 -84 -45q-25 -20 -29 -33q-15 -38 -18 -78q-4 -28 -11 -96t-14 -104q-18 -100 -14 -271 q1 -39 -7 -85.5t-14.5 -71.5t-23.5 -82q-3 -16 -25 -25q-25 -7 -57.5 14t-38.5 48q-3 7 -6.5 15.5t-8 19t-6.5 14.5q-55 99 -49 207q6 48 -8 104q-17 65 -32.5 184t-24.5 162q-2 12 -6 24.5t-6.5 20.5t-10 22t-10 18t-12.5 21t-11 19q-7 11 -16 14q-23 9 -78 -3t-74 -29 q-51 -51 -59 -58q16 -35 8 -119q-2 -23 -4 -68.5t-4 -68.5v-37q-7 -22 -10 -49.5t-2.5 -45zM219 1186q24 -14 27 -15q85 -7 133 31q18 15 36 34t38.5 43t33.5 38l13 12q21 -20 62 -57.5t61 -57.5q52 -50 141 -53q35 0 53 2q1 0 17 4q-12 15 -17 19q-12 10 -16 28 q0 12 -15 27l-69 64q-23 18 -29 22q-57 36 -76 105q-4 14 -11 26.5t-16.5 28t-13.5 22.5q-5 9 -10 9q-6 -1 -19 -2t-23 -3.5t-19 -7.5q-67 -41 -166 -157l-60 -74q-42 -49 -55 -88z" />
<glyph unicode="&#xfc;" horiz-adv-x="1126" d="M71.5 562.5q0.5 -17.5 2.5 -52.5t2 -49q0 -23 3.5 -48t10 -58t8.5 -48q8 -49 39 -110q148 -228 379 -244q75 -7 180 49q8 4 16 12t17 19t14 16q7 14 19 23q147 -99 289 -78l-25 57q28 16 35 25q17 17 10 33q-6 21 -35 14q-21 -8 -32 -4q-89 42 -119 100q-42 97 -29 207 q1 5 2 16.5t2 16.5q11 181 12 186q1 34 15 160q0 2 1 9t0.5 12t-3.5 8t-5 6.5t-3.5 6t-1.5 7t-0.5 6.5t0.5 7t1 7t1.5 8t1.5 7q15 71 16 90q3 34 -13 46.5t-44 -1.5q-13 -6 -84 -45q-25 -20 -29 -33q-15 -38 -18 -78q-4 -28 -11 -96t-14 -104q-18 -100 -14 -271 q1 -39 -7 -85.5t-14.5 -71.5t-23.5 -82q-3 -16 -25 -25q-25 -7 -57.5 14t-38.5 48q-3 7 -6.5 15.5t-8 19t-6.5 14.5q-55 99 -49 207q6 48 -8 104q-17 65 -32.5 184t-24.5 162q-2 12 -6 24.5t-6.5 20.5t-10 22t-10 18t-12.5 21t-11 19q-7 11 -16 14q-23 9 -78 -3t-74 -29 q-51 -51 -59 -58q16 -35 8 -119q-2 -23 -4 -68.5t-4 -68.5v-37q-7 -22 -10 -49.5t-2.5 -45zM135 1315q3 -5 9 -20.5t10 -24.5q16 -26 82 -64q19 -11 36 -8q20 4 78 23q19 7 28 14.5t9 21.5q0 2 4 8.5t4 8.5q34 44 -12 84q-3 4 -11.5 12t-11.5 14q-21 28 -61 33q-3 1 -6 2.5 t-7 4t-7 3.5q-2 1 -9 5.5t-12 5.5q-12 4 -55.5 -13t-46.5 -28q-4 -11 -21 -82zM575.5 1310q-0.5 -8 2 -16.5t4 -14.5t7 -15.5t8 -13.5t9 -14t8.5 -13q18 -30 78 -43q70 0 129 45q13 9 19.5 27.5t11.5 23.5q-10 13 -25 35q-11 11 -12 14q-20 41 -78 51q-6 1 -20 2.5t-22 2.5 t-19 4.5t-19 9.5q-2 2 -7.5 2t-11.5 -1t-7 -1q-47 -41 -53 -68q-2 -9 -2.5 -17z" />
<glyph unicode="&#x152;" horiz-adv-x="1843" d="M-66 547q-25 166 31 348q61 194 191 332q125 132 231 184q14 8 29 13.5t35.5 9.5t31 6t37.5 5.5t33 4.5q13 4 65 4q26 4 33 0q22 -23 76.5 -31.5t75.5 -23.5q21 -14 71 -40.5t74 -43.5q30 -20 66 -86l2 -4q1 20 4 59t4 59q3 35 44.5 70.5t74.5 24.5q25 -11 54.5 -12 t48.5 2.5t52 11.5q202 34 439 37q10 0 21.5 -5.5t25.5 -14.5t24 -13q8 -2 24.5 -9.5t22.5 -9.5q6 -1 17 -2.5t18.5 -2.5t16.5 -4t16 -7q-42 -14 -47 -16q7 -1 12.5 -4t7.5 -3q-48 -31 -92 -69q-4 -2 -16 -2q-172 -6 -346 -21q-60 -7 -156 -37q-7 -1 -11.5 -14t-4.5 -24 q1 -6 5.5 -30t4.5 -38q8 -145 10 -227q0 -37 -8 -127q89 10 152 20q79 17 221 -2h33q40 0 51 -11t10 -52q-98 -25 -115 -31q-5 -2 -13.5 -16.5t-14.5 -18.5q-87 -33 -115 -37q-32 -4 -201 -14q-14 -2 -19.5 -7t-6.5 -18q0 -16 -3.5 -42.5t-3.5 -32.5q-24 -186 -32 -283 q0 -17 1 -36t2.5 -41t2.5 -36q170 15 205 15q44 0 123 -7t104 -8q19 -1 40.5 0t48.5 3t42 3q82 0 129 -8q-11 -8 -53 -33l33 -6q-20 -12 -25 -14q18 -2 49 -2q4 -8 4 -12q-2 -1 -32.5 -18t-47.5 -19q-53 -7 -145 -19.5t-169.5 -22.5t-145.5 -18q-21 -4 -93.5 -2.5t-91.5 0.5 q-4 0 -9 -2t-11.5 -5.5t-9.5 -4.5q-8 -8 -11 -8q-8 1 -30 3t-36 4t-26 7q-47 10 -51 70q-4 71 -8 201q-48 -73 -109 -134q-157 -171 -385 -165q-221 -3 -391 159q-114 111 -160 256q-13 43 -35 195zM324 479q0 -91 11 -126q9 -28 27 -50q4 -6 16 -23.5t19 -25.5l29 -35 q9 -8 18 -14t21 -11t19.5 -8.5t23 -6t22 -4t26 -3.5t25 -2.5t29 -2t29.5 -1.5q123 17 137 18q57 9 84 56q42 78 58 145q34 171 43 274q8 177 -3 256q-17 107 -69 224q-55 116 -160 176q-42 28 -39 -19q1 -24 -9.5 -38t-33.5 -31q-4 -2 -14.5 -9t-14.5 -10q-20 -24 -81 -93.5 t-91 -110.5q-105 -141 -114 -297q-8 -101 -8 -228z" />
<glyph unicode="&#x153;" horiz-adv-x="1638" d="M45 545q1 15 5 31.5t10.5 37t9.5 31.5q1 6 2 19.5t3.5 24t8.5 16.5q7 8 12 26.5t6 20.5q5 11 48 77q8 10 27 33t28 37q10 13 23 26t23 22.5t26.5 23t24.5 20t28 22t26 19.5q107 80 248 49q7 -3 25.5 -8.5t29.5 -9.5q58 -19 93 -23q23 -3 31.5 -5t26 -7.5t29 -15.5 t21.5 -25q2 -8 31 -18q21 -15 24 -41l9 -70l12 12q48 48 106 82q7 3 84 49q31 21 95 25q10 0 18 -8q11 -17 49 -25q96 -20 178 -84q4 -3 14.5 -11t15.5 -12t14 -12t14 -14t11.5 -14.5t10.5 -16.5q1 -1 3 -4t3.5 -5.5t1.5 -6.5q5 -74 2 -96q-6 -54 -24 -107q-10 -20 -47 -57 q-14 -16 -45 -47q-40 -35 -115 -49q-95 -25 -184 4q-4 2 -15 2q-19 -32 -12 -80q11 -95 47 -154q29 -51 96 -82q36 -17 62 21q23 30 70 106q42 63 92 101q35 30 75 51q15 9 28.5 3t14.5 -23q1 -20 1.5 -37t-5.5 -35t-20 -33q-6 -6 -12 -15t-9 -15.5t-9 -20.5t-7 -17 q-4 -7 0 -14q10 -33 -18 -65q-10 -10 -30.5 -33t-33 -36t-32 -29t-38.5 -25q-44 -22 -79 -33.5t-78.5 -12t-85.5 16.5q-123 48 -207 158q-34 48 -49 76l-10 -33q-4 -8 -14.5 -22t-10.5 -15q-9 -13 -26 -39.5t-28 -42t-28.5 -36t-36.5 -34.5q-47 -28 -84 -30q-21 -3 -45 -9 q-4 -1 -22.5 -8t-30.5 -8q-9 -2 -57 -2q-187 6 -316 115q-92 82 -121 223q-22 105 -12 250zM399.5 394.5q3.5 -52.5 3.5 -62.5q0 -22 8 -43t24.5 -48.5t21.5 -37.5q3 -10 12 -13t52.5 -20t68.5 -23q27 -6 40.5 1t28.5 34q41 77 50 164l12 152q2 22 4.5 47.5t6 58.5t5.5 55 l-28 175q-4 21 -15.5 24.5t-31.5 -6.5q-3 -2 -11.5 -9t-11.5 -9q-43 -54 -64 -72q-48 -45 -73 -96q-6 -10 -20 -30t-21 -32q-51 -66 -60 -149q-5 -8 -1.5 -60.5zM1118.5 635q-1.5 -20 1.5 -35q0 -10 13 -14q8 -2 24 -2q55 3 86 45q42 58 55 143q-1 5 -1 15.5t-3 17t-12 10.5 q-17 8 -45 -29q-18 -27 -29 -36q-41 -21 -78 -82q-10 -13 -11.5 -33z" />
<glyph unicode="&#x2c6;" horiz-adv-x="614" d="M27 1264q4 -2 10.5 -7t9.5 -6q61 -3 96 27q14 12 26.5 26.5t28 35.5t23.5 30q1 0 17 12.5t31 23.5t18 9q27 -19 47.5 -35t36.5 -31t22.5 -21.5t20.5 -22t16 -17.5q39 -42 102 -45q25 0 39 2q1 0 13 4q-8 13 -13 15q-8 6 -12 24q0 11 -10 21l-51 51q-9 9 -21 18 q-39 27 -55 84q-4 17 -29 62q-3 5 -8 8q-31 21 -49.5 27.5t-44.5 -1t-60 -36.5q-63 -54 -120 -127q-33 -47 -43 -60q-33 -47 -41 -71z" />
<glyph unicode="&#x2dc;" horiz-adv-x="716" d="M59 1356q-10 -39 4 -62q8 -18 25 -18q18 3 35 20q3 2 8 27q12 52 33 61q21 12 36.5 17.5t36 2t37.5 -19.5q11 -11 38.5 -29t39.5 -32q32 -36 68 -51q81 -43 135 16q38 42 49 58q4 5 14 47q1 1 5 1.5t6.5 2t3.5 4.5q5 6 12.5 27.5t16.5 27.5q2 2 2 6l-9 15q1 7 5 19.5 t6 19.5l-13 4q-32 -4 -47 -19q-27 -23 -67 -67q-29 -29 -56 -31q-8 -1 -24.5 0.5t-22.5 1.5q-38 9 -59 47q-30 55 -75.5 81t-96.5 7q-76 -24 -115 -90q-20 -36 -31 -94z" />
<glyph unicode="&#x2000;" horiz-adv-x="997" />
<glyph unicode="&#x2001;" horiz-adv-x="1995" />
<glyph unicode="&#x2002;" horiz-adv-x="997" />
<glyph unicode="&#x2003;" horiz-adv-x="1995" />
<glyph unicode="&#x2004;" horiz-adv-x="665" />
<glyph unicode="&#x2005;" horiz-adv-x="498" />
<glyph unicode="&#x2006;" horiz-adv-x="332" />
<glyph unicode="&#x2007;" horiz-adv-x="332" />
<glyph unicode="&#x2008;" horiz-adv-x="249" />
<glyph unicode="&#x2009;" horiz-adv-x="399" />
<glyph unicode="&#x200a;" horiz-adv-x="110" />
<glyph unicode="&#x2010;" horiz-adv-x="532" d="M11.5 477q0.5 -11 17.5 -26q6 -2 18 -11q32 -14 72 -14q102 -12 145 -16q43 -2 133 -2q21 -2 62 2q21 0 33 20l20 37q8 17 -4 35q-17 26 -51 26q-94 4 -142 4q-13 2 -79 7q-14 0 -41 1t-41 1q-44 0 -64 -2q-45 -4 -65 -33q-14 -18 -13.5 -29z" />
<glyph unicode="&#x2011;" horiz-adv-x="532" d="M11.5 477q0.5 -11 17.5 -26q6 -2 18 -11q32 -14 72 -14q102 -12 145 -16q43 -2 133 -2q21 -2 62 2q21 0 33 20l20 37q8 17 -4 35q-17 26 -51 26q-94 4 -142 4q-13 2 -79 7q-14 0 -41 1t-41 1q-44 0 -64 -2q-45 -4 -65 -33q-14 -18 -13.5 -29z" />
<glyph unicode="&#x2012;" horiz-adv-x="532" d="M11.5 477q0.5 -11 17.5 -26q6 -2 18 -11q32 -14 72 -14q102 -12 145 -16q43 -2 133 -2q21 -2 62 2q21 0 33 20l20 37q8 17 -4 35q-17 26 -51 26q-94 4 -142 4q-13 2 -79 7q-14 0 -41 1t-41 1q-44 0 -64 -2q-45 -4 -65 -33q-14 -18 -13.5 -29z" />
<glyph unicode="&#x2013;" horiz-adv-x="614" d="M-6 524q16 -22 22 -24q35 -17 64 -25q33 -10 84 -6q26 3 75.5 6t63.5 4q11 0 23 1t26 2.5t23 2.5q99 9 125 13q54 6 88 16q11 2 35 12q-15 9 -31 15q5 10 14 31.5t15 33.5q-26 9 -56 12h-84q-15 -1 -46 -3t-46 -3q-88 -2 -207 -20q-23 -4 -62.5 -14t-53.5 -13 q-44 -7 -72 -41z" />
<glyph unicode="&#x2014;" horiz-adv-x="716" d="M-29 481q6 -13 9 -16t14 -6q92 -32 162 -25q66 6 200 6l256 6q26 2 95 15q7 2 19 7t19 7q-9 10 -25 9.5t-30 0.5q17 4 45 15q0 14 -4 18h-145q-5 0 -15.5 1t-15.5 1q-14 0 -38.5 0.5t-44.5 0.5t-36 -1q-127 -4 -352 -16q-17 -1 -35.5 -4.5t-42.5 -10t-35 -8.5z" />
<glyph unicode="&#x2018;" horiz-adv-x="327" d="M31 1237q0 -41 2 -55q1 -30 4 -47.5t17 -37.5t40 -28q3 0 5 -1.5t6 -5t8 -5.5q22 -15 35.5 -13t35.5 23q54 45 41 119q-8 52 -49 76q20 39 37 48.5t57 6.5q19 0 31 4q-6 40 -31 55q-30 18 -78 16.5t-69 -22.5q-5 -3 -57 -49q-35 -41 -35 -84z" />
<glyph unicode="&#x2019;" horiz-adv-x="307" d="M43 1278q2 -5 5 -17.5t5 -17.5q26 -56 78 -53q11 0 19 -4q-2 -22 -25 -45q-33 -29 -43 -51q0 -17 2 -23l22 -35q8 -20 27 -10q11 5 64 37q28 16 36 37q29 48 29 147q1 19 -4 52.5t-6 41.5v6q-6 7 -10.5 16t-6.5 14.5t-4.5 17.5t-3.5 16q-20 0 -28 16q-14 29 -52 25 q-8 -1 -23.5 -5t-23.5 -5q-17 0 -30 -23q-16 -32 -19 -37q-29 -54 -8 -100z" />
<glyph unicode="&#x201a;" horiz-adv-x="266" d="M23 137l2 19q3 18 10 26t22 11q10 10 23 10q8 1 23.5 4t23.5 4q36 4 51 -21q9 -12 29 -12q1 -4 3.5 -13t4 -14t6 -11.5t10.5 -12.5v-4q1 -9 6.5 -35t4.5 -41q0 -81 -29 -119q-7 -17 -37 -30q-8 -3 -29 -13.5t-34 -15.5q-18 -9 -27 8q-1 2 -20 27q-3 9 -3 18l5 4l-2 2l4 4 q16 19 34 31q14 10 19 21q3 9 0 18q-4 2 -12 2q-51 -3 -76 43q-2 4 -5.5 13.5t-4.5 13.5q-17 33 -2 63z" />
<glyph unicode="&#x201c;" horiz-adv-x="573" d="M23 1182q1 -20 20 -92q0 -2 2 -3.5t5.5 -4t4.5 -3.5q36 -45 115 -57q17 -5 25.5 -1t15.5 21q37 81 39 88q5 24 0 58q-2 12 -21 59q-21 61 -82 35q-2 -1 -6.5 -2t-9 -2.5t-8.5 -3.5q-3 66 18 104q2 3 6 10t5.5 9.5t4 9t1.5 9.5t-2 11q-10 26 -29 15q-1 0 -9 -4t-12 -4 q-42 0 -65 -60q-9 -23 -18 -98q-4 -60 0 -94zM301 1208q-1 -19 4 -52.5t6 -41.5l2 -6q6 -6 10 -14.5t5.5 -14.5t4 -17.5t3.5 -17.5q21 0 29 -16q15 -28 51 -24q8 1 23.5 5t23.5 5q18 0 31 22l20 37q29 54 8 101q-7 19 -10 34q-25 54 -78 54q-4 0 -16 4q0 24 24 45 q35 30 41 51q3 11 -2 20q-5 14 -20 37q-11 19 -27 11q-13 -6 -34 -18.5t-29 -16.5q-1 -1 -8.5 -6t-10 -7t-7.5 -6.5t-8 -8.5t-5 -9q-27 -47 -31 -150z" />
<glyph unicode="&#x201d;" horiz-adv-x="573" d="M43 1278q2 -5 5 -17.5t5 -17.5q26 -56 78 -53q11 0 19 -4q-2 -22 -25 -45q-33 -29 -43 -51q0 -17 2 -23l22 -35q8 -20 27 -10q11 5 64 37q28 16 36 37q29 48 29 147q1 19 -4 52.5t-6 41.5v6q-6 7 -10.5 16t-6.5 14.5t-4.5 17.5t-3.5 16q-20 0 -28 16q-14 29 -52 25 q-8 -1 -23.5 -5t-23.5 -5q-17 0 -30 -23q-16 -32 -19 -37q-29 -54 -8 -100zM313 1323q-4 -20 2 -57q4 -21 21 -60q24 -62 82 -32q9 0 24 6q3 -70 -16 -105q-2 -3 -6 -10t-5.5 -9.5t-3 -8t-1.5 -10t2 -9.5q8 -25 28 -14q4 0 12 4t9 4q43 -2 65 59q11 33 19 99q0 72 -4 94 q0 16 -19 90q-1 2 -7 6.5t-7 5.5q-35 48 -115 56q-17 5 -25.5 0.5t-15.5 -21.5q-37 -81 -39 -88z" />
<glyph unicode="&#x201e;" horiz-adv-x="266" d="M23 137l2 19q3 18 10 26t22 11q10 10 23 10q8 1 23.5 4t23.5 4q36 4 51 -21q9 -12 29 -12q1 -4 3.5 -13t4 -14t6 -11.5t10.5 -12.5v-4q1 -9 6.5 -35t4.5 -41q0 -81 -29 -119q-7 -17 -37 -30q-8 -3 -29 -13.5t-34 -15.5q-18 -9 -27 8q-1 2 -20 27q-3 9 -3 18l5 4l-2 2l4 4 q16 19 34 31q14 10 19 21q3 9 0 18q-4 2 -12 2q-51 -3 -76 43q-2 4 -5.5 13.5t-4.5 13.5q-17 33 -2 63z" />
<glyph unicode="&#x2022;" horiz-adv-x="614" d="M27 627q-10 -96 69 -215q44 -86 118 -118t171 -7q20 2 51.5 11.5t48.5 12.5q71 9 84 62q28 104 14.5 183t-67.5 165q-25 45 -69.5 73t-81 37.5t-96.5 20.5q-9 1 -13 2q-33 7 -59 -3.5t-59 -40.5t-44 -38q-38 -24 -51.5 -59.5t-15.5 -85.5z" />
<glyph unicode="&#x2026;" horiz-adv-x="614" d="M-27 -16q20 -8 33.5 -11t28.5 0.5t28 16.5q3 2 12 5t13 5q12 3 27 12q23 11 8 35q-3 5 -13.5 15.5t-13.5 17.5q-21 23 -47 18q-34 -9 -47 -39q-17 -41 -29 -75zM217 25q3 -8 33 -52q53 23 112 29q21 -3 25 23q20 61 -47 77q-64 9 -115 -39q-20 -20 -8 -38zM468 78 q-3 -7 7 -27q8 -14 24.5 -37.5t22.5 -33.5q23 0 29 6q30 17 74 10q3 -2 10 2t10 8q20 28 6.5 60t-47.5 38q-59 11 -90 -10q-5 -2 -12.5 -2.5t-9.5 -1.5q-21 -5 -24 -12z" />
<glyph unicode="&#x202f;" horiz-adv-x="399" />
<glyph unicode="&#x2039;" horiz-adv-x="573" d="M45 498q49 -62 59 -78q30 -64 132 -150q16 -15 52 -43.5t52 -44.5q34 -27 72 -35q18 -7 32 5q-3 7 -1 11t12 5q3 0 9.5 7t10.5 7q20 4 29 4q-2 3 -7 10t-8 12t-4 9q0 11 -5.5 19.5t-8.5 11t-16 12.5q-94 63 -115 80q-72 52 -150 117q-6 5 -20 13t-18 11l116 78 q92 55 138 105q5 4 11.5 13t10.5 11q3 3 102 96q5 7 7.5 16t3.5 19t2 15q0 5 -6 13t-15 7l-2 2q0 11 -7 13t-15 -3q-75 -33 -107 -57q-29 -26 -86 -73.5t-76 -63.5q-60 -55 -123 -127l-7 -7l-8.5 -8.5t-8 -6.5t-11 -5.5t-12.5 -1.5q-17 0 -14 -18z" />
<glyph unicode="&#x203a;" horiz-adv-x="573" d="M23 844q10 -31 12 -33q8 -10 42 -56.5t54 -70.5q21 -23 49 -49t45 -40.5t57 -46.5l50 -40q21 -13 35 -29q-20 -15 -23 -18q-12 -9 -61 -45t-74 -58q-96 -76 -168 -213q-7 -12 4 -18q42 -18 76 16q6 7 25.5 28t27.5 29.5t25.5 27t29.5 29.5t28.5 25.5t32 26.5t32.5 23 q41 27 133 102q15 10 22 17q14 27 45 22q-8 47 -14 72q-4 3 -20.5 10t-24.5 14l-111 88q-12 9 -33.5 28.5t-33.5 29.5l-131 98q-41 25 -64 35q-7 3 -13.5 4.5t-15 0t-11 -1.5t-14.5 -3.5t-13 -3.5z" />
<glyph unicode="&#x205f;" horiz-adv-x="498" />
<glyph unicode="&#x20ac;" horiz-adv-x="1269" d="M0 561q10 -2 29 -6.5t29 -7t24 -7t24 -10.5q16 -8 33 -11.5t39 -5t33 -3.5q8 -29 10 -39q13 -80 60 -172q58 -130 143 -186q82 -56 115 -70q38 -19 63 -30t62 -20t71 -7q84 5 203 26q31 5 78 31q3 2 26 17t28.5 18.5t25.5 17t27.5 19.5t24 19t26 22t21.5 21t22 24 q59 69 81 147q-24 -8 -28 -10v41q-13 0 -19 -2q-50 -26 -69 -74q-22 -54 -72 -74q-39 -16 -115 -53q-67 -31 -131 -20q-137 25 -217 127q-34 43 -82 129q-37 68 -35 108q42 7 109.5 7t125.5 6t107 28q-28 4 -43 4q7 4 26 11.5t33 16t27 21.5q-28 4 -34 4q0 2 1 5.5t1 5.5 q19 3 27.5 11.5t4.5 27.5l-38 6q3 3 9.5 12t12.5 16q-61 1 -123 -2t-150 -9.5t-122 -8.5q0 61 2 92q113 9 133 12q5 1 31 3.5t36 5t28 11.5t30 23q1 1 5 6t4.5 6t3 5t2.5 6t0.5 5.5t0 7t-1.5 7.5q-14 33 -33 45t-55 11q-28 -4 -80 -8q-4 0 -18 -1.5t-21 -1.5t-18.5 0.5 t-22.5 2.5t-22 6q3 17 10.5 54.5l11.5 57.5q11 62 51.5 100.5t106.5 69.5q58 28 152 39q123 10 190 -59q23 -23 43 -33q7 -3 22 -6t19 -4v37q9 1 26.5 2t26.5 2q-13 49 -38.5 86.5t-64.5 65t-72 44t-84 39.5l-21 9q-1 3 -2 11.5t-2 12.5q-5 14 -16.5 20.5t-24.5 2.5 q-49 -14 -76 -31q-111 -64 -219 -135q-13 -7 -27 -17q-84 -60 -168 -168q-70 -98 -88 -157q-2 -6 -14 -54q-32 -4 -43 -4q-107 -6 -187 -77q-36 -29 9 -46q45 -22 147 -30q4 0 16.5 -1t20.5 -1l-6 -131q-16 -3 -52.5 -6.5t-57 -7t-48.5 -16.5t-49 -34z" />
<glyph unicode="&#x2122;" horiz-adv-x="921" d="M45 1348q0 -5 2 -7q10 -7 6 -18q-2 -3 2.5 -6t10.5 -2h12h78h10l2 -6q-4 -102 -4 -152q0 -13 -1 -43.5t-0.5 -52.5t3.5 -43q2 -23 6.5 -48.5t12 -59t10.5 -48.5q0 -7 10 -12q2 -1 8.5 -1t9.5 -1q17 -4 29 8q36 36 31 76q-9 68 -15 135l-18 199q-3 30 -6 57q0 7 8 10 q30 9 45 15q8 2 27 10t30 10q29 10 107 31q12 4 20 12q-5 0 -14 -1t-14 -1v2q8 2 20 6v2h-14l16 8v3q-15 -3 -31 -3v3q4 1 11 2t10 2h-37q-10 0 -10 6q16 8 18 10v4l-7.5 2.5t-8.5 2.5t-8 1q-33 -3 -68 -12q-18 -4 -66.5 -16t-74.5 -17q-110 -23 -158 -67zM426 948 q0 -5 3 -12.5t3 -9.5q0 -3 4 -17t4 -22q2 -18 14.5 -26.5t30.5 -4.5q19 6 27 23q14 21 16 39q0 7 6 20.5t7 15.5l6 41q15 70 12 90q-3 17 -8 109q0 23 -2 33q33 -25 35 -51l6 -21q20 -57 43 -123q7 -22 22 -26q6 -2 19 -2q0 10 2 14q12 16 14 24q4 7 7.5 21.5t4.5 17.5 q2 8 19 54q16 38 33 88q6 23 26 30v-22q-4 -78 -8 -121q0 -10 -3.5 -31t-4.5 -26q-2 -41 -2 -123q0 -9 -6 -15q0 -2 -3.5 -10.5t-2.5 -15.5q4 -27 -7 -43q-3 -3 0 -6q12 -17 29 -19q5 -1 15.5 -2t15.5 -2q16 0 22 4q1 2 17 10q-4 4 -4 13q-1 1 -1 2.5t-1 1.5q-3 1 -3.5 3 t0 3t2 3t1.5 3v-6q9 22 10 27h4q-4 -24 -4 -35q2 2 4 5t4 5q4 -2 8 -2q2 2 6 10q-7 0 -9.5 1.5t-0.5 6.5q2 4 2 11q4 4 6 8q1 9 3 26.5t3 26.5h5v-8q4 30 -11 43q-2 2 -2 8q8 25 6 31q-1 2 -2 7t-2 7q-1 6 -2 18t-2 19q0 2 2 6q0 1 1 3t1 3l-6 39q-1 6 -4 16.5t-4 16.5v27v2 q-8 3 -8 18q2 7 2 45q-4 48 -23 76q-17 27 -47 22q-3 0 -8 -1t-8 -1q-17 -3 -25 -14q-10 -9 -17 -21.5t-9.5 -19.5t-8 -26t-6.5 -23l-30 -94h-2q-5 6 -8 12t-5 13.5t-3 12t-3 14.5t-2 13q-1 0 -3 -1t-3 -1l-6 23q-3 14 -11 24q-4 2 -8 15l-8 16t-10 19q-3 4 -14 13.5 t-15 16.5q-24 20 -49 23q-12 4 -18 4q-22 -2 -38.5 -17t-17.5 -36q-4 -39 -8 -125q-4 -78 -4 -117q-2 -39 -2 -117zM541 1221v18q10 -10 0 -18zM543 1165v21h4v-21h-4zM831 897q0 69 17 127q1 0 2 -1t2 -1q0 -4 -2 -6q-6 -11 0 -15q-1 -5 -4 -14t-4 -14l-2 -4 q2 -6 1.5 -16.5t0.5 -16.5t-2.5 -17t-3.5 -16q0 -1 -2 -2.5t-3 -3.5zM848 885q-1 10 1 21t6 24.5t5 21.5q1 -1 4 -2t4 -2l-18 -63h-2z" />
<glyph unicode="&#x25fc;" horiz-adv-x="1054" d="M0 0v1055h1055v-1055h-1055z" />
</font>
</defs>
</svg>
